STARTFONT 2.1
COMMENT
COMMENT Converted from OpenType font "coolvetica compressed rg.ttf" by "otf2bdf 3.0".
COMMENT
FONT -FreeType-Coolvetica Compressed Rg-Medium-R-Normal--30-300-72-72-P-72-ISO10646-1
SIZE 30 72 72
FONTBOUNDINGBOX 22 34 -8 -7
STARTPROPERTIES 19
FOUNDRY "FreeType"
FAMILY_NAME "Coolvetica Compressed Rg"
WEIGHT_NAME "Medium"
SLANT "R"
SETWIDTH_NAME "Normal"
ADD_STYLE_NAME ""
PIXEL_SIZE 30
POINT_SIZE 300
RESOLUTION_X 72
RESOLUTION_Y 72
SPACING "P"
AVERAGE_WIDTH 72
CHARSET_REGISTRY "ISO10646"
CHARSET_ENCODING "1"
FONT_ASCENT 29
FONT_DESCENT 6
COPYRIGHT "© 1999-2019 Typodermic Fonts Inc."
_OTF_FONTFILE "coolvetica compressed rg.ttf"
_OTF_PSNAME "CoolveticaCompressedRg-Regular"
ENDPROPERTIES
CHARS 755
STARTCHAR 0017
ENCODING 23
SWIDTH 100 0
DWIDTH 3 0
BBX 0 0 0 0
BITMAP
ENDCHAR
STARTCHAR 0020
ENCODING 32
SWIDTH 100 0
DWIDTH 3 0
BBX 0 0 0 0
BITMAP
ENDCHAR
STARTCHAR 0021
ENCODING 33
SWIDTH 133 0
DWIDTH 4 0
BBX 2 20 1 0
BITMAP
C0
C0
C0
C0
C0
C0
C0
C0
C0
C0
C0
C0
C0
C0
C0
00
00
C0
C0
C0
ENDCHAR
STARTCHAR 0022
ENCODING 34
SWIDTH 200 0
DWIDTH 6 0
BBX 4 7 1 14
BITMAP
B0
B0
B0
B0
B0
B0
B0
ENDCHAR
STARTCHAR 0023
ENCODING 35
SWIDTH 300 0
DWIDTH 9 0
BBX 7 20 1 0
BITMAP
24
24
24
24
6C
6C
FE
FE
6C
6C
6C
6C
FE
FE
48
48
48
48
48
D8
ENDCHAR
STARTCHAR 0024
ENCODING 36
SWIDTH 300 0
DWIDTH 9 0
BBX 7 24 1 -2
BITMAP
30
30
78
FC
CE
C6
C6
C6
C0
C0
E0
78
3C
1E
0E
06
C6
C6
C6
CE
FE
7C
30
30
ENDCHAR
STARTCHAR 0025
ENCODING 37
SWIDTH 300 0
DWIDTH 9 0
BBX 9 21 0 0
BITMAP
0300
6200
D200
9200
9600
9400
9400
D400
6C00
0800
0800
0B00
1D80
1580
1580
1580
3580
2580
2580
2580
6300
ENDCHAR
STARTCHAR 0026
ENCODING 38
SWIDTH 266 0
DWIDTH 8 0
BBX 7 20 1 0
BITMAP
70
F0
C0
C0
C0
C0
C0
C0
76
F6
C6
C6
C6
C6
C6
C6
C6
CC
FC
78
ENDCHAR
STARTCHAR 0027
ENCODING 39
SWIDTH 100 0
DWIDTH 3 0
BBX 1 7 1 14
BITMAP
80
80
80
80
80
80
80
ENDCHAR
STARTCHAR 0028
ENCODING 40
SWIDTH 166 0
DWIDTH 5 0
BBX 4 27 1 -4
BITMAP
30
20
60
60
60
60
C0
C0
C0
C0
C0
C0
C0
C0
C0
C0
C0
C0
C0
C0
40
60
60
60
60
20
30
ENDCHAR
STARTCHAR 0029
ENCODING 41
SWIDTH 166 0
DWIDTH 5 0
BBX 4 27 0 -4
BITMAP
C0
40
60
60
60
20
30
30
30
30
30
30
30
30
30
30
30
30
30
30
30
20
60
60
60
40
C0
ENDCHAR
STARTCHAR 002A
ENCODING 42
SWIDTH 233 0
DWIDTH 7 0
BBX 7 7 0 14
BITMAP
10
10
D6
7C
38
2C
64
ENDCHAR
STARTCHAR 002B
ENCODING 43
SWIDTH 266 0
DWIDTH 8 0
BBX 6 7 1 7
BITMAP
30
30
30
FC
FC
30
30
ENDCHAR
STARTCHAR 002C
ENCODING 44
SWIDTH 100 0
DWIDTH 3 0
BBX 2 8 1 -5
BITMAP
C0
C0
C0
40
40
C0
80
80
ENDCHAR
STARTCHAR 002D
ENCODING 45
SWIDTH 133 0
DWIDTH 4 0
BBX 3 2 0 8
BITMAP
E0
E0
ENDCHAR
STARTCHAR 002E
ENCODING 46
SWIDTH 100 0
DWIDTH 3 0
BBX 2 3 1 0
BITMAP
C0
C0
C0
ENDCHAR
STARTCHAR 002F
ENCODING 47
SWIDTH 166 0
DWIDTH 5 0
BBX 5 20 0 0
BITMAP
18
18
10
30
30
30
30
30
30
20
60
60
60
60
60
60
40
C0
C0
C0
ENDCHAR
STARTCHAR 0030
ENCODING 48
SWIDTH 266 0
DWIDTH 8 0
BBX 7 20 1 0
BITMAP
78
FC
CC
CE
CE
CE
CE
CE
CE
CE
CE
CE
CE
CE
CE
CE
CE
CC
FC
78
ENDCHAR
STARTCHAR 0031
ENCODING 49
SWIDTH 166 0
DWIDTH 5 0
BBX 4 20 0 0
BITMAP
30
F0
F0
30
30
30
30
30
30
30
30
30
30
30
30
30
30
30
30
30
ENDCHAR
STARTCHAR 0032
ENCODING 50
SWIDTH 266 0
DWIDTH 8 0
BBX 7 20 1 0
BITMAP
78
FC
CC
CE
CE
CE
0E
0E
0C
1C
38
70
E0
C0
C0
C0
C0
C0
FE
FE
ENDCHAR
STARTCHAR 0033
ENCODING 51
SWIDTH 266 0
DWIDTH 8 0
BBX 7 20 1 0
BITMAP
78
FC
CC
CC
CC
0C
0C
0C
3C
3C
0C
0E
0E
0E
CE
CE
CE
CC
FC
78
ENDCHAR
STARTCHAR 0034
ENCODING 52
SWIDTH 266 0
DWIDTH 8 0
BBX 8 20 0 0
BITMAP
0E
0E
1E
1E
16
36
36
36
26
66
66
46
46
FF
FF
06
06
06
06
06
ENDCHAR
STARTCHAR 0035
ENCODING 53
SWIDTH 266 0
DWIDTH 8 0
BBX 7 20 1 0
BITMAP
FC
FC
C0
C0
C0
C0
C0
FC
FC
CE
0E
0E
0E
0E
0E
CE
CE
CC
FC
78
ENDCHAR
STARTCHAR 0036
ENCODING 54
SWIDTH 266 0
DWIDTH 8 0
BBX 7 20 1 0
BITMAP
78
FC
CE
CE
CE
C0
C0
DC
FC
CE
CE
CE
CE
CE
CE
CE
CE
CC
FC
78
ENDCHAR
STARTCHAR 0037
ENCODING 55
SWIDTH 233 0
DWIDTH 7 0
BBX 6 20 0 0
BITMAP
FC
FC
0C
0C
0C
08
18
18
18
18
38
30
30
30
30
30
30
30
70
70
ENDCHAR
STARTCHAR 0038
ENCODING 56
SWIDTH 266 0
DWIDTH 8 0
BBX 8 20 0 0
BITMAP
3C
7E
66
66
66
66
66
66
7E
7E
66
E7
E7
E7
E7
E7
E7
66
7E
3C
ENDCHAR
STARTCHAR 0039
ENCODING 57
SWIDTH 266 0
DWIDTH 8 0
BBX 7 20 1 0
BITMAP
78
FC
CC
CE
CE
CE
CE
CE
CE
CE
FE
EE
0E
0E
0E
CE
CE
CC
FC
78
ENDCHAR
STARTCHAR 003A
ENCODING 58
SWIDTH 100 0
DWIDTH 3 0
BBX 2 13 1 1
BITMAP
C0
C0
C0
00
00
00
00
00
00
00
C0
C0
C0
ENDCHAR
STARTCHAR 003B
ENCODING 59
SWIDTH 100 0
DWIDTH 3 0
BBX 2 18 1 -4
BITMAP
C0
C0
C0
00
00
00
00
00
00
00
C0
C0
C0
40
40
C0
80
80
ENDCHAR
STARTCHAR 003C
ENCODING 60
SWIDTH 266 0
DWIDTH 8 0
BBX 6 8 1 6
BITMAP
04
1C
78
E0
C0
78
1C
04
ENDCHAR
STARTCHAR 003D
ENCODING 61
SWIDTH 266 0
DWIDTH 8 0
BBX 6 7 1 7
BITMAP
FC
FC
00
00
00
FC
FC
ENDCHAR
STARTCHAR 003E
ENCODING 62
SWIDTH 266 0
DWIDTH 8 0
BBX 6 8 1 6
BITMAP
80
E0
78
1C
1C
78
E0
80
ENDCHAR
STARTCHAR 003F
ENCODING 63
SWIDTH 266 0
DWIDTH 8 0
BBX 7 20 0 0
BITMAP
3C
7E
E6
E6
E6
E6
06
06
0E
0C
1C
18
18
18
18
00
00
18
18
18
ENDCHAR
STARTCHAR 0040
ENCODING 64
SWIDTH 366 0
DWIDTH 11 0
BBX 9 22 1 -3
BITMAP
3E00
FF00
C380
8180
8180
9C80
B480
B480
B480
B480
B480
B480
B480
B480
B480
B580
9F00
8000
8000
C000
FF00
3E00
ENDCHAR
STARTCHAR 0041
ENCODING 65
SWIDTH 266 0
DWIDTH 8 0
BBX 8 20 0 0
BITMAP
3C
3C
3C
3C
3C
3C
3E
36
36
76
66
66
66
7E
7E
67
63
E3
E3
C3
ENDCHAR
STARTCHAR 0042
ENCODING 66
SWIDTH 266 0
DWIDTH 8 0
BBX 7 20 1 0
BITMAP
FC
FC
CE
CE
CE
CE
CE
CC
FC
FC
CE
C6
C6
C6
C6
C6
C6
CE
FE
FC
ENDCHAR
STARTCHAR 0043
ENCODING 67
SWIDTH 266 0
DWIDTH 8 0
BBX 7 20 1 0
BITMAP
78
FC
CC
CE
CE
CE
CE
C0
C0
C0
C0
C0
CE
CE
CE
CE
CE
CC
FC
78
ENDCHAR
STARTCHAR 0044
ENCODING 68
SWIDTH 266 0
DWIDTH 8 0
BBX 7 20 1 0
BITMAP
F8
FC
CE
CE
CE
CE
CE
CE
CE
CE
CE
CE
CE
CE
CE
CE
CE
CE
FC
F8
ENDCHAR
STARTCHAR 0045
ENCODING 69
SWIDTH 233 0
DWIDTH 7 0
BBX 5 20 1 0
BITMAP
F8
F8
C0
C0
C0
C0
C0
C0
F8
F8
C0
C0
C0
C0
C0
C0
C0
C0
F8
F8
ENDCHAR
STARTCHAR 0046
ENCODING 70
SWIDTH 233 0
DWIDTH 7 0
BBX 5 20 1 0
BITMAP
F8
F8
C0
C0
C0
C0
C0
C0
C0
F8
F8
C0
C0
C0
C0
C0
C0
C0
C0
C0
ENDCHAR
STARTCHAR 0047
ENCODING 71
SWIDTH 266 0
DWIDTH 8 0
BBX 7 20 1 0
BITMAP
78
FC
CC
CE
CE
CE
C0
C0
C0
DE
DE
CE
CE
CE
CE
CE
CE
CE
FE
76
ENDCHAR
STARTCHAR 0048
ENCODING 72
SWIDTH 266 0
DWIDTH 8 0
BBX 7 20 1 0
BITMAP
C6
C6
C6
C6
C6
C6
C6
C6
FE
FE
C6
C6
C6
C6
C6
C6
C6
C6
C6
C6
ENDCHAR
STARTCHAR 0049
ENCODING 73
SWIDTH 100 0
DWIDTH 3 0
BBX 2 20 1 0
BITMAP
C0
C0
C0
C0
C0
C0
C0
C0
C0
C0
C0
C0
C0
C0
C0
C0
C0
C0
C0
C0
ENDCHAR
STARTCHAR 004A
ENCODING 74
SWIDTH 266 0
DWIDTH 8 0
BBX 7 20 0 0
BITMAP
06
06
06
06
06
06
06
06
06
06
06
06
06
E6
E6
E6
E6
66
7E
3C
ENDCHAR
STARTCHAR 004B
ENCODING 75
SWIDTH 266 0
DWIDTH 8 0
BBX 7 20 1 0
BITMAP
C6
CE
CC
CC
DC
D8
D8
F8
F8
F8
F8
F8
D8
DC
CC
CC
CC
CE
CE
C6
ENDCHAR
STARTCHAR 004C
ENCODING 76
SWIDTH 233 0
DWIDTH 7 0
BBX 5 20 1 0
BITMAP
C0
C0
C0
C0
C0
C0
C0
C0
C0
C0
C0
C0
C0
C0
C0
C0
C0
C0
F8
F8
ENDCHAR
STARTCHAR 004D
ENCODING 77
SWIDTH 400 0
DWIDTH 12 0
BBX 10 20 1 0
BITMAP
E1C0
E1C0
E1C0
E3C0
B3C0
F3C0
F3C0
F3C0
F3C0
F2C0
F2C0
D6C0
DEC0
DEC0
DEC0
DEC0
DCC0
DCC0
CCC0
CCC0
ENDCHAR
STARTCHAR 004E
ENCODING 78
SWIDTH 300 0
DWIDTH 9 0
BBX 7 20 1 0
BITMAP
E6
E6
E6
E6
A6
B6
B6
F6
F6
D6
D6
DE
DE
DE
DE
CE
CE
CE
CE
CE
ENDCHAR
STARTCHAR 004F
ENCODING 79
SWIDTH 266 0
DWIDTH 8 0
BBX 8 20 0 0
BITMAP
3C
7E
66
E7
E7
E7
E7
E7
E7
E7
E7
E7
E7
E7
E7
E7
E7
67
7E
3C
ENDCHAR
STARTCHAR 0050
ENCODING 80
SWIDTH 266 0
DWIDTH 8 0
BBX 7 20 1 0
BITMAP
FC
FC
CE
CE
CE
CE
CE
CE
CE
CE
FC
FC
C0
C0
C0
C0
C0
C0
C0
C0
ENDCHAR
STARTCHAR 0051
ENCODING 81
SWIDTH 266 0
DWIDTH 8 0
BBX 9 27 0 -7
BITMAP
3C00
7E00
6600
E700
E700
E700
E700
E700
E700
E700
E700
E700
E700
E700
E700
E700
E700
6700
7E00
3C00
1800
1980
1980
1980
1980
1F80
0F00
ENDCHAR
STARTCHAR 0052
ENCODING 82
SWIDTH 266 0
DWIDTH 8 0
BBX 7 20 1 0
BITMAP
FC
FC
CE
CE
CE
CE
CE
CE
CE
FC
FC
CE
CE
CE
CE
CE
CE
CE
CE
CE
ENDCHAR
STARTCHAR 0053
ENCODING 83
SWIDTH 266 0
DWIDTH 8 0
BBX 8 20 0 0
BITMAP
3C
7E
67
63
63
63
60
70
78
3C
0E
07
07
03
E3
E3
E3
67
7E
3E
ENDCHAR
STARTCHAR 0054
ENCODING 84
SWIDTH 266 0
DWIDTH 8 0
BBX 8 20 0 0
BITMAP
FF
FF
18
18
18
18
18
18
18
18
18
18
18
18
18
18
18
18
18
18
ENDCHAR
STARTCHAR 0055
ENCODING 85
SWIDTH 266 0
DWIDTH 8 0
BBX 7 20 1 0
BITMAP
CE
CE
CE
CE
CE
CE
CE
CE
CE
CE
CE
CE
CE
CE
CE
CE
CE
CE
FC
78
ENDCHAR
STARTCHAR 0056
ENCODING 86
SWIDTH 266 0
DWIDTH 8 0
BBX 8 20 0 0
BITMAP
E3
E3
E3
63
67
66
66
66
66
66
76
36
36
36
3C
3C
3C
3C
3C
1C
ENDCHAR
STARTCHAR 0057
ENCODING 87
SWIDTH 400 0
DWIDTH 12 0
BBX 12 20 0 0
BITMAP
C630
E730
E730
E730
6F30
6F30
6F70
6F60
6D60
6D60
6D60
6D60
69E0
69E0
69E0
69E0
39E0
39E0
39E0
39C0
ENDCHAR
STARTCHAR 0058
ENCODING 88
SWIDTH 300 0
DWIDTH 9 0
BBX 9 20 0 0
BITMAP
E300
6300
6300
6600
7600
3600
3600
3C00
1C00
1C00
1C00
3C00
3E00
3600
3600
7600
6700
6300
6300
E380
ENDCHAR
STARTCHAR 0059
ENCODING 89
SWIDTH 266 0
DWIDTH 8 0
BBX 8 20 0 0
BITMAP
E3
63
67
66
66
36
36
3C
3C
1C
1C
18
18
18
18
18
18
18
18
18
ENDCHAR
STARTCHAR 005A
ENCODING 90
SWIDTH 266 0
DWIDTH 8 0
BBX 7 20 0 0
BITMAP
FE
FE
06
0E
0C
0C
0C
1C
18
18
38
30
30
30
70
60
60
60
FE
FE
ENDCHAR
STARTCHAR 005B
ENCODING 91
SWIDTH 166 0
DWIDTH 5 0
BBX 4 26 1 -4
BITMAP
F0
F0
C0
C0
C0
C0
C0
C0
C0
C0
C0
C0
C0
C0
C0
C0
C0
C0
C0
C0
C0
C0
C0
C0
F0
F0
ENDCHAR
STARTCHAR 005C
ENCODING 92
SWIDTH 166 0
DWIDTH 5 0
BBX 5 20 0 0
BITMAP
C0
C0
C0
40
60
60
60
60
60
60
20
30
30
30
30
30
30
10
18
18
ENDCHAR
STARTCHAR 005D
ENCODING 93
SWIDTH 166 0
DWIDTH 5 0
BBX 4 26 0 -4
BITMAP
F0
F0
30
30
30
30
30
30
30
30
30
30
30
30
30
30
30
30
30
30
30
30
30
30
F0
F0
ENDCHAR
STARTCHAR 005E
ENCODING 94
SWIDTH 266 0
DWIDTH 8 0
BBX 8 8 0 13
BITMAP
18
18
3C
3C
6C
66
66
C7
ENDCHAR
STARTCHAR 005F
ENCODING 95
SWIDTH 200 0
DWIDTH 6 0
BBX 6 2 0 -3
BITMAP
FC
FC
ENDCHAR
STARTCHAR 0060
ENCODING 96
SWIDTH 200 0
DWIDTH 6 0
BBX 4 5 1 15
BITMAP
80
C0
60
30
10
ENDCHAR
STARTCHAR 0061
ENCODING 97
SWIDTH 266 0
DWIDTH 8 0
BBX 7 15 0 0
BITMAP
3C
7E
66
66
66
06
1E
76
66
E6
E6
E6
E6
7E
76
ENDCHAR
STARTCHAR 0062
ENCODING 98
SWIDTH 266 0
DWIDTH 8 0
BBX 7 21 1 0
BITMAP
C0
C0
C0
C0
C0
C0
DC
FC
CC
CE
CE
CE
CE
CE
CE
CE
CE
CE
CC
FC
DC
ENDCHAR
STARTCHAR 0063
ENCODING 99
SWIDTH 266 0
DWIDTH 8 0
BBX 6 15 1 0
BITMAP
78
FC
CC
CC
CC
CC
C0
C0
C0
CC
CC
CC
CC
FC
78
ENDCHAR
STARTCHAR 0064
ENCODING 100
SWIDTH 266 0
DWIDTH 8 0
BBX 7 21 1 0
BITMAP
0E
0E
0E
0E
0E
0E
7E
FE
CE
CE
CE
CE
CE
CE
CE
CE
CE
CE
CE
F6
76
ENDCHAR
STARTCHAR 0065
ENCODING 101
SWIDTH 266 0
DWIDTH 8 0
BBX 6 15 1 0
BITMAP
78
FC
CC
CC
CC
CC
FC
FC
C0
C0
CC
CC
CC
FC
78
ENDCHAR
STARTCHAR 0066
ENCODING 102
SWIDTH 200 0
DWIDTH 6 0
BBX 6 21 0 0
BITMAP
1C
3C
30
30
30
30
FC
FC
30
30
30
30
30
30
30
30
30
30
30
30
30
ENDCHAR
STARTCHAR 0067
ENCODING 103
SWIDTH 266 0
DWIDTH 8 0
BBX 7 22 1 -7
BITMAP
76
F6
CE
CE
CE
CE
CE
CE
CE
CE
CE
CE
CE
FE
FE
0E
CE
CE
CE
CC
FC
78
ENDCHAR
STARTCHAR 0068
ENCODING 104
SWIDTH 266 0
DWIDTH 8 0
BBX 7 20 1 0
BITMAP
C0
C0
C0
C0
C0
DC
FC
CE
CE
CE
CE
CE
CE
CE
CE
CE
CE
CE
CE
CE
ENDCHAR
STARTCHAR 0069
ENCODING 105
SWIDTH 100 0
DWIDTH 3 0
BBX 2 19 1 0
BITMAP
C0
C0
C0
00
C0
C0
C0
C0
C0
C0
C0
C0
C0
C0
C0
C0
C0
C0
C0
ENDCHAR
STARTCHAR 006A
ENCODING 106
SWIDTH 133 0
DWIDTH 4 0
BBX 7 27 -4 -7
BITMAP
06
06
06
00
00
06
06
06
06
06
06
06
06
06
06
06
06
06
06
06
06
C6
C6
C6
E6
7E
3C
ENDCHAR
STARTCHAR 006B
ENCODING 107
SWIDTH 266 0
DWIDTH 8 0
BBX 7 21 1 0
BITMAP
C0
C0
C0
C0
C0
C0
CE
CC
DC
DC
D8
F8
F0
F8
F8
D8
DC
CC
CC
CC
CE
ENDCHAR
STARTCHAR 006C
ENCODING 108
SWIDTH 100 0
DWIDTH 3 0
BBX 2 21 1 0
BITMAP
C0
C0
C0
C0
C0
C0
C0
C0
C0
C0
C0
C0
C0
C0
C0
C0
C0
C0
C0
C0
C0
ENDCHAR
STARTCHAR 006D
ENCODING 109
SWIDTH 433 0
DWIDTH 13 0
BBX 11 15 1 0
BITMAP
D9C0
FFE0
CE60
CC60
CC60
CC60
CC60
CC60
CC60
CC60
CC60
CC60
CC60
CC60
CC60
ENDCHAR
STARTCHAR 006E
ENCODING 110
SWIDTH 266 0
DWIDTH 8 0
BBX 7 15 1 0
BITMAP
DC
FC
CE
CE
CE
CE
CE
CE
CE
CE
CE
CE
CE
CE
CE
ENDCHAR
STARTCHAR 006F
ENCODING 111
SWIDTH 266 0
DWIDTH 8 0
BBX 6 15 1 0
BITMAP
78
FC
CC
CC
CC
CC
CC
CC
CC
CC
CC
CC
CC
FC
78
ENDCHAR
STARTCHAR 0070
ENCODING 112
SWIDTH 266 0
DWIDTH 8 0
BBX 7 22 1 -7
BITMAP
FC
FC
CC
CE
CE
CE
CE
CE
CE
CE
CE
CE
CC
FC
DC
C0
C0
C0
C0
C0
C0
C0
ENDCHAR
STARTCHAR 0071
ENCODING 113
SWIDTH 266 0
DWIDTH 8 0
BBX 11 22 1 -7
BITMAP
7600
F600
CE00
CE00
CE00
CE00
CE00
CE00
CE00
CE00
CE00
CE00
CE00
FE00
FE00
0E00
0E60
0E60
0E60
0E60
07E0
03C0
ENDCHAR
STARTCHAR 0072
ENCODING 114
SWIDTH 200 0
DWIDTH 6 0
BBX 5 15 1 0
BITMAP
D8
F8
E0
C0
C0
C0
C0
C0
C0
C0
C0
C0
C0
C0
C0
ENDCHAR
STARTCHAR 0073
ENCODING 115
SWIDTH 266 0
DWIDTH 8 0
BBX 6 15 1 0
BITMAP
78
FC
CC
CC
CC
C0
E0
78
1C
0C
CC
CC
CC
FC
78
ENDCHAR
STARTCHAR 0074
ENCODING 116
SWIDTH 266 0
DWIDTH 8 0
BBX 6 19 1 0
BITMAP
C0
C0
C0
C0
FC
FC
C0
C0
C0
C0
CC
CC
CC
CC
CC
CC
CC
FC
78
ENDCHAR
STARTCHAR 0075
ENCODING 117
SWIDTH 266 0
DWIDTH 8 0
BBX 7 15 1 0
BITMAP
CE
CE
CE
CE
CE
CE
CE
CE
CE
CE
CE
CE
CE
FE
7E
ENDCHAR
STARTCHAR 0076
ENCODING 118
SWIDTH 266 0
DWIDTH 8 0
BBX 7 15 0 0
BITMAP
C6
E6
66
66
66
66
66
6C
6C
3C
3C
3C
3C
3C
38
ENDCHAR
STARTCHAR 0077
ENCODING 119
SWIDTH 366 0
DWIDTH 11 0
BBX 11 15 0 0
BITMAP
CE60
CE60
CE60
6E60
6A60
6A60
6AC0
6BC0
6BC0
7BC0
7BC0
7BC0
79C0
39C0
31C0
ENDCHAR
STARTCHAR 0078
ENCODING 120
SWIDTH 266 0
DWIDTH 8 0
BBX 8 15 0 0
BITMAP
E7
66
66
76
3C
3C
3C
18
3C
3C
3C
66
66
66
E7
ENDCHAR
STARTCHAR 0079
ENCODING 121
SWIDTH 266 0
DWIDTH 8 0
BBX 7 22 1 -7
BITMAP
CE
CE
CE
CE
CE
CE
CE
CE
CE
CE
CE
CE
CE
FE
FE
0E
CE
CE
CE
CC
FC
78
ENDCHAR
STARTCHAR 007A
ENCODING 122
SWIDTH 233 0
DWIDTH 7 0
BBX 6 15 0 0
BITMAP
FC
FC
0C
0C
1C
18
18
38
30
30
70
60
60
FC
FC
ENDCHAR
STARTCHAR 007B
ENCODING 123
SWIDTH 166 0
DWIDTH 5 0
BBX 4 26 1 -4
BITMAP
70
70
60
40
40
40
40
40
40
40
40
40
C0
C0
40
40
40
40
40
40
40
40
40
60
70
70
ENDCHAR
STARTCHAR 007C
ENCODING 124
SWIDTH 133 0
DWIDTH 4 0
BBX 2 27 1 -4
BITMAP
C0
C0
C0
C0
C0
C0
C0
C0
C0
C0
C0
C0
C0
C0
C0
C0
C0
C0
C0
C0
C0
C0
C0
C0
C0
C0
C0
ENDCHAR
STARTCHAR 007D
ENCODING 125
SWIDTH 166 0
DWIDTH 5 0
BBX 5 26 0 -4
BITMAP
E0
E0
20
20
20
20
20
20
20
20
20
30
38
38
30
20
20
20
20
20
20
20
20
20
E0
E0
ENDCHAR
STARTCHAR 007E
ENCODING 126
SWIDTH 266 0
DWIDTH 8 0
BBX 6 2 1 9
BITMAP
FC
FC
ENDCHAR
STARTCHAR 00A0
ENCODING 160
SWIDTH 100 0
DWIDTH 3 0
BBX 0 0 0 0
BITMAP
ENDCHAR
STARTCHAR 00A1
ENCODING 161
SWIDTH 133 0
DWIDTH 4 0
BBX 2 20 1 -5
BITMAP
C0
C0
C0
00
00
C0
C0
C0
C0
C0
C0
C0
C0
C0
C0
C0
C0
C0
C0
C0
ENDCHAR
STARTCHAR 00A2
ENCODING 162
SWIDTH 266 0
DWIDTH 8 0
BBX 6 21 1 0
BITMAP
30
30
30
FC
CC
CC
CC
CC
C0
C0
C0
C0
CC
CC
CC
CC
FC
78
30
30
30
ENDCHAR
STARTCHAR 00A3
ENCODING 163
SWIDTH 266 0
DWIDTH 8 0
BBX 7 20 1 0
BITMAP
78
FC
CC
CE
CE
CE
CE
CE
C0
C0
FE
FE
C0
C0
C0
C0
C0
C0
FE
FE
ENDCHAR
STARTCHAR 00A4
ENCODING 164
SWIDTH 333 0
DWIDTH 10 0
BBX 8 9 1 6
BITMAP
82
FF
66
C2
C2
C2
46
FF
82
ENDCHAR
STARTCHAR 00A5
ENCODING 165
SWIDTH 266 0
DWIDTH 8 0
BBX 8 20 0 0
BITMAP
E3
63
66
66
66
36
3C
3C
1C
1C
18
7F
18
18
18
7F
7F
18
18
18
ENDCHAR
STARTCHAR 00A6
ENCODING 166
SWIDTH 133 0
DWIDTH 4 0
BBX 2 27 1 -4
BITMAP
C0
C0
C0
C0
C0
C0
C0
C0
C0
C0
C0
C0
00
00
00
C0
C0
C0
C0
C0
C0
C0
C0
C0
C0
C0
C0
ENDCHAR
STARTCHAR 00A7
ENCODING 167
SWIDTH 233 0
DWIDTH 7 0
BBX 5 25 1 -5
BITMAP
70
F8
D8
98
98
80
C0
F0
F8
98
98
98
98
98
98
D8
F8
38
18
18
98
98
98
F8
70
ENDCHAR
STARTCHAR 00A8
ENCODING 168
SWIDTH 233 0
DWIDTH 7 0
BBX 5 3 1 16
BITMAP
D8
D8
D8
ENDCHAR
STARTCHAR 00A9
ENCODING 169
SWIDTH 266 0
DWIDTH 8 0
BBX 7 21 1 0
BITMAP
78
C4
82
82
82
82
B2
AA
AA
AA
A2
A2
AA
AA
AA
B2
82
82
82
84
78
ENDCHAR
STARTCHAR 00AA
ENCODING 170
SWIDTH 166 0
DWIDTH 5 0
BBX 4 9 1 11
BITMAP
E0
B0
B0
30
F0
B0
B0
B0
F0
ENDCHAR
STARTCHAR 00AB
ENCODING 171
SWIDTH 233 0
DWIDTH 7 0
BBX 6 7 0 6
BITMAP
34
2C
48
D0
48
2C
34
ENDCHAR
STARTCHAR 00AC
ENCODING 172
SWIDTH 266 0
DWIDTH 8 0
BBX 6 12 1 2
BITMAP
FC
FC
0C
0C
0C
0C
0C
0C
0C
0C
0C
0C
ENDCHAR
STARTCHAR 00AD
ENCODING 173
SWIDTH 133 0
DWIDTH 4 0
BBX 3 2 0 8
BITMAP
E0
E0
ENDCHAR
STARTCHAR 00AE
ENCODING 174
SWIDTH 233 0
DWIDTH 7 0
BBX 5 12 1 9
BITMAP
70
88
88
E8
D8
D8
E8
D8
D8
88
88
70
ENDCHAR
STARTCHAR 00AF
ENCODING 175
SWIDTH 200 0
DWIDTH 6 0
BBX 5 2 1 17
BITMAP
F8
F8
ENDCHAR
STARTCHAR 00B0
ENCODING 176
SWIDTH 133 0
DWIDTH 4 0
BBX 4 4 0 17
BITMAP
60
90
90
60
ENDCHAR
STARTCHAR 00B1
ENCODING 177
SWIDTH 266 0
DWIDTH 8 0
BBX 6 12 1 2
BITMAP
30
30
30
FC
FC
30
30
00
00
00
FC
FC
ENDCHAR
STARTCHAR 00B2
ENCODING 178
SWIDTH 166 0
DWIDTH 5 0
BBX 3 9 1 11
BITMAP
E0
A0
A0
20
40
80
80
80
E0
ENDCHAR
STARTCHAR 00B3
ENCODING 179
SWIDTH 166 0
DWIDTH 5 0
BBX 3 9 1 10
BITMAP
E0
A0
20
40
20
20
A0
A0
E0
ENDCHAR
STARTCHAR 00B4
ENCODING 180
SWIDTH 200 0
DWIDTH 6 0
BBX 4 5 1 15
BITMAP
20
30
60
C0
80
ENDCHAR
STARTCHAR 00B6
ENCODING 182
SWIDTH 266 0
DWIDTH 8 0
BBX 8 23 0 -3
BITMAP
7F
FF
F2
F2
F2
F2
32
32
32
32
32
32
32
32
32
32
32
32
32
32
32
32
32
ENDCHAR
STARTCHAR 00B7
ENCODING 183
SWIDTH 100 0
DWIDTH 3 0
BBX 2 3 1 9
BITMAP
C0
C0
C0
ENDCHAR
STARTCHAR 00B8
ENCODING 184
SWIDTH 100 0
DWIDTH 3 0
BBX 2 6 1 -6
BITMAP
C0
C0
C0
40
80
80
ENDCHAR
STARTCHAR 00B9
ENCODING 185
SWIDTH 100 0
DWIDTH 3 0
BBX 3 9 0 11
BITMAP
E0
60
60
60
60
60
60
60
60
ENDCHAR
STARTCHAR 00BA
ENCODING 186
SWIDTH 166 0
DWIDTH 5 0
BBX 4 9 1 11
BITMAP
E0
B0
B0
B0
B0
B0
B0
B0
E0
ENDCHAR
STARTCHAR 00BB
ENCODING 187
SWIDTH 233 0
DWIDTH 7 0
BBX 6 7 0 6
BITMAP
D0
58
6C
34
6C
58
D0
ENDCHAR
STARTCHAR 00BC
ENCODING 188
SWIDTH 300 0
DWIDTH 9 0
BBX 7 22 1 -1
BITMAP
46
C4
C4
CC
C8
C8
C8
D8
D0
D0
10
30
26
26
2A
6A
4A
4A
4E
C2
82
80
ENDCHAR
STARTCHAR 00BD
ENCODING 189
SWIDTH 300 0
DWIDTH 9 0
BBX 9 22 0 -1
BITMAP
4200
C200
4600
4400
4400
4400
4C00
4800
4800
4800
1800
1700
1580
1580
3580
2100
2300
2600
6400
4400
4780
4000
ENDCHAR
STARTCHAR 00BE
ENCODING 190
SWIDTH 300 0
DWIDTH 9 0
BBX 9 22 0 -1
BITMAP
6100
D300
D200
1200
2200
1600
1400
D400
D400
7C00
0800
0800
0B00
1B00
1300
1500
1500
3500
2780
2100
2100
6000
ENDCHAR
STARTCHAR 00BF
ENCODING 191
SWIDTH 266 0
DWIDTH 8 0
BBX 6 20 1 -5
BITMAP
30
30
30
00
00
30
30
30
30
70
60
C0
C0
C0
CC
CC
CC
CC
FC
F8
ENDCHAR
STARTCHAR 00C0
ENCODING 192
SWIDTH 266 0
DWIDTH 8 0
BBX 8 25 0 0
BITMAP
20
70
18
0C
04
3C
3C
3C
3C
3C
3C
3E
36
36
76
66
66
66
7E
7E
67
63
E3
E3
C3
ENDCHAR
STARTCHAR 00C1
ENCODING 193
SWIDTH 266 0
DWIDTH 8 0
BBX 8 25 0 0
BITMAP
04
0E
18
30
10
3C
3C
3C
3C
3C
3C
3E
36
36
76
66
66
66
7E
7E
67
63
E3
E3
C3
ENDCHAR
STARTCHAR 00C2
ENCODING 194
SWIDTH 266 0
DWIDTH 8 0
BBX 8 25 0 0
BITMAP
18
3C
34
66
22
3C
3C
3C
3C
3C
3C
3E
36
36
76
66
66
66
7E
7E
67
63
E3
E3
C3
ENDCHAR
STARTCHAR 00C3
ENCODING 195
SWIDTH 266 0
DWIDTH 8 0
BBX 8 23 0 0
BITMAP
32
4E
00
3C
3C
3C
3C
3C
3C
3E
36
36
76
66
66
66
7E
7E
67
63
E3
E3
C3
ENDCHAR
STARTCHAR 00C4
ENCODING 196
SWIDTH 266 0
DWIDTH 8 0
BBX 8 25 0 0
BITMAP
66
66
66
00
00
3C
3C
3C
3C
3C
3C
3E
36
36
76
66
66
66
7E
7E
67
63
E3
E3
C3
ENDCHAR
STARTCHAR 00C5
ENCODING 197
SWIDTH 266 0
DWIDTH 8 0
BBX 8 25 0 0
BITMAP
1C
24
24
1C
00
3C
3C
3C
3C
3C
3C
3E
36
36
76
66
66
66
7E
7E
67
63
E3
E3
C3
ENDCHAR
STARTCHAR 00C6
ENCODING 198
SWIDTH 366 0
DWIDTH 11 0
BBX 11 20 0 0
BITMAP
3FE0
3FE0
3600
3600
3600
3600
3600
3600
37C0
77C0
6600
6600
6600
6600
7E00
7E00
6600
E600
E7E0
C7E0
ENDCHAR
STARTCHAR 00C7
ENCODING 199
SWIDTH 266 0
DWIDTH 8 0
BBX 7 26 1 -6
BITMAP
78
FC
CC
CE
CE
CE
CE
C0
C0
C0
C0
C0
CE
CE
CE
CE
CE
CC
FC
78
30
30
30
10
10
30
ENDCHAR
STARTCHAR 00C8
ENCODING 200
SWIDTH 233 0
DWIDTH 7 0
BBX 5 25 1 0
BITMAP
80
C0
60
30
10
F8
F8
C0
C0
C0
C0
C0
C0
F8
F8
C0
C0
C0
C0
C0
C0
C0
C0
F8
F8
ENDCHAR
STARTCHAR 00C9
ENCODING 201
SWIDTH 233 0
DWIDTH 7 0
BBX 5 25 1 0
BITMAP
18
38
30
60
40
F8
F8
C0
C0
C0
C0
C0
C0
F8
F8
C0
C0
C0
C0
C0
C0
C0
C0
F8
F8
ENDCHAR
STARTCHAR 00CA
ENCODING 202
SWIDTH 233 0
DWIDTH 7 0
BBX 6 25 0 0
BITMAP
38
38
6C
C4
44
7C
7C
60
60
60
60
60
60
7C
7C
60
60
60
60
60
60
60
60
7C
7C
ENDCHAR
STARTCHAR 00CB
ENCODING 203
SWIDTH 233 0
DWIDTH 7 0
BBX 5 25 1 0
BITMAP
D8
D8
D8
00
00
F8
F8
C0
C0
C0
C0
C0
C0
F8
F8
C0
C0
C0
C0
C0
C0
C0
C0
F8
F8
ENDCHAR
STARTCHAR 00CC
ENCODING 204
SWIDTH 133 0
DWIDTH 4 0
BBX 5 25 -1 0
BITMAP
40
E0
30
18
10
30
30
30
30
30
30
30
30
30
30
30
30
30
30
30
30
30
30
30
30
ENDCHAR
STARTCHAR 00CD
ENCODING 205
SWIDTH 133 0
DWIDTH 4 0
BBX 5 25 0 0
BITMAP
10
38
60
C0
40
60
60
60
60
60
60
60
60
60
60
60
60
60
60
60
60
60
60
60
60
ENDCHAR
STARTCHAR 00CE
ENCODING 206
SWIDTH 166 0
DWIDTH 5 0
BBX 6 25 -1 0
BITMAP
38
38
6C
C4
44
38
38
38
38
38
38
38
38
38
38
38
38
38
38
38
38
38
38
38
38
ENDCHAR
STARTCHAR 00CF
ENCODING 207
SWIDTH 166 0
DWIDTH 5 0
BBX 5 25 0 0
BITMAP
D8
D8
D8
00
00
60
60
60
60
60
60
60
60
60
60
60
60
60
60
60
60
60
60
60
60
ENDCHAR
STARTCHAR 00D0
ENCODING 208
SWIDTH 300 0
DWIDTH 9 0
BBX 8 20 0 0
BITMAP
7E
7F
67
63
63
63
63
63
FB
FB
63
63
63
63
63
63
63
67
7F
7E
ENDCHAR
STARTCHAR 00D1
ENCODING 209
SWIDTH 300 0
DWIDTH 9 0
BBX 7 23 1 0
BITMAP
64
DC
00
E6
E6
E6
E6
A6
B6
B6
F6
F6
D6
D6
DE
DE
DE
DE
CE
CE
CE
CE
CE
ENDCHAR
STARTCHAR 00D2
ENCODING 210
SWIDTH 266 0
DWIDTH 8 0
BBX 8 25 0 0
BITMAP
20
70
18
08
04
3C
7E
66
E7
E7
E7
E7
E7
E7
E7
E7
E7
E7
E7
E7
E7
E7
67
7E
3C
ENDCHAR
STARTCHAR 00D3
ENCODING 211
SWIDTH 266 0
DWIDTH 8 0
BBX 8 25 0 0
BITMAP
04
0E
0C
38
10
3C
7E
66
E7
E7
E7
E7
E7
E7
E7
E7
E7
E7
E7
E7
E7
E7
67
7E
3C
ENDCHAR
STARTCHAR 00D4
ENCODING 212
SWIDTH 266 0
DWIDTH 8 0
BBX 8 25 0 0
BITMAP
18
3C
34
66
42
3C
7E
66
E7
E7
E7
E7
E7
E7
E7
E7
E7
E7
E7
E7
E7
E7
67
7E
3C
ENDCHAR
STARTCHAR 00D5
ENCODING 213
SWIDTH 266 0
DWIDTH 8 0
BBX 8 23 0 0
BITMAP
7E
00
00
3C
7E
66
E7
E7
E7
E7
E7
E7
E7
E7
E7
E7
E7
E7
E7
E7
67
7E
3C
ENDCHAR
STARTCHAR 00D6
ENCODING 214
SWIDTH 266 0
DWIDTH 8 0
BBX 8 25 0 0
BITMAP
66
66
66
00
00
3C
7E
66
E7
E7
E7
E7
E7
E7
E7
E7
E7
E7
E7
E7
E7
E7
67
7E
3C
ENDCHAR
STARTCHAR 00D7
ENCODING 215
SWIDTH 266 0
DWIDTH 8 0
BBX 6 6 1 7
BITMAP
C8
FC
78
78
FC
C8
ENDCHAR
STARTCHAR 00D8
ENCODING 216
SWIDTH 266 0
DWIDTH 8 0
BBX 8 21 0 0
BITMAP
02
3E
7E
66
E7
E7
E7
EF
EF
EF
EF
FF
F7
F7
F7
F7
E7
E7
67
7E
7C
ENDCHAR
STARTCHAR 00D9
ENCODING 217
SWIDTH 266 0
DWIDTH 8 0
BBX 7 25 1 0
BITMAP
40
E0
30
18
08
CE
CE
CE
CE
CE
CE
CE
CE
CE
CE
CE
CE
CE
CE
CE
CE
CE
CE
FC
78
ENDCHAR
STARTCHAR 00DA
ENCODING 218
SWIDTH 266 0
DWIDTH 8 0
BBX 7 25 1 0
BITMAP
08
1C
30
60
20
CE
CE
CE
CE
CE
CE
CE
CE
CE
CE
CE
CE
CE
CE
CE
CE
CE
CE
FC
78
ENDCHAR
STARTCHAR 00DB
ENCODING 219
SWIDTH 266 0
DWIDTH 8 0
BBX 7 25 1 0
BITMAP
30
78
68
CC
44
CE
CE
CE
CE
CE
CE
CE
CE
CE
CE
CE
CE
CE
CE
CE
CE
CE
CE
FC
78
ENDCHAR
STARTCHAR 00DC
ENCODING 220
SWIDTH 266 0
DWIDTH 8 0
BBX 7 25 1 0
BITMAP
CC
CC
CC
00
00
CE
CE
CE
CE
CE
CE
CE
CE
CE
CE
CE
CE
CE
CE
CE
CE
CE
CE
FC
78
ENDCHAR
STARTCHAR 00DD
ENCODING 221
SWIDTH 266 0
DWIDTH 8 0
BBX 8 25 0 0
BITMAP
04
0E
0C
38
10
E3
63
67
66
66
36
36
3C
3C
1C
1C
18
18
18
18
18
18
18
18
18
ENDCHAR
STARTCHAR 00DE
ENCODING 222
SWIDTH 266 0
DWIDTH 8 0
BBX 7 20 1 0
BITMAP
C0
C0
C0
FC
FC
CE
CE
CE
CE
CE
CE
CE
CE
CE
FC
FC
C0
C0
C0
C0
ENDCHAR
STARTCHAR 00DF
ENCODING 223
SWIDTH 300 0
DWIDTH 9 0
BBX 7 21 1 0
BITMAP
78
FC
CE
CE
CE
CE
CE
CE
CC
DC
DC
C6
C6
C6
C6
C6
C6
C6
C6
FE
FC
ENDCHAR
STARTCHAR 00E0
ENCODING 224
SWIDTH 266 0
DWIDTH 8 0
BBX 7 21 0 0
BITMAP
20
60
30
18
0C
00
3C
7E
66
66
66
06
1E
76
66
E6
E6
E6
E6
7E
76
ENDCHAR
STARTCHAR 00E1
ENCODING 225
SWIDTH 266 0
DWIDTH 8 0
BBX 7 21 0 0
BITMAP
04
06
0C
18
30
00
3C
7E
66
66
66
06
1E
76
66
E6
E6
E6
E6
7E
76
ENDCHAR
STARTCHAR 00E2
ENCODING 226
SWIDTH 266 0
DWIDTH 8 0
BBX 7 20 0 0
BITMAP
18
3C
64
66
00
3C
7E
66
66
66
06
1E
76
66
E6
E6
E6
E6
7E
76
ENDCHAR
STARTCHAR 00E3
ENCODING 227
SWIDTH 266 0
DWIDTH 8 0
BBX 7 18 0 0
BITMAP
72
4E
00
3C
7E
66
66
66
06
1E
76
66
E6
E6
E6
E6
7E
76
ENDCHAR
STARTCHAR 00E4
ENCODING 228
SWIDTH 266 0
DWIDTH 8 0
BBX 7 20 0 0
BITMAP
66
66
66
00
00
3C
7E
66
66
66
06
1E
76
66
E6
E6
E6
E6
7E
76
ENDCHAR
STARTCHAR 00E5
ENCODING 229
SWIDTH 266 0
DWIDTH 8 0
BBX 7 20 0 0
BITMAP
18
24
24
18
00
3C
7E
66
66
66
06
1E
76
66
E6
E6
E6
E6
7E
76
ENDCHAR
STARTCHAR 00E6
ENCODING 230
SWIDTH 433 0
DWIDTH 13 0
BBX 12 15 0 0
BITMAP
3DE0
7FF0
6730
6630
6630
0630
1FF0
67F0
6600
E600
E630
E630
E730
7BF0
79E0
ENDCHAR
STARTCHAR 00E7
ENCODING 231
SWIDTH 266 0
DWIDTH 8 0
BBX 6 21 1 -6
BITMAP
78
FC
CC
CC
CC
CC
C0
C0
C0
CC
CC
CC
CC
FC
78
30
30
30
10
10
30
ENDCHAR
STARTCHAR 00E8
ENCODING 232
SWIDTH 266 0
DWIDTH 8 0
BBX 6 21 1 0
BITMAP
40
C0
60
30
18
00
78
FC
CC
CC
CC
CC
FC
FC
C0
C0
CC
CC
CC
FC
78
ENDCHAR
STARTCHAR 00E9
ENCODING 233
SWIDTH 266 0
DWIDTH 8 0
BBX 6 21 1 0
BITMAP
08
0C
18
30
60
00
78
FC
CC
CC
CC
CC
FC
FC
C0
C0
CC
CC
CC
FC
78
ENDCHAR
STARTCHAR 00EA
ENCODING 234
SWIDTH 266 0
DWIDTH 8 0
BBX 6 20 1 0
BITMAP
30
78
48
C4
00
78
FC
CC
CC
CC
CC
FC
FC
C0
C0
CC
CC
CC
FC
78
ENDCHAR
STARTCHAR 00EB
ENCODING 235
SWIDTH 266 0
DWIDTH 8 0
BBX 6 20 1 0
BITMAP
CC
CC
CC
00
00
78
FC
CC
CC
CC
CC
FC
FC
C0
C0
CC
CC
CC
FC
78
ENDCHAR
STARTCHAR 00EC
ENCODING 236
SWIDTH 133 0
DWIDTH 4 0
BBX 4 21 0 0
BITMAP
80
C0
60
30
10
00
70
70
70
70
70
70
70
70
70
70
70
70
70
70
70
ENDCHAR
STARTCHAR 00ED
ENCODING 237
SWIDTH 133 0
DWIDTH 4 0
BBX 5 21 0 0
BITMAP
10
38
30
60
C0
00
60
60
60
60
60
60
60
60
60
60
60
60
60
60
60
ENDCHAR
STARTCHAR 00EE
ENCODING 238
SWIDTH 200 0
DWIDTH 6 0
BBX 6 20 0 0
BITMAP
30
70
D8
8C
00
30
30
30
30
30
30
30
30
30
30
30
30
30
30
30
ENDCHAR
STARTCHAR 00EF
ENCODING 239
SWIDTH 166 0
DWIDTH 5 0
BBX 5 19 0 0
BITMAP
D8
D8
D8
00
60
60
60
60
60
60
60
60
60
60
60
60
60
60
60
ENDCHAR
STARTCHAR 00F0
ENCODING 240
SWIDTH 266 0
DWIDTH 8 0
BBX 7 21 1 0
BITMAP
70
1E
18
6C
0C
0C
7E
FE
CE
CE
CE
CE
CE
CE
CE
CE
CE
CC
CC
FC
78
ENDCHAR
STARTCHAR 00F1
ENCODING 241
SWIDTH 266 0
DWIDTH 8 0
BBX 7 18 1 0
BITMAP
E4
9C
00
DC
FC
CE
CE
CE
CE
CE
CE
CE
CE
CE
CE
CE
CE
CE
ENDCHAR
STARTCHAR 00F2
ENCODING 242
SWIDTH 266 0
DWIDTH 8 0
BBX 6 21 1 0
BITMAP
40
C0
60
30
18
00
78
FC
CC
CC
CC
CC
CC
CC
CC
CC
CC
CC
CC
FC
78
ENDCHAR
STARTCHAR 00F3
ENCODING 243
SWIDTH 266 0
DWIDTH 8 0
BBX 6 21 1 0
BITMAP
08
0C
18
30
60
00
78
FC
CC
CC
CC
CC
CC
CC
CC
CC
CC
CC
CC
FC
78
ENDCHAR
STARTCHAR 00F4
ENCODING 244
SWIDTH 266 0
DWIDTH 8 0
BBX 6 20 1 0
BITMAP
30
78
48
C4
00
78
FC
CC
CC
CC
CC
CC
CC
CC
CC
CC
CC
CC
FC
78
ENDCHAR
STARTCHAR 00F5
ENCODING 245
SWIDTH 266 0
DWIDTH 8 0
BBX 6 18 1 0
BITMAP
E4
9C
00
78
FC
CC
CC
CC
CC
CC
CC
CC
CC
CC
CC
CC
FC
78
ENDCHAR
STARTCHAR 00F6
ENCODING 246
SWIDTH 266 0
DWIDTH 8 0
BBX 6 20 1 0
BITMAP
CC
CC
CC
00
00
78
FC
CC
CC
CC
CC
CC
CC
CC
CC
CC
CC
CC
FC
78
ENDCHAR
STARTCHAR 00F7
ENCODING 247
SWIDTH 266 0
DWIDTH 8 0
BBX 6 12 1 4
BITMAP
30
30
30
00
00
FC
FC
00
00
30
30
30
ENDCHAR
STARTCHAR 00F8
ENCODING 248
SWIDTH 266 0
DWIDTH 8 0
BBX 6 15 1 0
BITMAP
7C
FC
CC
CC
DC
DC
DC
FC
EC
EC
EC
CC
CC
FC
F8
ENDCHAR
STARTCHAR 00F9
ENCODING 249
SWIDTH 266 0
DWIDTH 8 0
BBX 7 21 1 0
BITMAP
40
E0
60
30
18
00
CE
CE
CE
CE
CE
CE
CE
CE
CE
CE
CE
CE
CE
FE
7E
ENDCHAR
STARTCHAR 00FA
ENCODING 250
SWIDTH 266 0
DWIDTH 8 0
BBX 7 21 1 0
BITMAP
08
0C
18
30
60
00
CE
CE
CE
CE
CE
CE
CE
CE
CE
CE
CE
CE
CE
FE
7E
ENDCHAR
STARTCHAR 00FB
ENCODING 251
SWIDTH 266 0
DWIDTH 8 0
BBX 7 20 1 0
BITMAP
30
78
68
CC
00
CE
CE
CE
CE
CE
CE
CE
CE
CE
CE
CE
CE
CE
FE
7E
ENDCHAR
STARTCHAR 00FC
ENCODING 252
SWIDTH 266 0
DWIDTH 8 0
BBX 7 19 1 0
BITMAP
CC
CC
CC
00
CE
CE
CE
CE
CE
CE
CE
CE
CE
CE
CE
CE
CE
FE
7E
ENDCHAR
STARTCHAR 00FD
ENCODING 253
SWIDTH 266 0
DWIDTH 8 0
BBX 7 28 1 -7
BITMAP
08
0C
18
30
60
00
CE
CE
CE
CE
CE
CE
CE
CE
CE
CE
CE
CE
CE
FE
FE
0E
CE
CE
CE
CC
FC
78
ENDCHAR
STARTCHAR 00FE
ENCODING 254
SWIDTH 266 0
DWIDTH 8 0
BBX 7 28 1 -7
BITMAP
C0
C0
C0
C0
C0
C0
DC
FC
CC
CC
CC
CE
CE
CE
CE
CE
CE
CC
CC
FC
DC
C0
C0
C0
C0
C0
C0
C0
ENDCHAR
STARTCHAR 00FF
ENCODING 255
SWIDTH 266 0
DWIDTH 8 0
BBX 7 27 1 -7
BITMAP
CC
CC
CC
00
00
CE
CE
CE
CE
CE
CE
CE
CE
CE
CE
CE
CE
CE
FE
FE
0E
CE
CE
CE
CC
FC
78
ENDCHAR
STARTCHAR 0100
ENCODING 256
SWIDTH 266 0
DWIDTH 8 0
BBX 8 24 0 0
BITMAP
7E
7E
00
00
3C
3C
3C
3C
3C
3C
3E
36
36
76
66
66
66
7E
7E
67
63
E3
E3
C3
ENDCHAR
STARTCHAR 0101
ENCODING 257
SWIDTH 266 0
DWIDTH 8 0
BBX 7 19 0 0
BITMAP
7E
7E
00
00
3C
7E
66
66
66
06
1E
76
66
E6
E6
E6
E6
7E
76
ENDCHAR
STARTCHAR 0102
ENCODING 258
SWIDTH 266 0
DWIDTH 8 0
BBX 8 25 0 0
BITMAP
62
66
66
3E
1C
3C
3C
3C
3C
3C
3C
3E
36
36
76
66
66
66
7E
7E
67
63
E3
E3
C3
ENDCHAR
STARTCHAR 0103
ENCODING 259
SWIDTH 266 0
DWIDTH 8 0
BBX 7 20 0 0
BITMAP
46
46
66
7C
38
3C
7E
66
66
66
06
1E
76
66
E6
E6
E6
E6
7E
76
ENDCHAR
STARTCHAR 0104
ENCODING 260
SWIDTH 266 0
DWIDTH 8 0
BBX 8 27 0 -7
BITMAP
3C
3C
3C
3C
3C
3C
3E
36
36
76
66
66
66
7E
7E
67
63
E3
E3
C3
02
04
04
0C
0C
07
07
ENDCHAR
STARTCHAR 0105
ENCODING 261
SWIDTH 266 0
DWIDTH 8 0
BBX 7 22 0 -7
BITMAP
3C
7E
66
66
66
06
1E
76
66
E6
E6
E6
E6
7E
76
06
0C
08
08
08
0E
0E
ENDCHAR
STARTCHAR 0106
ENCODING 262
SWIDTH 266 0
DWIDTH 8 0
BBX 7 25 1 0
BITMAP
08
1C
18
70
20
78
FC
CC
CE
CE
CE
CE
C0
C0
C0
C0
C0
CE
CE
CE
CE
CE
CC
FC
78
ENDCHAR
STARTCHAR 0107
ENCODING 263
SWIDTH 266 0
DWIDTH 8 0
BBX 6 21 1 0
BITMAP
08
0C
18
30
60
00
78
FC
CC
CC
CC
CC
C0
C0
C0
CC
CC
CC
CC
FC
78
ENDCHAR
STARTCHAR 010A
ENCODING 266
SWIDTH 266 0
DWIDTH 8 0
BBX 7 25 1 0
BITMAP
30
30
30
00
00
78
FC
CC
CE
CE
CE
CE
C0
C0
C0
C0
C0
CE
CE
CE
CE
CE
CC
FC
78
ENDCHAR
STARTCHAR 010B
ENCODING 267
SWIDTH 266 0
DWIDTH 8 0
BBX 6 20 1 0
BITMAP
30
30
30
00
00
78
FC
CC
CC
CC
CC
C0
C0
C0
CC
CC
CC
CC
FC
78
ENDCHAR
STARTCHAR 010C
ENCODING 268
SWIDTH 266 0
DWIDTH 8 0
BBX 7 25 1 0
BITMAP
84
CC
78
30
00
78
FC
CC
CE
CE
CE
CE
C0
C0
C0
C0
C0
CE
CE
CE
CE
CE
CC
FC
78
ENDCHAR
STARTCHAR 010D
ENCODING 269
SWIDTH 266 0
DWIDTH 8 0
BBX 6 20 1 0
BITMAP
84
CC
78
30
00
78
FC
CC
CC
CC
CC
C0
C0
C0
CC
CC
CC
CC
FC
78
ENDCHAR
STARTCHAR 010E
ENCODING 270
SWIDTH 266 0
DWIDTH 8 0
BBX 7 25 1 0
BITMAP
84
CC
78
30
00
F8
FC
CE
CE
CE
CE
CE
CE
CE
CE
CE
CE
CE
CE
CE
CE
CE
CE
FC
F8
ENDCHAR
STARTCHAR 010F
ENCODING 271
SWIDTH 366 0
DWIDTH 11 0
BBX 9 21 1 0
BITMAP
0F80
0F80
0F80
0E80
0E80
0E80
7F80
FF00
CE00
CE00
CE00
CE00
CE00
CE00
CE00
CE00
CE00
CE00
CE00
F600
7600
ENDCHAR
STARTCHAR 0110
ENCODING 272
SWIDTH 300 0
DWIDTH 9 0
BBX 8 20 0 0
BITMAP
7E
7F
67
63
63
63
63
63
FB
FB
63
63
63
63
63
63
63
67
7F
7E
ENDCHAR
STARTCHAR 0111
ENCODING 273
SWIDTH 266 0
DWIDTH 8 0
BBX 7 21 1 0
BITMAP
0E
0E
3E
3E
0E
0E
7E
FE
CE
CE
CE
CE
CE
CE
CE
CE
CE
CE
CE
F6
76
ENDCHAR
STARTCHAR 0112
ENCODING 274
SWIDTH 233 0
DWIDTH 7 0
BBX 5 24 1 0
BITMAP
F8
F8
00
00
F8
F8
C0
C0
C0
C0
C0
C0
F8
F8
C0
C0
C0
C0
C0
C0
C0
C0
F8
F8
ENDCHAR
STARTCHAR 0113
ENCODING 275
SWIDTH 266 0
DWIDTH 8 0
BBX 6 19 1 0
BITMAP
FC
FC
00
00
78
FC
CC
CC
CC
CC
FC
FC
C0
C0
CC
CC
CC
FC
78
ENDCHAR
STARTCHAR 0114
ENCODING 276
SWIDTH 233 0
DWIDTH 7 0
BBX 7 25 0 0
BITMAP
C6
46
6C
7C
38
7C
7C
60
60
60
60
60
60
7C
7C
60
60
60
60
60
60
60
60
7C
7C
ENDCHAR
STARTCHAR 0115
ENCODING 277
SWIDTH 266 0
DWIDTH 8 0
BBX 6 20 1 0
BITMAP
C4
CC
CC
7C
78
78
FC
CC
CC
CC
CC
FC
FC
C0
C0
CC
CC
CC
FC
78
ENDCHAR
STARTCHAR 0116
ENCODING 278
SWIDTH 233 0
DWIDTH 7 0
BBX 5 25 1 0
BITMAP
70
70
70
00
00
F8
F8
C0
C0
C0
C0
C0
C0
F8
F8
C0
C0
C0
C0
C0
C0
C0
C0
F8
F8
ENDCHAR
STARTCHAR 0117
ENCODING 279
SWIDTH 266 0
DWIDTH 8 0
BBX 6 20 1 0
BITMAP
30
30
30
00
00
78
FC
CC
CC
CC
CC
FC
FC
C0
C0
CC
CC
CC
FC
78
ENDCHAR
STARTCHAR 0118
ENCODING 280
SWIDTH 233 0
DWIDTH 7 0
BBX 5 27 1 -7
BITMAP
F8
F8
C0
C0
C0
C0
C0
C0
C0
F8
F8
C0
C0
C0
C0
C0
C0
C0
F8
F8
10
20
20
20
20
38
38
ENDCHAR
STARTCHAR 0119
ENCODING 281
SWIDTH 266 0
DWIDTH 8 0
BBX 6 22 1 -7
BITMAP
78
FC
CC
CC
CC
CC
CC
FC
FC
C0
C0
CC
CC
CC
FC
30
20
40
40
40
70
70
ENDCHAR
STARTCHAR 011A
ENCODING 282
SWIDTH 233 0
DWIDTH 7 0
BBX 6 25 0 0
BITMAP
44
CC
78
38
00
7C
7C
60
60
60
60
60
60
7C
7C
60
60
60
60
60
60
60
60
7C
7C
ENDCHAR
STARTCHAR 011B
ENCODING 283
SWIDTH 266 0
DWIDTH 8 0
BBX 6 20 1 0
BITMAP
84
CC
78
30
00
78
FC
CC
CC
CC
CC
FC
FC
C0
C0
CC
CC
CC
FC
78
ENDCHAR
STARTCHAR 011E
ENCODING 286
SWIDTH 266 0
DWIDTH 8 0
BBX 7 25 1 0
BITMAP
C4
CC
7C
78
00
78
FC
CC
CE
CE
CE
C0
C0
C0
DE
DE
CE
CE
CE
CE
CE
CE
CE
FE
76
ENDCHAR
STARTCHAR 011F
ENCODING 287
SWIDTH 266 0
DWIDTH 8 0
BBX 7 27 1 -7
BITMAP
C4
CC
CC
7C
38
76
F6
CE
CE
CE
CE
CE
CE
CE
CE
CE
CE
CE
FE
FE
0E
CE
CE
CE
CC
FC
78
ENDCHAR
STARTCHAR 0120
ENCODING 288
SWIDTH 266 0
DWIDTH 8 0
BBX 7 25 1 0
BITMAP
30
30
30
00
00
78
FC
CC
CE
CE
CE
C0
C0
C0
DE
DE
CE
CE
CE
CE
CE
CE
CE
FE
76
ENDCHAR
STARTCHAR 0121
ENCODING 289
SWIDTH 266 0
DWIDTH 8 0
BBX 7 27 1 -7
BITMAP
30
30
30
00
00
76
F6
CE
CE
CE
CE
CE
CE
CE
CE
CE
CE
CE
FE
FE
0E
CE
CE
CE
CC
FC
78
ENDCHAR
STARTCHAR 0122
ENCODING 290
SWIDTH 266 0
DWIDTH 8 0
BBX 7 26 1 -6
BITMAP
78
FC
CC
CE
CE
CE
C0
C0
C0
DE
DE
CE
CE
CE
CE
CE
CE
CE
FE
76
30
30
30
10
10
30
ENDCHAR
STARTCHAR 0123
ENCODING 291
SWIDTH 266 0
DWIDTH 8 0
BBX 7 30 1 -7
BITMAP
10
20
20
30
30
30
00
00
76
F6
CE
CE
CE
CE
CE
CE
CE
CE
CE
CE
CE
FE
FE
0E
CE
CE
CE
CC
FC
78
ENDCHAR
STARTCHAR 0126
ENCODING 294
SWIDTH 266 0
DWIDTH 8 0
BBX 8 20 0 0
BITMAP
63
63
63
FF
FF
63
63
63
7F
7F
63
63
63
63
63
63
63
63
63
63
ENDCHAR
STARTCHAR 0127
ENCODING 295
SWIDTH 266 0
DWIDTH 8 0
BBX 8 20 0 0
BITMAP
60
F8
F8
60
60
6E
7E
67
67
67
67
67
67
67
67
67
67
67
67
67
ENDCHAR
STARTCHAR 0128
ENCODING 296
SWIDTH 166 0
DWIDTH 5 0
BBX 6 23 -1 0
BITMAP
64
9C
00
30
30
30
30
30
30
30
30
30
30
30
30
30
30
30
30
30
30
30
30
ENDCHAR
STARTCHAR 0129
ENCODING 297
SWIDTH 166 0
DWIDTH 5 0
BBX 6 18 0 0
BITMAP
E4
B8
00
30
30
30
30
30
30
30
30
30
30
30
30
30
30
30
ENDCHAR
STARTCHAR 012A
ENCODING 298
SWIDTH 166 0
DWIDTH 5 0
BBX 5 24 0 0
BITMAP
F8
F8
00
00
60
60
60
60
60
60
60
60
60
60
60
60
60
60
60
60
60
60
60
60
ENDCHAR
STARTCHAR 012B
ENCODING 299
SWIDTH 166 0
DWIDTH 5 0
BBX 5 19 0 0
BITMAP
F8
F8
00
00
60
60
60
60
60
60
60
60
60
60
60
60
60
60
60
ENDCHAR
STARTCHAR 012C
ENCODING 300
SWIDTH 166 0
DWIDTH 5 0
BBX 6 25 -1 0
BITMAP
C4
C4
4C
7C
38
30
30
30
30
30
30
30
30
30
30
30
30
30
30
30
30
30
30
30
30
ENDCHAR
STARTCHAR 012D
ENCODING 301
SWIDTH 166 0
DWIDTH 5 0
BBX 6 20 0 0
BITMAP
8C
8C
CC
F8
70
30
30
30
30
30
30
30
30
30
30
30
30
30
30
30
ENDCHAR
STARTCHAR 012E
ENCODING 302
SWIDTH 133 0
DWIDTH 4 0
BBX 4 27 -1 -7
BITMAP
30
30
30
30
30
30
30
30
30
30
30
30
30
30
30
30
30
30
30
30
10
60
40
C0
C0
F0
70
ENDCHAR
STARTCHAR 012F
ENCODING 303
SWIDTH 133 0
DWIDTH 4 0
BBX 4 26 -1 -7
BITMAP
30
30
30
00
30
30
30
30
30
30
30
30
30
30
30
30
30
30
30
20
40
40
C0
C0
F0
70
ENDCHAR
STARTCHAR 0130
ENCODING 304
SWIDTH 100 0
DWIDTH 3 0
BBX 2 25 1 0
BITMAP
C0
C0
C0
00
00
C0
C0
C0
C0
C0
C0
C0
C0
C0
C0
C0
C0
C0
C0
C0
C0
C0
C0
C0
C0
ENDCHAR
STARTCHAR 0131
ENCODING 305
SWIDTH 100 0
DWIDTH 3 0
BBX 2 15 1 0
BITMAP
C0
C0
C0
C0
C0
C0
C0
C0
C0
C0
C0
C0
C0
C0
C0
ENDCHAR
STARTCHAR 0132
ENCODING 306
SWIDTH 366 0
DWIDTH 11 0
BBX 10 20 1 0
BITMAP
C1C0
C1C0
C1C0
C1C0
C1C0
C1C0
C1C0
C1C0
C1C0
C1C0
C1C0
C1C0
C1C0
D9C0
D9C0
D9C0
D9C0
D980
DF80
CF00
ENDCHAR
STARTCHAR 0133
ENCODING 307
SWIDTH 266 0
DWIDTH 8 0
BBX 6 27 1 -7
BITMAP
CC
CC
CC
00
00
CC
CC
CC
CC
CC
CC
CC
CC
CC
CC
CC
CC
CC
CC
CC
0C
0C
CC
CC
CC
FC
78
ENDCHAR
STARTCHAR 0136
ENCODING 310
SWIDTH 266 0
DWIDTH 8 0
BBX 7 26 1 -6
BITMAP
C6
CE
CC
CC
DC
D8
D8
F8
F8
F8
F8
F8
D8
DC
CC
CC
CC
CE
CE
C6
30
30
30
10
10
30
ENDCHAR
STARTCHAR 0137
ENCODING 311
SWIDTH 266 0
DWIDTH 8 0
BBX 7 27 1 -6
BITMAP
C0
C0
C0
C0
C0
C0
CE
CC
DC
DC
D8
F8
F0
F8
F8
D8
DC
CC
CC
CC
CE
30
30
30
10
10
20
ENDCHAR
STARTCHAR 0139
ENCODING 313
SWIDTH 233 0
DWIDTH 7 0
BBX 6 25 0 0
BITMAP
10
38
30
E0
40
60
60
60
60
60
60
60
60
60
60
60
60
60
60
60
60
60
60
7C
7C
ENDCHAR
STARTCHAR 013A
ENCODING 314
SWIDTH 133 0
DWIDTH 4 0
BBX 5 26 0 0
BITMAP
10
38
70
60
C0
60
60
60
60
60
60
60
60
60
60
60
60
60
60
60
60
60
60
60
60
60
ENDCHAR
STARTCHAR 013B
ENCODING 315
SWIDTH 233 0
DWIDTH 7 0
BBX 5 26 1 -6
BITMAP
C0
C0
C0
C0
C0
C0
C0
C0
C0
C0
C0
C0
C0
C0
C0
C0
C0
C0
F8
F8
60
60
60
20
20
60
ENDCHAR
STARTCHAR 013C
ENCODING 316
SWIDTH 100 0
DWIDTH 3 0
BBX 2 27 1 -6
BITMAP
C0
C0
C0
C0
C0
C0
C0
C0
C0
C0
C0
C0
C0
C0
C0
C0
C0
C0
C0
C0
C0
C0
C0
C0
40
40
80
ENDCHAR
STARTCHAR 013D
ENCODING 317
SWIDTH 233 0
DWIDTH 7 0
BBX 5 21 1 0
BITMAP
18
D8
D8
C8
C8
C8
D8
D0
C0
C0
C0
C0
C0
C0
C0
C0
C0
C0
C0
F8
F8
ENDCHAR
STARTCHAR 013E
ENCODING 318
SWIDTH 200 0
DWIDTH 6 0
BBX 5 21 1 0
BITMAP
F8
F8
F8
D8
D8
D8
F0
E0
C0
C0
C0
C0
C0
C0
C0
C0
C0
C0
C0
C0
C0
ENDCHAR
STARTCHAR 0141
ENCODING 321
SWIDTH 233 0
DWIDTH 7 0
BBX 5 20 1 0
BITMAP
C0
C0
C0
C0
C8
F8
F0
C0
C0
C0
C0
C0
C0
C0
C0
C0
C0
C0
F8
F8
ENDCHAR
STARTCHAR 0142
ENCODING 322
SWIDTH 166 0
DWIDTH 5 0
BBX 5 21 0 0
BITMAP
60
60
60
60
60
60
60
60
60
78
78
E0
E0
60
60
60
60
60
60
60
60
ENDCHAR
STARTCHAR 0143
ENCODING 323
SWIDTH 300 0
DWIDTH 9 0
BBX 7 25 1 0
BITMAP
0C
0C
18
30
20
E6
E6
E6
E6
A6
B6
B6
F6
F6
D6
D6
DE
DE
DE
DE
CE
CE
CE
CE
CE
ENDCHAR
STARTCHAR 0144
ENCODING 324
SWIDTH 266 0
DWIDTH 8 0
BBX 7 21 1 0
BITMAP
08
0C
18
30
60
00
DC
FC
CE
CE
CE
CE
CE
CE
CE
CE
CE
CE
CE
CE
CE
ENDCHAR
STARTCHAR 0145
ENCODING 325
SWIDTH 300 0
DWIDTH 9 0
BBX 7 26 1 -6
BITMAP
E6
E6
E6
E6
A6
B6
B6
F6
F6
D6
D6
DE
DE
DE
DE
CE
CE
CE
CE
CE
30
30
30
10
10
30
ENDCHAR
STARTCHAR 0146
ENCODING 326
SWIDTH 266 0
DWIDTH 8 0
BBX 7 21 1 -6
BITMAP
DC
FC
CE
CE
CE
CE
CE
CE
CE
CE
CE
CE
CE
CE
CE
30
30
30
10
10
30
ENDCHAR
STARTCHAR 0147
ENCODING 327
SWIDTH 300 0
DWIDTH 9 0
BBX 7 25 1 0
BITMAP
C4
4C
68
38
00
E6
E6
E6
E6
A6
B6
B6
F6
F6
D6
D6
DE
DE
DE
DE
CE
CE
CE
CE
CE
ENDCHAR
STARTCHAR 0148
ENCODING 328
SWIDTH 266 0
DWIDTH 8 0
BBX 7 20 1 0
BITMAP
84
CC
78
30
00
DC
FC
CE
CE
CE
CE
CE
CE
CE
CE
CE
CE
CE
CE
CE
ENDCHAR
STARTCHAR 014A
ENCODING 330
SWIDTH 300 0
DWIDTH 9 0
BBX 7 27 1 -7
BITMAP
E6
E6
E6
E6
A6
B6
B6
F6
F6
D6
D6
DE
DE
DE
DE
CE
CE
CE
CE
CE
06
06
06
06
0E
1E
1C
ENDCHAR
STARTCHAR 014B
ENCODING 331
SWIDTH 266 0
DWIDTH 8 0
BBX 7 22 1 -7
BITMAP
DC
FC
CE
CE
CE
CE
CE
CE
CE
CE
CE
CE
CE
CE
CE
0E
0E
0E
0E
0E
1C
18
ENDCHAR
STARTCHAR 014C
ENCODING 332
SWIDTH 266 0
DWIDTH 8 0
BBX 8 24 0 0
BITMAP
7E
7E
00
00
3C
7E
66
E7
E7
E7
E7
E7
E7
E7
E7
E7
E7
E7
E7
E7
E7
67
7E
3C
ENDCHAR
STARTCHAR 014D
ENCODING 333
SWIDTH 266 0
DWIDTH 8 0
BBX 6 19 1 0
BITMAP
FC
FC
00
00
78
FC
CC
CC
CC
CC
CC
CC
CC
CC
CC
CC
CC
FC
78
ENDCHAR
STARTCHAR 014E
ENCODING 334
SWIDTH 266 0
DWIDTH 8 0
BBX 8 25 0 0
BITMAP
66
66
3E
3C
00
3C
7E
66
E7
E7
E7
E7
E7
E7
E7
E7
E7
E7
E7
E7
E7
E7
67
7E
3C
ENDCHAR
STARTCHAR 014F
ENCODING 335
SWIDTH 266 0
DWIDTH 8 0
BBX 6 20 1 0
BITMAP
C4
CC
CC
7C
78
78
FC
CC
CC
CC
CC
CC
CC
CC
CC
CC
CC
CC
FC
78
ENDCHAR
STARTCHAR 0150
ENCODING 336
SWIDTH 266 0
DWIDTH 8 0
BBX 8 25 0 0
BITMAP
1B
16
36
24
68
3C
7E
66
E7
E7
E7
E7
E7
E7
E7
E7
E7
E7
E7
E7
E7
E7
67
7E
3C
ENDCHAR
STARTCHAR 0151
ENCODING 337
SWIDTH 266 0
DWIDTH 8 0
BBX 7 21 1 0
BITMAP
24
36
6C
68
D8
00
78
FC
CC
CC
CC
CC
CC
CC
CC
CC
CC
CC
CC
FC
78
ENDCHAR
STARTCHAR 0152
ENCODING 338
SWIDTH 366 0
DWIDTH 11 0
BBX 11 20 0 0
BITMAP
3FC0
7FC0
6600
E700
E700
E700
E700
E700
E7C0
E7C0
E700
E700
E700
E700
E700
E700
E700
6600
7FE0
3FE0
ENDCHAR
STARTCHAR 0153
ENCODING 339
SWIDTH 433 0
DWIDTH 13 0
BBX 11 15 1 0
BITMAP
7BC0
FFE0
CE60
CC60
CC60
CC60
CFE0
CFE0
CC00
CC00
CC60
CC60
CC60
FFE0
7BC0
ENDCHAR
STARTCHAR 0154
ENCODING 340
SWIDTH 266 0
DWIDTH 8 0
BBX 7 25 1 0
BITMAP
08
1C
30
60
40
FC
FC
CE
CE
CE
CE
CE
CE
CE
FC
FC
CE
CE
CE
CE
CE
CE
CE
CE
CE
ENDCHAR
STARTCHAR 0155
ENCODING 341
SWIDTH 200 0
DWIDTH 6 0
BBX 5 21 1 0
BITMAP
10
18
30
60
C0
00
D8
F8
E0
C0
C0
C0
C0
C0
C0
C0
C0
C0
C0
C0
C0
ENDCHAR
STARTCHAR 0156
ENCODING 342
SWIDTH 266 0
DWIDTH 8 0
BBX 7 26 1 -6
BITMAP
FC
FC
CE
CE
CE
CE
CE
CE
CE
FC
FC
CE
CE
CE
CE
CE
CE
CE
CE
CE
30
30
30
10
10
30
ENDCHAR
STARTCHAR 0157
ENCODING 343
SWIDTH 200 0
DWIDTH 6 0
BBX 5 21 1 -6
BITMAP
D8
F8
E0
C0
C0
C0
C0
C0
C0
C0
C0
C0
C0
C0
C0
C0
C0
C0
40
40
80
ENDCHAR
STARTCHAR 0158
ENCODING 344
SWIDTH 266 0
DWIDTH 8 0
BBX 7 25 1 0
BITMAP
84
CC
78
30
00
FC
FC
CE
CE
CE
CE
CE
CE
CE
FC
FC
CE
CE
CE
CE
CE
CE
CE
CE
CE
ENDCHAR
STARTCHAR 0159
ENCODING 345
SWIDTH 200 0
DWIDTH 6 0
BBX 6 20 0 0
BITMAP
44
CC
78
38
00
6C
7C
70
60
60
60
60
60
60
60
60
60
60
60
60
ENDCHAR
STARTCHAR 015A
ENCODING 346
SWIDTH 266 0
DWIDTH 8 0
BBX 8 25 0 0
BITMAP
04
0E
0C
18
30
3C
7E
67
63
63
63
60
70
78
3C
0E
07
07
03
E3
E3
E3
67
7E
3E
ENDCHAR
STARTCHAR 015B
ENCODING 347
SWIDTH 266 0
DWIDTH 8 0
BBX 6 21 1 0
BITMAP
08
0C
18
30
60
00
78
FC
CC
CC
CC
C0
E0
78
1C
0C
CC
CC
CC
FC
78
ENDCHAR
STARTCHAR 015E
ENCODING 350
SWIDTH 266 0
DWIDTH 8 0
BBX 8 26 0 -6
BITMAP
3C
7E
67
63
63
63
60
70
78
3C
0E
07
07
03
E3
E3
E3
67
7E
3E
18
18
18
08
08
18
ENDCHAR
STARTCHAR 015F
ENCODING 351
SWIDTH 266 0
DWIDTH 8 0
BBX 6 21 1 -6
BITMAP
78
FC
CC
CC
CC
C0
E0
78
1C
0C
CC
CC
CC
FC
78
30
30
30
10
10
30
ENDCHAR
STARTCHAR 0160
ENCODING 352
SWIDTH 266 0
DWIDTH 8 0
BBX 8 25 0 0
BITMAP
22
66
3C
1C
00
3C
7E
67
63
63
63
60
70
78
3C
0E
07
07
03
E3
E3
E3
67
7E
3E
ENDCHAR
STARTCHAR 0161
ENCODING 353
SWIDTH 266 0
DWIDTH 8 0
BBX 6 20 1 0
BITMAP
84
CC
78
30
00
78
FC
CC
CC
CC
C0
E0
78
1C
0C
CC
CC
CC
FC
78
ENDCHAR
STARTCHAR 0162
ENCODING 354
SWIDTH 266 0
DWIDTH 8 0
BBX 8 26 0 -6
BITMAP
FF
FF
18
18
18
18
18
18
18
18
18
18
18
18
18
18
18
18
18
18
18
18
18
08
08
10
ENDCHAR
STARTCHAR 0163
ENCODING 355
SWIDTH 266 0
DWIDTH 8 0
BBX 6 25 1 -6
BITMAP
C0
C0
C0
C0
FC
FC
C0
C0
C0
C0
CC
CC
CC
CC
CC
CC
CC
FC
78
30
30
30
10
10
20
ENDCHAR
STARTCHAR 0164
ENCODING 356
SWIDTH 266 0
DWIDTH 8 0
BBX 8 25 0 0
BITMAP
42
66
3C
18
00
FF
FF
18
18
18
18
18
18
18
18
18
18
18
18
18
18
18
18
18
18
ENDCHAR
STARTCHAR 0165
ENCODING 357
SWIDTH 333 0
DWIDTH 10 0
BBX 9 21 1 0
BITMAP
0380
0380
C380
C180
C180
C180
FD00
FE00
C000
C000
C000
C000
CC00
CC00
CC00
CC00
CC00
CC00
CC00
FC00
7800
ENDCHAR
STARTCHAR 0166
ENCODING 358
SWIDTH 266 0
DWIDTH 8 0
BBX 8 20 0 0
BITMAP
FF
FF
18
18
18
18
18
18
7E
7E
18
18
18
18
18
18
18
18
18
18
ENDCHAR
STARTCHAR 0167
ENCODING 359
SWIDTH 266 0
DWIDTH 8 0
BBX 6 19 1 0
BITMAP
C0
C0
C0
C0
FC
FC
C0
C0
FC
C0
C0
CC
CC
CC
CC
CC
CC
FC
78
ENDCHAR
STARTCHAR 0168
ENCODING 360
SWIDTH 266 0
DWIDTH 8 0
BBX 7 23 1 0
BITMAP
FC
00
00
CE
CE
CE
CE
CE
CE
CE
CE
CE
CE
CE
CE
CE
CE
CE
CE
CE
CE
FC
78
ENDCHAR
STARTCHAR 0169
ENCODING 361
SWIDTH 266 0
DWIDTH 8 0
BBX 7 18 1 0
BITMAP
E4
9C
00
CE
CE
CE
CE
CE
CE
CE
CE
CE
CE
CE
CE
CE
FE
7E
ENDCHAR
STARTCHAR 016A
ENCODING 362
SWIDTH 266 0
DWIDTH 8 0
BBX 7 24 1 0
BITMAP
FC
FC
00
00
CE
CE
CE
CE
CE
CE
CE
CE
CE
CE
CE
CE
CE
CE
CE
CE
CE
CE
FC
78
ENDCHAR
STARTCHAR 016B
ENCODING 363
SWIDTH 266 0
DWIDTH 8 0
BBX 7 19 1 0
BITMAP
FC
FC
00
00
CE
CE
CE
CE
CE
CE
CE
CE
CE
CE
CE
CE
CE
FE
7E
ENDCHAR
STARTCHAR 016C
ENCODING 364
SWIDTH 266 0
DWIDTH 8 0
BBX 7 25 1 0
BITMAP
C4
CC
7C
78
00
CE
CE
CE
CE
CE
CE
CE
CE
CE
CE
CE
CE
CE
CE
CE
CE
CE
CE
FC
78
ENDCHAR
STARTCHAR 016D
ENCODING 365
SWIDTH 266 0
DWIDTH 8 0
BBX 7 20 1 0
BITMAP
C4
CC
CC
7C
78
CE
CE
CE
CE
CE
CE
CE
CE
CE
CE
CE
CE
CE
FE
7E
ENDCHAR
STARTCHAR 016E
ENCODING 366
SWIDTH 266 0
DWIDTH 8 0
BBX 7 25 1 0
BITMAP
38
48
48
38
00
CE
CE
CE
CE
CE
CE
CE
CE
CE
CE
CE
CE
CE
CE
CE
CE
CE
CE
FC
78
ENDCHAR
STARTCHAR 016F
ENCODING 367
SWIDTH 266 0
DWIDTH 8 0
BBX 7 20 1 0
BITMAP
38
48
48
38
00
CE
CE
CE
CE
CE
CE
CE
CE
CE
CE
CE
CE
CE
FE
7E
ENDCHAR
STARTCHAR 0170
ENCODING 368
SWIDTH 266 0
DWIDTH 8 0
BBX 7 25 1 0
BITMAP
36
2C
6C
48
58
CE
CE
CE
CE
CE
CE
CE
CE
CE
CE
CE
CE
CE
CE
CE
CE
CE
CE
FC
78
ENDCHAR
STARTCHAR 0171
ENCODING 369
SWIDTH 266 0
DWIDTH 8 0
BBX 7 21 1 0
BITMAP
24
36
2C
68
58
00
CE
CE
CE
CE
CE
CE
CE
CE
CE
CE
CE
CE
CE
FE
7E
ENDCHAR
STARTCHAR 0172
ENCODING 370
SWIDTH 266 0
DWIDTH 8 0
BBX 7 27 1 -7
BITMAP
CE
CE
CE
CE
CE
CE
CE
CE
CE
CE
CE
CE
CE
CE
CE
CE
CE
CE
FC
FC
10
60
40
40
40
70
70
ENDCHAR
STARTCHAR 0173
ENCODING 371
SWIDTH 266 0
DWIDTH 8 0
BBX 7 22 1 -7
BITMAP
CE
CE
CE
CE
CE
CE
CE
CE
CE
CE
CE
CE
CE
FE
FE
04
18
10
10
10
1E
1E
ENDCHAR
STARTCHAR 0174
ENCODING 372
SWIDTH 400 0
DWIDTH 12 0
BBX 12 25 0 0
BITMAP
0600
0F00
0D00
1980
0880
C630
E730
E730
E730
6F30
6F30
6F70
6F60
6D60
6D60
6D60
6D60
69E0
69E0
69E0
69E0
39E0
39E0
39E0
39C0
ENDCHAR
STARTCHAR 0175
ENCODING 373
SWIDTH 366 0
DWIDTH 11 0
BBX 11 20 0 0
BITMAP
0600
0E00
1B00
1180
0000
CE60
CE60
CE60
6E60
6A60
6A60
6AC0
6BC0
6BC0
7BC0
7BC0
7BC0
79C0
39C0
31C0
ENDCHAR
STARTCHAR 0176
ENCODING 374
SWIDTH 266 0
DWIDTH 8 0
BBX 8 25 0 0
BITMAP
18
3C
36
62
22
E3
63
67
66
66
36
36
3C
3C
1C
1C
18
18
18
18
18
18
18
18
18
ENDCHAR
STARTCHAR 0177
ENCODING 375
SWIDTH 266 0
DWIDTH 8 0
BBX 7 27 1 -7
BITMAP
30
78
4C
C4
00
CE
CE
CE
CE
CE
CE
CE
CE
CE
CE
CE
CE
CE
FE
FE
0E
CE
CE
CE
CC
FC
78
ENDCHAR
STARTCHAR 0178
ENCODING 376
SWIDTH 266 0
DWIDTH 8 0
BBX 8 25 0 0
BITMAP
66
66
66
00
00
E3
63
67
66
66
36
36
3C
3C
1C
1C
18
18
18
18
18
18
18
18
18
ENDCHAR
STARTCHAR 0179
ENCODING 377
SWIDTH 266 0
DWIDTH 8 0
BBX 7 25 0 0
BITMAP
04
0E
18
30
20
FE
FE
06
0E
0C
0C
0C
1C
18
18
38
30
30
30
70
60
60
60
FE
FE
ENDCHAR
STARTCHAR 017A
ENCODING 378
SWIDTH 233 0
DWIDTH 7 0
BBX 6 21 0 0
BITMAP
08
0C
18
30
20
00
FC
FC
0C
0C
1C
18
18
38
30
30
70
60
60
FC
FC
ENDCHAR
STARTCHAR 017B
ENCODING 379
SWIDTH 266 0
DWIDTH 8 0
BBX 7 25 0 0
BITMAP
18
18
18
00
00
FE
FE
06
0E
0C
0C
0C
1C
18
18
38
30
30
30
70
60
60
60
FE
FE
ENDCHAR
STARTCHAR 017C
ENCODING 380
SWIDTH 233 0
DWIDTH 7 0
BBX 6 19 0 0
BITMAP
30
30
30
00
FC
FC
0C
0C
1C
18
18
38
30
30
70
60
60
FC
FC
ENDCHAR
STARTCHAR 017D
ENCODING 381
SWIDTH 266 0
DWIDTH 8 0
BBX 7 25 0 0
BITMAP
44
66
3C
38
00
FE
FE
06
0E
0C
0C
0C
1C
18
18
38
30
30
30
70
60
60
60
FE
FE
ENDCHAR
STARTCHAR 017E
ENCODING 382
SWIDTH 233 0
DWIDTH 7 0
BBX 6 20 0 0
BITMAP
C4
4C
68
38
00
FC
FC
0C
0C
1C
18
18
38
30
30
70
60
60
FC
FC
ENDCHAR
STARTCHAR 018E
ENCODING 398
SWIDTH 233 0
DWIDTH 7 0
BBX 6 20 0 0
BITMAP
FC
FC
0C
0C
0C
0C
0C
0C
0C
7C
7C
0C
0C
0C
0C
0C
0C
0C
7C
7C
ENDCHAR
STARTCHAR 018F
ENCODING 399
SWIDTH 266 0
DWIDTH 8 0
BBX 6 15 1 0
BITMAP
78
FC
CC
CC
CC
0C
0C
FC
FC
CC
CC
CC
CC
FC
78
ENDCHAR
STARTCHAR 0192
ENCODING 402
SWIDTH 233 0
DWIDTH 7 0
BBX 7 26 0 -5
BITMAP
0E
1E
18
18
18
18
18
7E
7E
18
18
38
38
30
30
30
30
30
30
30
30
30
70
70
E0
E0
ENDCHAR
STARTCHAR 0194
ENCODING 404
SWIDTH 300 0
DWIDTH 9 0
BBX 9 27 0 -7
BITMAP
E380
6300
6300
6300
7300
3700
3600
3600
3600
3600
1E00
1C00
1C00
1C00
0C00
1C00
1C00
1C00
1C00
1E00
3600
3600
3600
3600
3600
3E00
1C00
ENDCHAR
STARTCHAR 019D
ENCODING 413
SWIDTH 300 0
DWIDTH 9 0
BBX 9 27 -1 -7
BITMAP
3980
3980
3980
3980
2980
2D80
2D80
3D80
3D80
3580
3580
3780
3780
3780
3780
3380
3380
3380
3380
3380
3000
3000
3000
3000
6000
E000
C000
ENDCHAR
STARTCHAR 01A0
ENCODING 416
SWIDTH 300 0
DWIDTH 9 0
BBX 9 23 0 0
BITMAP
0080
0080
0080
3F80
7E00
6700
E700
E700
E700
E700
E700
E700
E700
E700
E700
E700
E700
E700
E700
E700
6700
7E00
3C00
ENDCHAR
STARTCHAR 01A1
ENCODING 417
SWIDTH 300 0
DWIDTH 9 0
BBX 8 17 1 0
BITMAP
01
01
7F
FF
CC
CC
CC
CC
CC
CC
CC
CC
CC
CC
CC
FC
78
ENDCHAR
STARTCHAR 01AF
ENCODING 431
SWIDTH 333 0
DWIDTH 10 0
BBX 9 23 1 0
BITMAP
0080
0080
0080
CF80
CE00
CE00
CE00
CE00
CE00
CE00
CE00
CE00
CE00
CE00
CE00
CE00
CE00
CE00
CE00
CE00
CE00
FC00
7800
ENDCHAR
STARTCHAR 01B0
ENCODING 432
SWIDTH 333 0
DWIDTH 10 0
BBX 9 17 1 0
BITMAP
0180
0080
CF80
CF00
CE00
CE00
CE00
CE00
CE00
CE00
CE00
CE00
CE00
CE00
CE00
FE00
7E00
ENDCHAR
STARTCHAR 01DD
ENCODING 477
SWIDTH 266 0
DWIDTH 8 0
BBX 6 15 1 0
BITMAP
78
FC
CC
CC
CC
0C
0C
FC
FC
CC
CC
CC
CC
FC
78
ENDCHAR
STARTCHAR 01E6
ENCODING 486
SWIDTH 266 0
DWIDTH 8 0
BBX 7 25 1 0
BITMAP
44
CC
78
38
00
78
FC
CC
CE
CE
CE
C0
C0
C0
DE
DE
CE
CE
CE
CE
CE
CE
CE
FE
76
ENDCHAR
STARTCHAR 01E7
ENCODING 487
SWIDTH 266 0
DWIDTH 8 0
BBX 7 27 1 -7
BITMAP
84
CC
78
30
00
76
F6
CE
CE
CE
CE
CE
CE
CE
CE
CE
CE
CE
FE
FE
0E
CE
CE
CE
CC
FC
78
ENDCHAR
STARTCHAR 01F4
ENCODING 500
SWIDTH 266 0
DWIDTH 8 0
BBX 7 25 1 0
BITMAP
08
1C
18
30
60
78
FC
CC
CE
CE
CE
C0
C0
C0
DE
DE
CE
CE
CE
CE
CE
CE
CE
FE
76
ENDCHAR
STARTCHAR 01F5
ENCODING 501
SWIDTH 266 0
DWIDTH 8 0
BBX 7 28 1 -7
BITMAP
08
0C
18
30
60
00
76
F6
CE
CE
CE
CE
CE
CE
CE
CE
CE
CE
CE
FE
FE
0E
CE
CE
CE
CC
FC
78
ENDCHAR
STARTCHAR 01F8
ENCODING 504
SWIDTH 300 0
DWIDTH 9 0
BBX 7 25 1 0
BITMAP
60
60
30
18
08
E6
E6
E6
E6
A6
B6
B6
F6
F6
D6
D6
DE
DE
DE
DE
CE
CE
CE
CE
CE
ENDCHAR
STARTCHAR 01F9
ENCODING 505
SWIDTH 266 0
DWIDTH 8 0
BBX 7 21 1 0
BITMAP
40
E0
60
30
18
00
DC
FC
CE
CE
CE
CE
CE
CE
CE
CE
CE
CE
CE
CE
CE
ENDCHAR
STARTCHAR 0218
ENCODING 536
SWIDTH 266 0
DWIDTH 8 0
BBX 8 26 0 -6
BITMAP
3C
7E
67
63
63
63
60
70
78
3C
0E
07
07
03
E3
E3
E3
67
7E
3E
18
18
18
08
08
18
ENDCHAR
STARTCHAR 0219
ENCODING 537
SWIDTH 266 0
DWIDTH 8 0
BBX 6 21 1 -6
BITMAP
78
FC
CC
CC
CC
C0
E0
78
1C
0C
CC
CC
CC
FC
78
30
30
30
10
10
30
ENDCHAR
STARTCHAR 021A
ENCODING 538
SWIDTH 266 0
DWIDTH 8 0
BBX 8 26 0 -6
BITMAP
FF
FF
18
18
18
18
18
18
18
18
18
18
18
18
18
18
18
18
18
18
18
18
18
08
08
10
ENDCHAR
STARTCHAR 021B
ENCODING 539
SWIDTH 266 0
DWIDTH 8 0
BBX 6 25 1 -6
BITMAP
C0
C0
C0
C0
FC
FC
C0
C0
C0
C0
CC
CC
CC
CC
CC
CC
CC
FC
78
30
30
30
10
10
20
ENDCHAR
STARTCHAR 0237
ENCODING 567
SWIDTH 133 0
DWIDTH 4 0
BBX 7 22 -4 -7
BITMAP
06
06
06
06
06
06
06
06
06
06
06
06
06
06
06
06
C6
C6
C6
E6
7E
3C
ENDCHAR
STARTCHAR 0241
ENCODING 577
SWIDTH 266 0
DWIDTH 8 0
BBX 7 20 0 0
BITMAP
3C
7E
E6
C6
C6
C6
06
06
0E
0C
18
18
18
18
18
18
18
18
18
18
ENDCHAR
STARTCHAR 0242
ENCODING 578
SWIDTH 266 0
DWIDTH 8 0
BBX 6 15 1 0
BITMAP
78
FC
CC
CC
CC
CC
0C
0C
1C
18
30
30
30
30
30
ENDCHAR
STARTCHAR 024C
ENCODING 588
SWIDTH 300 0
DWIDTH 9 0
BBX 8 20 0 0
BITMAP
7E
7F
73
73
73
73
73
73
73
FF
FF
73
73
73
73
73
73
73
73
73
ENDCHAR
STARTCHAR 024D
ENCODING 589
SWIDTH 233 0
DWIDTH 7 0
BBX 6 15 0 0
BITMAP
6C
7C
70
60
60
60
60
F8
F8
60
60
60
60
60
60
ENDCHAR
STARTCHAR 0263
ENCODING 611
SWIDTH 266 0
DWIDTH 8 0
BBX 8 22 0 -7
BITMAP
E7
66
66
66
66
2C
3C
3C
3C
3C
18
18
18
18
38
3C
3C
2C
24
24
3C
3C
ENDCHAR
STARTCHAR 0272
ENCODING 626
SWIDTH 266 0
DWIDTH 8 0
BBX 9 22 -1 -7
BITMAP
3700
3F00
3380
3380
3380
3380
3380
3380
3380
3380
3380
3380
3380
3380
3380
3000
3000
3000
3000
7000
E000
E000
ENDCHAR
STARTCHAR 02C6
ENCODING 710
SWIDTH 233 0
DWIDTH 7 0
BBX 6 4 1 16
BITMAP
70
78
C8
8C
ENDCHAR
STARTCHAR 02C7
ENCODING 711
SWIDTH 233 0
DWIDTH 7 0
BBX 6 4 1 16
BITMAP
8C
C8
78
70
ENDCHAR
STARTCHAR 02C9
ENCODING 713
SWIDTH 0 0
DWIDTH 0 0
BBX 6 2 -7 16
BITMAP
FC
FC
ENDCHAR
STARTCHAR 02D8
ENCODING 728
SWIDTH 233 0
DWIDTH 7 0
BBX 6 4 1 16
BITMAP
8C
CC
F8
70
ENDCHAR
STARTCHAR 02D9
ENCODING 729
SWIDTH 100 0
DWIDTH 3 0
BBX 2 3 1 16
BITMAP
C0
C0
C0
ENDCHAR
STARTCHAR 02DA
ENCODING 730
SWIDTH 166 0
DWIDTH 5 0
BBX 3 5 1 16
BITMAP
E0
A0
A0
A0
E0
ENDCHAR
STARTCHAR 02DB
ENCODING 731
SWIDTH 166 0
DWIDTH 5 0
BBX 4 7 0 -7
BITMAP
10
60
40
C0
C0
F0
70
ENDCHAR
STARTCHAR 02DC
ENCODING 732
SWIDTH 233 0
DWIDTH 7 0
BBX 6 2 1 16
BITMAP
E4
B8
ENDCHAR
STARTCHAR 02DD
ENCODING 733
SWIDTH 233 0
DWIDTH 7 0
BBX 6 5 1 15
BITMAP
4C
68
D8
90
B0
ENDCHAR
STARTCHAR 0300
ENCODING 768
SWIDTH 0 0
DWIDTH 0 0
BBX 5 5 -7 15
BITMAP
40
C0
60
30
18
ENDCHAR
STARTCHAR 0301
ENCODING 769
SWIDTH 0 0
DWIDTH 0 0
BBX 4 5 -6 15
BITMAP
10
30
70
60
C0
ENDCHAR
STARTCHAR 0302
ENCODING 770
SWIDTH 0 0
DWIDTH 0 0
BBX 6 4 -7 15
BITMAP
30
78
C8
84
ENDCHAR
STARTCHAR 0303
ENCODING 771
SWIDTH 0 0
DWIDTH 0 0
BBX 6 2 -7 16
BITMAP
E4
9C
ENDCHAR
STARTCHAR 0304
ENCODING 772
SWIDTH 0 0
DWIDTH 0 0
BBX 6 2 -7 16
BITMAP
FC
FC
ENDCHAR
STARTCHAR 0306
ENCODING 774
SWIDTH 0 0
DWIDTH 0 0
BBX 6 4 -7 15
BITMAP
8C
CC
F8
78
ENDCHAR
STARTCHAR 0307
ENCODING 775
SWIDTH 0 0
DWIDTH 0 0
BBX 2 3 -5 16
BITMAP
C0
C0
C0
ENDCHAR
STARTCHAR 0308
ENCODING 776
SWIDTH 0 0
DWIDTH 0 0
BBX 6 3 -7 16
BITMAP
CC
CC
CC
ENDCHAR
STARTCHAR 0309
ENCODING 777
SWIDTH 0 0
DWIDTH 0 0
BBX 4 4 -6 17
BITMAP
60
F0
30
60
ENDCHAR
STARTCHAR 030A
ENCODING 778
SWIDTH 0 0
DWIDTH 0 0
BBX 4 5 -6 15
BITMAP
60
90
90
90
60
ENDCHAR
STARTCHAR 030B
ENCODING 779
SWIDTH 0 0
DWIDTH 0 0
BBX 6 5 -7 15
BITMAP
28
6C
68
58
D0
ENDCHAR
STARTCHAR 030C
ENCODING 780
SWIDTH 0 0
DWIDTH 0 0
BBX 6 4 -7 16
BITMAP
84
CC
78
30
ENDCHAR
STARTCHAR 0313
ENCODING 787
SWIDTH 0 0
DWIDTH 0 0
BBX 2 6 -5 15
BITMAP
40
80
80
C0
C0
C0
ENDCHAR
STARTCHAR 031B
ENCODING 795
SWIDTH 66 0
DWIDTH 2 0
BBX 3 3 -2 14
BITMAP
20
20
E0
ENDCHAR
STARTCHAR 0323
ENCODING 803
SWIDTH 0 0
DWIDTH 0 0
BBX 2 3 -5 -4
BITMAP
C0
C0
C0
ENDCHAR
STARTCHAR 0326
ENCODING 806
SWIDTH 0 0
DWIDTH 0 0
BBX 2 6 -5 -6
BITMAP
C0
C0
C0
40
40
80
ENDCHAR
STARTCHAR 0328
ENCODING 808
SWIDTH 0 0
DWIDTH 0 0
BBX 4 7 -6 -7
BITMAP
30
40
C0
C0
C0
F0
70
ENDCHAR
STARTCHAR 032D
ENCODING 813
SWIDTH 0 0
DWIDTH 0 0
BBX 6 4 -7 -6
BITMAP
30
78
C8
84
ENDCHAR
STARTCHAR 0384
ENCODING 900
SWIDTH 66 0
DWIDTH 2 0
BBX 2 6 0 16
BITMAP
C0
C0
C0
C0
C0
C0
ENDCHAR
STARTCHAR 0385
ENCODING 901
SWIDTH 0 0
DWIDTH 0 0
BBX 8 6 -8 16
BITMAP
18
18
18
FF
FF
FF
ENDCHAR
STARTCHAR 0386
ENCODING 902
SWIDTH 300 0
DWIDTH 9 0
BBX 9 22 0 0
BITMAP
C000
C000
DE00
DE00
DE00
DE00
1E00
1E00
3E00
3600
3600
3300
3300
3300
3300
3F00
3F00
7300
6300
6380
6380
6180
ENDCHAR
STARTCHAR 0387
ENCODING 903
SWIDTH 100 0
DWIDTH 3 0
BBX 2 3 1 10
BITMAP
C0
C0
C0
ENDCHAR
STARTCHAR 0388
ENCODING 904
SWIDTH 266 0
DWIDTH 8 0
BBX 8 22 0 0
BITMAP
C0
C0
FF
FF
F8
F8
38
38
38
38
3F
3F
38
38
38
38
38
38
38
38
3F
3F
ENDCHAR
STARTCHAR 0389
ENCODING 905
SWIDTH 333 0
DWIDTH 10 0
BBX 10 22 0 0
BITMAP
C000
C000
F9C0
F9C0
F9C0
F9C0
39C0
39C0
39C0
39C0
3FC0
3FC0
39C0
39C0
39C0
39C0
39C0
39C0
39C0
39C0
39C0
39C0
ENDCHAR
STARTCHAR 038A
ENCODING 906
SWIDTH 166 0
DWIDTH 5 0
BBX 5 22 0 0
BITMAP
C0
C0
F8
F8
F8
F8
38
38
38
38
38
38
38
38
38
38
38
38
38
38
38
38
ENDCHAR
STARTCHAR 038C
ENCODING 908
SWIDTH 333 0
DWIDTH 10 0
BBX 9 22 0 0
BITMAP
C000
C000
CF00
DF80
F980
F980
3980
3980
3980
3980
3980
3980
3980
3980
3980
3980
3980
3980
3980
3980
1F80
0F00
ENDCHAR
STARTCHAR 038E
ENCODING 910
SWIDTH 333 0
DWIDTH 10 0
BBX 10 22 0 0
BITMAP
C000
C000
F8C0
D8C0
D8C0
D980
1D80
0D80
0D80
0F00
0F00
0700
0700
0700
0700
0700
0700
0700
0700
0700
0700
0700
ENDCHAR
STARTCHAR 038F
ENCODING 911
SWIDTH 366 0
DWIDTH 11 0
BBX 10 22 0 0
BITMAP
C000
C000
CF00
DF80
F9C0
F8C0
38C0
38C0
38C0
38C0
38C0
38C0
38C0
38C0
38C0
38C0
38C0
38C0
19C0
1980
3DC0
3DC0
ENDCHAR
STARTCHAR 0390
ENCODING 912
SWIDTH 233 0
DWIDTH 7 0
BBX 7 22 0 0
BITMAP
10
10
10
D6
D6
D6
00
30
30
30
30
30
30
30
30
30
30
30
30
30
38
18
ENDCHAR
STARTCHAR 0391
ENCODING 913
SWIDTH 266 0
DWIDTH 8 0
BBX 8 20 0 0
BITMAP
3C
3C
3C
3C
3C
3C
3E
36
36
76
66
66
66
7E
7E
67
63
E3
E3
C3
ENDCHAR
STARTCHAR 0392
ENCODING 914
SWIDTH 266 0
DWIDTH 8 0
BBX 7 20 1 0
BITMAP
FC
FC
CE
CE
CE
CE
CE
CC
FC
FC
CE
C6
C6
C6
C6
C6
C6
CE
FE
FC
ENDCHAR
STARTCHAR 0393
ENCODING 915
SWIDTH 233 0
DWIDTH 7 0
BBX 5 20 1 0
BITMAP
F8
F8
C0
C0
C0
C0
C0
C0
C0
C0
C0
C0
C0
C0
C0
C0
C0
C0
C0
C0
ENDCHAR
STARTCHAR 0394
ENCODING 916
SWIDTH 266 0
DWIDTH 8 0
BBX 8 20 0 0
BITMAP
3C
3C
3C
3C
3C
3C
3E
36
36
76
66
66
66
66
66
67
63
E3
FF
FF
ENDCHAR
STARTCHAR 0395
ENCODING 917
SWIDTH 233 0
DWIDTH 7 0
BBX 5 20 1 0
BITMAP
F8
F8
C0
C0
C0
C0
C0
C0
F8
F8
C0
C0
C0
C0
C0
C0
C0
C0
F8
F8
ENDCHAR
STARTCHAR 0396
ENCODING 918
SWIDTH 266 0
DWIDTH 8 0
BBX 7 20 0 0
BITMAP
FE
FE
06
0E
0C
0C
0C
1C
18
18
38
30
30
30
70
60
60
60
FE
FE
ENDCHAR
STARTCHAR 0397
ENCODING 919
SWIDTH 266 0
DWIDTH 8 0
BBX 7 20 1 0
BITMAP
C6
C6
C6
C6
C6
C6
C6
C6
FE
FE
C6
C6
C6
C6
C6
C6
C6
C6
C6
C6
ENDCHAR
STARTCHAR 0398
ENCODING 920
SWIDTH 266 0
DWIDTH 8 0
BBX 8 20 0 0
BITMAP
3C
7E
66
E3
E3
E3
E3
E3
FB
FB
E3
E3
E3
E3
E3
E3
E3
67
7E
3C
ENDCHAR
STARTCHAR 0399
ENCODING 921
SWIDTH 100 0
DWIDTH 3 0
BBX 2 20 1 0
BITMAP
C0
C0
C0
C0
C0
C0
C0
C0
C0
C0
C0
C0
C0
C0
C0
C0
C0
C0
C0
C0
ENDCHAR
STARTCHAR 039A
ENCODING 922
SWIDTH 266 0
DWIDTH 8 0
BBX 7 20 1 0
BITMAP
C6
CE
CC
CC
DC
D8
D8
F8
F8
F8
F8
F8
D8
DC
CC
CC
CC
CE
CE
C6
ENDCHAR
STARTCHAR 039B
ENCODING 923
SWIDTH 266 0
DWIDTH 8 0
BBX 8 20 0 0
BITMAP
1C
3C
3C
3C
3C
3C
3E
36
36
76
66
66
66
66
66
67
63
63
E3
E3
ENDCHAR
STARTCHAR 039C
ENCODING 924
SWIDTH 400 0
DWIDTH 12 0
BBX 10 20 1 0
BITMAP
E1C0
E1C0
E1C0
E3C0
B3C0
F3C0
F3C0
F3C0
F3C0
F2C0
F2C0
D6C0
DEC0
DEC0
DEC0
DEC0
DCC0
DCC0
CCC0
CCC0
ENDCHAR
STARTCHAR 039D
ENCODING 925
SWIDTH 300 0
DWIDTH 9 0
BBX 7 20 1 0
BITMAP
E6
E6
E6
E6
A6
B6
B6
F6
F6
D6
D6
DE
DE
DE
DE
CE
CE
CE
CE
CE
ENDCHAR
STARTCHAR 039E
ENCODING 926
SWIDTH 233 0
DWIDTH 7 0
BBX 6 20 0 0
BITMAP
7C
7C
00
00
00
00
00
00
7C
7C
00
00
00
00
00
00
00
00
FC
FC
ENDCHAR
STARTCHAR 039F
ENCODING 927
SWIDTH 266 0
DWIDTH 8 0
BBX 8 20 0 0
BITMAP
3C
7E
66
E7
E7
E7
E7
E7
E7
E7
E7
E7
E7
E7
E7
E7
E7
67
7E
3C
ENDCHAR
STARTCHAR 03A0
ENCODING 928
SWIDTH 266 0
DWIDTH 8 0
BBX 7 20 1 0
BITMAP
FE
FE
C6
C6
C6
C6
C6
C6
C6
C6
C6
C6
C6
C6
C6
C6
C6
C6
C6
C6
ENDCHAR
STARTCHAR 03A1
ENCODING 929
SWIDTH 266 0
DWIDTH 8 0
BBX 7 20 1 0
BITMAP
FC
FC
CE
CE
CE
CE
CE
CE
CE
CE
FC
FC
C0
C0
C0
C0
C0
C0
C0
C0
ENDCHAR
STARTCHAR 03A3
ENCODING 931
SWIDTH 233 0
DWIDTH 7 0
BBX 6 20 0 0
BITMAP
FC
FC
60
60
60
70
30
30
30
18
18
30
30
30
70
60
60
60
FC
FC
ENDCHAR
STARTCHAR 03A4
ENCODING 932
SWIDTH 266 0
DWIDTH 8 0
BBX 8 20 0 0
BITMAP
FF
FF
18
18
18
18
18
18
18
18
18
18
18
18
18
18
18
18
18
18
ENDCHAR
STARTCHAR 03A5
ENCODING 933
SWIDTH 266 0
DWIDTH 8 0
BBX 8 20 0 0
BITMAP
E3
63
67
66
66
36
36
3C
3C
1C
1C
18
18
18
18
18
18
18
18
18
ENDCHAR
STARTCHAR 03A6
ENCODING 934
SWIDTH 400 0
DWIDTH 12 0
BBX 11 20 0 0
BITMAP
0600
0600
0600
7FC0
7FE0
E660
C660
C660
C660
C660
C660
C660
C660
E660
7FE0
7FC0
0600
0600
0600
0600
ENDCHAR
STARTCHAR 03A7
ENCODING 935
SWIDTH 300 0
DWIDTH 9 0
BBX 9 20 0 0
BITMAP
E300
6300
6300
6600
7600
3600
3600
3C00
1C00
1C00
1C00
3C00
3E00
3600
3600
7600
6700
6300
6300
E380
ENDCHAR
STARTCHAR 03A8
ENCODING 936
SWIDTH 400 0
DWIDTH 12 0
BBX 10 20 1 0
BITMAP
8CC0
8CC0
8CC0
8CC0
8CC0
8CC0
8CC0
8CC0
8CC0
8CC0
8CC0
8CC0
8CC0
CCC0
FFC0
FF80
0C00
0C00
0C00
0C00
ENDCHAR
STARTCHAR 03A9
ENCODING 937
SWIDTH 300 0
DWIDTH 9 0
BBX 8 20 0 0
BITMAP
3E
7F
63
63
63
63
63
63
63
63
63
63
63
63
63
63
63
26
F7
F7
ENDCHAR
STARTCHAR 03AA
ENCODING 938
SWIDTH 166 0
DWIDTH 5 0
BBX 5 25 0 0
BITMAP
D8
D8
D8
00
00
60
60
60
60
60
60
60
60
60
60
60
60
60
60
60
60
60
60
60
60
ENDCHAR
STARTCHAR 03AB
ENCODING 939
SWIDTH 266 0
DWIDTH 8 0
BBX 8 25 0 0
BITMAP
66
66
66
00
00
E3
63
67
66
66
36
36
3C
3C
1C
1C
18
18
18
18
18
18
18
18
18
ENDCHAR
STARTCHAR 03AC
ENCODING 940
SWIDTH 300 0
DWIDTH 9 0
BBX 7 22 1 0
BITMAP
30
30
30
30
30
30
00
76
F6
CE
CE
CE
CE
CE
CE
CE
CE
CE
CE
CE
FE
76
ENDCHAR
STARTCHAR 03AD
ENCODING 941
SWIDTH 266 0
DWIDTH 8 0
BBX 6 22 1 0
BITMAP
30
30
30
30
30
30
00
78
FC
CC
CC
CC
C0
F0
F0
C0
C0
CC
CC
CC
FC
78
ENDCHAR
STARTCHAR 03AE
ENCODING 942
SWIDTH 266 0
DWIDTH 8 0
BBX 7 29 1 -7
BITMAP
30
30
30
30
30
30
00
DC
FC
CE
CE
CE
CE
CE
CE
CE
CE
CE
CE
CE
CE
CE
0E
0E
0E
0E
0E
0E
0E
ENDCHAR
STARTCHAR 03AF
ENCODING 943
SWIDTH 133 0
DWIDTH 4 0
BBX 3 22 1 0
BITMAP
C0
C0
C0
C0
C0
80
00
C0
C0
C0
C0
C0
C0
C0
C0
C0
C0
C0
C0
C0
E0
60
ENDCHAR
STARTCHAR 03B0
ENCODING 944
SWIDTH 266 0
DWIDTH 8 0
BBX 8 22 0 0
BITMAP
18
18
FF
FF
FF
18
00
66
66
66
66
66
66
66
66
66
66
66
66
66
7E
3C
ENDCHAR
STARTCHAR 03B1
ENCODING 945
SWIDTH 300 0
DWIDTH 9 0
BBX 7 15 1 0
BITMAP
76
F6
CE
CE
CE
CE
CE
CE
CE
CE
CE
CE
CE
FE
76
ENDCHAR
STARTCHAR 03B2
ENCODING 946
SWIDTH 266 0
DWIDTH 8 0
BBX 7 28 1 -7
BITMAP
78
FC
CC
CC
CC
CC
CC
CC
CC
DC
DC
CC
CE
CE
CE
CE
CE
CE
CC
FC
F8
C0
C0
C0
C0
C0
C0
C0
ENDCHAR
STARTCHAR 03B3
ENCODING 947
SWIDTH 266 0
DWIDTH 8 0
BBX 7 22 0 -7
BITMAP
C6
E6
66
66
66
66
64
6C
2C
3C
3C
3C
3C
38
18
18
18
18
18
18
18
18
ENDCHAR
STARTCHAR 03B4
ENCODING 948
SWIDTH 266 0
DWIDTH 8 0
BBX 6 21 1 0
BITMAP
7C
FC
C0
C0
C0
C0
E0
70
FC
CC
CC
CC
CC
CC
CC
CC
CC
CC
CC
FC
78
ENDCHAR
STARTCHAR 03B5
ENCODING 949
SWIDTH 266 0
DWIDTH 8 0
BBX 6 15 1 0
BITMAP
78
FC
CC
CC
CC
C0
F0
F0
C0
C0
CC
CC
CC
FC
78
ENDCHAR
STARTCHAR 03B6
ENCODING 950
SWIDTH 233 0
DWIDTH 7 0
BBX 6 26 1 -5
BITMAP
FC
FC
0C
18
18
30
30
60
60
E0
C0
C0
C0
C0
C0
C0
C0
C0
C0
F8
FC
1C
1C
1C
1C
1C
ENDCHAR
STARTCHAR 03B7
ENCODING 951
SWIDTH 266 0
DWIDTH 8 0
BBX 7 22 1 -7
BITMAP
DC
FC
CE
CE
CE
CE
CE
CE
CE
CE
CE
CE
CE
CE
CE
0E
0E
0E
0E
0E
0E
0E
ENDCHAR
STARTCHAR 03B8
ENCODING 952
SWIDTH 266 0
DWIDTH 8 0
BBX 6 21 1 0
BITMAP
78
FC
CC
CC
CC
CC
CC
CC
CC
FC
FC
CC
CC
CC
CC
CC
CC
CC
CC
FC
78
ENDCHAR
STARTCHAR 03B9
ENCODING 953
SWIDTH 133 0
DWIDTH 4 0
BBX 3 15 1 0
BITMAP
C0
C0
C0
C0
C0
C0
C0
C0
C0
C0
C0
C0
C0
E0
60
ENDCHAR
STARTCHAR 03BA
ENCODING 954
SWIDTH 266 0
DWIDTH 8 0
BBX 7 15 1 0
BITMAP
CE
CC
DC
DC
D8
F8
F0
F8
F8
D8
DC
CC
CC
CC
CE
ENDCHAR
STARTCHAR 03BB
ENCODING 955
SWIDTH 266 0
DWIDTH 8 0
BBX 8 21 0 0
BITMAP
70
78
18
18
18
18
18
18
3C
3C
3C
3C
3C
3C
6C
66
66
66
66
E7
C3
ENDCHAR
STARTCHAR 03BC
ENCODING 956
SWIDTH 266 0
DWIDTH 8 0
BBX 7 22 1 -7
BITMAP
CE
CE
CE
CE
CE
CE
CE
CE
CE
CE
CE
CE
CE
FE
FE
C0
C0
C0
C0
C0
C0
C0
ENDCHAR
STARTCHAR 03BD
ENCODING 957
SWIDTH 266 0
DWIDTH 8 0
BBX 7 15 0 0
BITMAP
C6
E6
66
66
66
66
66
6C
6C
3C
3C
3C
3C
3C
38
ENDCHAR
STARTCHAR 03BE
ENCODING 958
SWIDTH 266 0
DWIDTH 8 0
BBX 6 26 1 -5
BITMAP
78
FC
CC
CC
CC
C0
C0
C0
70
F0
C0
C0
C0
C0
C0
C0
C0
C0
C0
FC
FC
0C
0C
0C
0C
0C
ENDCHAR
STARTCHAR 03BF
ENCODING 959
SWIDTH 266 0
DWIDTH 8 0
BBX 6 15 1 0
BITMAP
78
FC
CC
CC
CC
CC
CC
CC
CC
CC
CC
CC
CC
FC
78
ENDCHAR
STARTCHAR 03C0
ENCODING 960
SWIDTH 333 0
DWIDTH 10 0
BBX 10 15 0 0
BITMAP
FFC0
FFC0
3300
3300
3300
3300
3300
3300
3300
3300
3300
3300
3300
3380
3180
ENDCHAR
STARTCHAR 03C1
ENCODING 961
SWIDTH 266 0
DWIDTH 8 0
BBX 6 22 1 -7
BITMAP
78
FC
CC
CC
CC
CC
CC
CC
CC
CC
CC
CC
CC
FC
DC
C0
C0
C0
C0
C0
C0
C0
ENDCHAR
STARTCHAR 03C2
ENCODING 962
SWIDTH 266 0
DWIDTH 8 0
BBX 6 20 1 -5
BITMAP
78
FC
CC
CC
CC
CC
C0
C0
C0
C0
C0
C0
C0
FC
FC
0C
0C
0C
0C
0C
ENDCHAR
STARTCHAR 03C3
ENCODING 963
SWIDTH 300 0
DWIDTH 9 0
BBX 7 15 1 0
BITMAP
7E
FE
CC
CC
CC
CC
CC
CC
CC
CC
CC
CC
CC
FC
78
ENDCHAR
STARTCHAR 03C4
ENCODING 964
SWIDTH 200 0
DWIDTH 6 0
BBX 6 15 0 0
BITMAP
FC
FC
30
30
30
30
30
30
30
30
30
30
30
38
18
ENDCHAR
STARTCHAR 03C5
ENCODING 965
SWIDTH 266 0
DWIDTH 8 0
BBX 6 15 1 0
BITMAP
CC
CC
CC
CC
CC
CC
CC
CC
CC
CC
CC
CC
CC
FC
78
ENDCHAR
STARTCHAR 03C6
ENCODING 966
SWIDTH 366 0
DWIDTH 11 0
BBX 10 27 1 -7
BITMAP
0C00
0C00
0C00
0C00
0C00
FF80
FFC0
CCC0
CCC0
CCC0
CCC0
CCC0
CCC0
CCC0
CCC0
CCC0
CCC0
CCC0
FFC0
FF80
0C00
0C00
0C00
0C00
0C00
0C00
0C00
ENDCHAR
STARTCHAR 03C7
ENCODING 967
SWIDTH 266 0
DWIDTH 8 0
BBX 8 22 0 -7
BITMAP
E7
66
66
66
66
76
3C
3C
3C
3C
18
3C
3C
3C
3C
3C
66
66
66
66
E7
E7
ENDCHAR
STARTCHAR 03C9
ENCODING 969
SWIDTH 400 0
DWIDTH 12 0
BBX 10 15 1 0
BITMAP
C1C0
C0C0
C0C0
C0C0
CCC0
CCC0
CCC0
CCC0
CCC0
CCC0
CCC0
CCC0
CCC0
FFC0
7380
ENDCHAR
STARTCHAR 03CA
ENCODING 970
SWIDTH 166 0
DWIDTH 5 0
BBX 5 19 0 0
BITMAP
D8
D8
D8
00
70
70
70
70
70
70
70
70
70
70
70
70
70
38
38
ENDCHAR
STARTCHAR 03CB
ENCODING 971
SWIDTH 266 0
DWIDTH 8 0
BBX 6 20 1 0
BITMAP
CC
CC
CC
00
00
CC
CC
CC
CC
CC
CC
CC
CC
CC
CC
CC
CC
CC
FC
78
ENDCHAR
STARTCHAR 03CC
ENCODING 972
SWIDTH 266 0
DWIDTH 8 0
BBX 6 22 1 0
BITMAP
30
30
30
30
30
30
00
78
FC
CC
CC
CC
CC
CC
CC
CC
CC
CC
CC
CC
FC
78
ENDCHAR
STARTCHAR 03CD
ENCODING 973
SWIDTH 266 0
DWIDTH 8 0
BBX 6 22 1 0
BITMAP
30
30
30
30
30
30
00
CC
CC
CC
CC
CC
CC
CC
CC
CC
CC
CC
CC
CC
FC
78
ENDCHAR
STARTCHAR 03CE
ENCODING 974
SWIDTH 400 0
DWIDTH 12 0
BBX 10 22 1 0
BITMAP
0C00
0C00
0C00
0C00
0800
0800
0000
C1C0
C0C0
C0C0
C0C0
CCC0
CCC0
CCC0
CCC0
CCC0
CCC0
CCC0
CCC0
CCC0
FFC0
7380
ENDCHAR
STARTCHAR 0400
ENCODING 1024
SWIDTH 233 0
DWIDTH 7 0
BBX 5 25 1 0
BITMAP
80
C0
60
30
10
F8
F8
C0
C0
C0
C0
C0
C0
F8
F8
C0
C0
C0
C0
C0
C0
C0
C0
F8
F8
ENDCHAR
STARTCHAR 0401
ENCODING 1025
SWIDTH 233 0
DWIDTH 7 0
BBX 5 25 1 0
BITMAP
D8
D8
D8
00
00
F8
F8
C0
C0
C0
C0
C0
C0
F8
F8
C0
C0
C0
C0
C0
C0
C0
C0
F8
F8
ENDCHAR
STARTCHAR 0402
ENCODING 1026
SWIDTH 333 0
DWIDTH 10 0
BBX 9 27 0 -7
BITMAP
FE00
FE00
3800
3800
3800
3800
3F00
3F80
3980
3980
3980
3980
3980
3980
3980
3980
3980
3980
3980
3980
0180
3980
3980
3980
3980
1F80
0F00
ENDCHAR
STARTCHAR 0403
ENCODING 1027
SWIDTH 233 0
DWIDTH 7 0
BBX 5 25 1 0
BITMAP
18
18
30
60
40
F8
F8
C0
C0
C0
C0
C0
C0
C0
C0
C0
C0
C0
C0
C0
C0
C0
C0
C0
C0
ENDCHAR
STARTCHAR 0404
ENCODING 1028
SWIDTH 266 0
DWIDTH 8 0
BBX 7 20 1 0
BITMAP
78
FC
CC
CE
CE
C0
C0
C0
F0
F0
C0
C0
C0
C0
CE
CE
CE
CC
FC
78
ENDCHAR
STARTCHAR 0405
ENCODING 1029
SWIDTH 266 0
DWIDTH 8 0
BBX 8 20 0 0
BITMAP
3C
7E
67
63
63
63
60
70
78
3C
0E
07
07
03
E3
E3
E3
67
7E
3E
ENDCHAR
STARTCHAR 0406
ENCODING 1030
SWIDTH 100 0
DWIDTH 3 0
BBX 2 20 1 0
BITMAP
C0
C0
C0
C0
C0
C0
C0
C0
C0
C0
C0
C0
C0
C0
C0
C0
C0
C0
C0
C0
ENDCHAR
STARTCHAR 0407
ENCODING 1031
SWIDTH 166 0
DWIDTH 5 0
BBX 5 25 0 0
BITMAP
D8
D8
D8
00
00
60
60
60
60
60
60
60
60
60
60
60
60
60
60
60
60
60
60
60
60
ENDCHAR
STARTCHAR 0408
ENCODING 1032
SWIDTH 266 0
DWIDTH 8 0
BBX 7 20 0 0
BITMAP
06
06
06
06
06
06
06
06
06
06
06
06
06
E6
E6
E6
E6
66
7E
3C
ENDCHAR
STARTCHAR 0409
ENCODING 1033
SWIDTH 466 0
DWIDTH 14 0
BBX 14 20 0 0
BITMAP
3F80
3F80
3380
3380
3380
3380
3380
3380
33F8
33F8
339C
339C
339C
339C
339C
339C
239C
639C
E3F8
C3F8
ENDCHAR
STARTCHAR 040A
ENCODING 1034
SWIDTH 433 0
DWIDTH 13 0
BBX 12 20 1 0
BITMAP
C600
C600
C600
C600
C600
C600
C600
C600
FFE0
FFE0
C670
C670
C670
C670
C670
C670
C670
C670
C7E0
C7E0
ENDCHAR
STARTCHAR 040B
ENCODING 1035
SWIDTH 333 0
DWIDTH 10 0
BBX 9 20 0 0
BITMAP
FE00
FE00
3800
3800
3800
3800
3F00
3F80
3980
3980
3980
3980
3980
3980
3980
3980
3980
3980
3980
3980
ENDCHAR
STARTCHAR 040C
ENCODING 1036
SWIDTH 266 0
DWIDTH 8 0
BBX 7 25 1 0
BITMAP
08
1C
30
60
20
C6
CE
CC
CC
DC
D8
D8
F8
F8
F8
F8
F8
D8
DC
CC
CC
CC
CE
CE
C6
ENDCHAR
STARTCHAR 040D
ENCODING 1037
SWIDTH 300 0
DWIDTH 9 0
BBX 7 25 1 0
BITMAP
60
60
30
18
08
C6
CE
CE
CE
CE
CE
DE
DE
D6
D6
F6
F6
F6
E6
E6
E6
E6
C6
C6
C6
ENDCHAR
STARTCHAR 040E
ENCODING 1038
SWIDTH 266 0
DWIDTH 8 0
BBX 7 25 1 0
BITMAP
C4
CC
7C
78
00
CE
CE
CE
CE
CE
CE
CE
CE
CE
CE
FE
FE
0E
CE
CE
CE
CE
CE
FC
78
ENDCHAR
STARTCHAR 040F
ENCODING 1039
SWIDTH 266 0
DWIDTH 8 0
BBX 7 24 1 -4
BITMAP
C6
C6
C6
C6
C6
C6
C6
C6
C6
C6
C6
C6
C6
C6
C6
C6
C6
C6
FE
FE
30
30
30
30
ENDCHAR
STARTCHAR 0410
ENCODING 1040
SWIDTH 266 0
DWIDTH 8 0
BBX 8 20 0 0
BITMAP
3C
3C
3C
3C
3C
3C
3E
36
36
76
66
66
66
7E
7E
67
63
E3
E3
C3
ENDCHAR
STARTCHAR 0411
ENCODING 1041
SWIDTH 266 0
DWIDTH 8 0
BBX 7 20 1 0
BITMAP
F8
F8
C0
C0
C0
C0
C0
C0
FC
FC
CE
CE
CE
CE
CE
CE
CE
CE
FC
FC
ENDCHAR
STARTCHAR 0412
ENCODING 1042
SWIDTH 266 0
DWIDTH 8 0
BBX 7 20 1 0
BITMAP
FC
FC
CE
CE
CE
CE
CE
CC
FC
FC
CE
C6
C6
C6
C6
C6
C6
CE
FE
FC
ENDCHAR
STARTCHAR 0413
ENCODING 1043
SWIDTH 233 0
DWIDTH 7 0
BBX 5 20 1 0
BITMAP
F8
F8
C0
C0
C0
C0
C0
C0
C0
C0
C0
C0
C0
C0
C0
C0
C0
C0
C0
C0
ENDCHAR
STARTCHAR 0414
ENCODING 1044
SWIDTH 333 0
DWIDTH 10 0
BBX 10 25 0 -5
BITMAP
3F80
3F80
3180
3180
3180
3180
3180
3180
3180
3180
3180
3180
3180
3180
3180
3180
3180
6180
FFC0
FFC0
C0C0
C0C0
C0C0
C0C0
C0C0
ENDCHAR
STARTCHAR 0415
ENCODING 1045
SWIDTH 233 0
DWIDTH 7 0
BBX 5 20 1 0
BITMAP
F8
F8
C0
C0
C0
C0
C0
C0
F8
F8
C0
C0
C0
C0
C0
C0
C0
C0
F8
F8
ENDCHAR
STARTCHAR 0416
ENCODING 1046
SWIDTH 433 0
DWIDTH 13 0
BBX 13 20 0 0
BITMAP
E738
6730
6730
7770
3760
3760
3FE0
1FC0
1FC0
1FC0
1FC0
1FC0
1FC0
3FE0
3760
3760
7770
6730
6730
E738
ENDCHAR
STARTCHAR 0417
ENCODING 1047
SWIDTH 266 0
DWIDTH 8 0
BBX 7 20 1 0
BITMAP
78
FC
CC
CC
CC
0C
0C
0C
3C
3C
0C
0E
0E
0E
CE
CE
CE
CC
FC
78
ENDCHAR
STARTCHAR 0418
ENCODING 1048
SWIDTH 300 0
DWIDTH 9 0
BBX 7 20 1 0
BITMAP
C6
CE
CE
CE
CE
CE
DE
DE
D6
D6
F6
F6
F6
E6
E6
E6
E6
C6
C6
C6
ENDCHAR
STARTCHAR 0419
ENCODING 1049
SWIDTH 300 0
DWIDTH 9 0
BBX 7 25 1 0
BITMAP
C6
C4
4C
7C
38
C6
CE
CE
CE
CE
CE
DE
DE
D6
D6
F6
F6
F6
E6
E6
E6
E6
C6
C6
C6
ENDCHAR
STARTCHAR 041A
ENCODING 1050
SWIDTH 266 0
DWIDTH 8 0
BBX 7 20 1 0
BITMAP
C6
CE
CC
CC
DC
D8
D8
F8
F8
F8
F8
F8
D8
DC
CC
CC
CC
CE
CE
C6
ENDCHAR
STARTCHAR 041B
ENCODING 1051
SWIDTH 300 0
DWIDTH 9 0
BBX 9 20 0 0
BITMAP
3F80
3F80
3380
3380
3380
3380
3380
3380
3380
3380
3380
3380
3380
3380
3380
3380
2380
6380
E380
C380
ENDCHAR
STARTCHAR 041C
ENCODING 1052
SWIDTH 400 0
DWIDTH 12 0
BBX 10 20 1 0
BITMAP
E1C0
E1C0
E1C0
E3C0
B3C0
F3C0
F3C0
F3C0
F3C0
F2C0
F2C0
D6C0
DEC0
DEC0
DEC0
DEC0
DCC0
DCC0
CCC0
CCC0
ENDCHAR
STARTCHAR 041D
ENCODING 1053
SWIDTH 266 0
DWIDTH 8 0
BBX 7 20 1 0
BITMAP
C6
C6
C6
C6
C6
C6
C6
C6
FE
FE
C6
C6
C6
C6
C6
C6
C6
C6
C6
C6
ENDCHAR
STARTCHAR 041E
ENCODING 1054
SWIDTH 266 0
DWIDTH 8 0
BBX 8 20 0 0
BITMAP
3C
7E
66
E7
E7
E7
E7
E7
E7
E7
E7
E7
E7
E7
E7
E7
E7
67
7E
3C
ENDCHAR
STARTCHAR 041F
ENCODING 1055
SWIDTH 266 0
DWIDTH 8 0
BBX 7 20 1 0
BITMAP
FE
FE
C6
C6
C6
C6
C6
C6
C6
C6
C6
C6
C6
C6
C6
C6
C6
C6
C6
C6
ENDCHAR
STARTCHAR 0420
ENCODING 1056
SWIDTH 266 0
DWIDTH 8 0
BBX 7 20 1 0
BITMAP
FC
FC
CE
CE
CE
CE
CE
CE
CE
CE
FC
FC
C0
C0
C0
C0
C0
C0
C0
C0
ENDCHAR
STARTCHAR 0421
ENCODING 1057
SWIDTH 266 0
DWIDTH 8 0
BBX 7 20 1 0
BITMAP
78
FC
CC
CE
CE
CE
CE
C0
C0
C0
C0
C0
CE
CE
CE
CE
CE
CC
FC
78
ENDCHAR
STARTCHAR 0422
ENCODING 1058
SWIDTH 266 0
DWIDTH 8 0
BBX 8 20 0 0
BITMAP
FF
FF
18
18
18
18
18
18
18
18
18
18
18
18
18
18
18
18
18
18
ENDCHAR
STARTCHAR 0423
ENCODING 1059
SWIDTH 266 0
DWIDTH 8 0
BBX 7 20 1 0
BITMAP
CE
CE
CE
CE
CE
CE
CE
CE
CE
CE
FE
FE
0E
CE
CE
CE
CE
CE
FC
78
ENDCHAR
STARTCHAR 0424
ENCODING 1060
SWIDTH 400 0
DWIDTH 12 0
BBX 11 20 0 0
BITMAP
0600
0600
0600
7FC0
7FE0
E660
C660
C660
C660
C660
C660
C660
C660
E660
7FE0
7FC0
0600
0600
0600
0600
ENDCHAR
STARTCHAR 0425
ENCODING 1061
SWIDTH 300 0
DWIDTH 9 0
BBX 9 20 0 0
BITMAP
E300
6300
6300
6600
7600
3600
3600
3C00
1C00
1C00
1C00
3C00
3E00
3600
3600
7600
6700
6300
6300
E380
ENDCHAR
STARTCHAR 0426
ENCODING 1062
SWIDTH 300 0
DWIDTH 9 0
BBX 8 25 1 -5
BITMAP
C6
C6
C6
C6
C6
C6
C6
C6
C6
C6
C6
C6
C6
C6
C6
C6
C6
C6
FF
FF
03
03
03
03
03
ENDCHAR
STARTCHAR 0427
ENCODING 1063
SWIDTH 266 0
DWIDTH 8 0
BBX 7 20 1 0
BITMAP
CE
CE
CE
CE
CE
CE
CE
CE
CE
FE
FE
0E
0E
0E
0E
0E
0E
0E
0E
0E
ENDCHAR
STARTCHAR 0428
ENCODING 1064
SWIDTH 400 0
DWIDTH 12 0
BBX 11 20 1 0
BITMAP
CC60
CC60
CC60
CC60
CC60
CC60
CC60
CC60
CC60
CC60
CC60
CC60
CC60
CC60
CC60
CC60
CC60
CC60
FFE0
FFE0
ENDCHAR
STARTCHAR 0429
ENCODING 1065
SWIDTH 433 0
DWIDTH 13 0
BBX 12 25 1 -5
BITMAP
CC60
CC60
CC60
CC60
CC60
CC60
CC60
CC60
CC60
CC60
CC60
CC60
CC60
CC60
CC60
CC60
CC60
CC60
FFF0
FFF0
0030
0030
0030
0030
0030
ENDCHAR
STARTCHAR 042A
ENCODING 1066
SWIDTH 366 0
DWIDTH 11 0
BBX 10 20 0 0
BITMAP
F800
F800
1800
1800
1800
1800
1800
1800
1F80
1FC0
18C0
18C0
18C0
18C0
18C0
18C0
18C0
18C0
1FC0
1F80
ENDCHAR
STARTCHAR 042B
ENCODING 1067
SWIDTH 366 0
DWIDTH 11 0
BBX 10 20 1 0
BITMAP
C0C0
C0C0
C0C0
C0C0
C0C0
C0C0
C0C0
C0C0
FCC0
FCC0
CEC0
CEC0
CEC0
CEC0
CEC0
CEC0
CEC0
CEC0
FCC0
FCC0
ENDCHAR
STARTCHAR 042C
ENCODING 1068
SWIDTH 266 0
DWIDTH 8 0
BBX 7 20 1 0
BITMAP
C0
C0
C0
C0
C0
C0
C0
C0
FC
FC
CE
CE
CE
CE
CE
CE
CE
CE
FC
FC
ENDCHAR
STARTCHAR 042D
ENCODING 1069
SWIDTH 266 0
DWIDTH 8 0
BBX 7 20 1 0
BITMAP
78
FC
CC
CE
CE
0E
0E
0E
3E
3E
0E
0E
0E
0E
CE
CE
CE
CC
FC
78
ENDCHAR
STARTCHAR 042E
ENCODING 1070
SWIDTH 400 0
DWIDTH 12 0
BBX 11 20 1 0
BITMAP
C780
CFC0
CCC0
CCE0
CCE0
CCE0
CCE0
CCE0
FCE0
FCE0
CCE0
CCE0
CCE0
CCE0
CCE0
CCE0
CCE0
CCE0
CFC0
C780
ENDCHAR
STARTCHAR 042F
ENCODING 1071
SWIDTH 266 0
DWIDTH 8 0
BBX 7 20 0 0
BITMAP
7E
7E
E6
E6
E6
E6
E6
E6
E6
7E
7E
36
36
76
66
66
66
66
E6
E6
ENDCHAR
STARTCHAR 0430
ENCODING 1072
SWIDTH 266 0
DWIDTH 8 0
BBX 7 15 0 0
BITMAP
3C
7E
66
66
66
06
1E
76
66
E6
E6
E6
E6
7E
76
ENDCHAR
STARTCHAR 0431
ENCODING 1073
SWIDTH 266 0
DWIDTH 8 0
BBX 7 21 1 0
BITMAP
04
FC
F8
C0
C0
C0
DC
FC
CC
CE
CE
CE
CE
CE
CE
CE
CE
CE
CC
FC
78
ENDCHAR
STARTCHAR 0432
ENCODING 1074
SWIDTH 266 0
DWIDTH 8 0
BBX 7 15 1 0
BITMAP
F8
FC
CC
CC
CC
CC
FC
FC
CC
CE
CE
CE
CC
FC
F8
ENDCHAR
STARTCHAR 0433
ENCODING 1075
SWIDTH 166 0
DWIDTH 5 0
BBX 4 15 1 0
BITMAP
F0
F0
C0
C0
C0
C0
C0
C0
C0
C0
C0
C0
C0
C0
C0
ENDCHAR
STARTCHAR 0434
ENCODING 1076
SWIDTH 300 0
DWIDTH 9 0
BBX 9 20 0 -5
BITMAP
3F00
3F00
3300
3300
3300
3300
3300
3300
3300
3300
2300
2300
6300
FF80
FF80
C180
C180
C180
C180
C180
ENDCHAR
STARTCHAR 0435
ENCODING 1077
SWIDTH 266 0
DWIDTH 8 0
BBX 6 15 1 0
BITMAP
78
FC
CC
CC
CC
CC
FC
FC
C0
C0
CC
CC
CC
FC
78
ENDCHAR
STARTCHAR 0436
ENCODING 1078
SWIDTH 400 0
DWIDTH 12 0
BBX 12 15 0 0
BITMAP
E670
6660
7660
36C0
36C0
3FC0
1F80
1F80
1F80
3EC0
36C0
36E0
6660
6660
E670
ENDCHAR
STARTCHAR 0437
ENCODING 1079
SWIDTH 266 0
DWIDTH 8 0
BBX 6 15 1 0
BITMAP
78
FC
CC
CC
0C
0C
38
3C
0C
0C
CC
CC
CC
FC
78
ENDCHAR
STARTCHAR 0438
ENCODING 1080
SWIDTH 266 0
DWIDTH 8 0
BBX 7 15 1 0
BITMAP
CE
CE
CE
CE
DE
DE
D6
F6
F6
E6
E6
E6
E6
C6
C6
ENDCHAR
STARTCHAR 0439
ENCODING 1081
SWIDTH 266 0
DWIDTH 8 0
BBX 7 20 1 0
BITMAP
C4
C4
CC
7C
38
CE
CE
CE
CE
DE
DE
D6
F6
F6
E6
E6
E6
E6
C6
C6
ENDCHAR
STARTCHAR 043A
ENCODING 1082
SWIDTH 266 0
DWIDTH 8 0
BBX 7 15 1 0
BITMAP
CE
CC
DC
DC
D8
F8
F0
F8
F8
D8
DC
CC
CC
CC
CE
ENDCHAR
STARTCHAR 043B
ENCODING 1083
SWIDTH 300 0
DWIDTH 9 0
BBX 8 15 0 0
BITMAP
3F
3F
33
33
33
33
33
33
23
23
23
23
63
E3
C3
ENDCHAR
STARTCHAR 043C
ENCODING 1084
SWIDTH 366 0
DWIDTH 11 0
BBX 9 15 1 0
BITMAP
E380
E380
E380
E380
A780
B780
B780
B780
B580
9580
9580
9D80
9D80
9D80
9980
ENDCHAR
STARTCHAR 043D
ENCODING 1085
SWIDTH 266 0
DWIDTH 8 0
BBX 7 15 1 0
BITMAP
CE
CE
CE
CE
CE
CE
FE
FE
CE
CE
CE
CE
CE
CE
CE
ENDCHAR
STARTCHAR 043E
ENCODING 1086
SWIDTH 266 0
DWIDTH 8 0
BBX 6 15 1 0
BITMAP
78
FC
CC
CC
CC
CC
CC
CC
CC
CC
CC
CC
CC
FC
78
ENDCHAR
STARTCHAR 043F
ENCODING 1087
SWIDTH 266 0
DWIDTH 8 0
BBX 7 15 1 0
BITMAP
FE
FE
CE
CE
CE
CE
CE
CE
CE
CE
CE
CE
CE
CE
CE
ENDCHAR
STARTCHAR 0440
ENCODING 1088
SWIDTH 266 0
DWIDTH 8 0
BBX 7 22 1 -7
BITMAP
FC
FC
CC
CE
CE
CE
CE
CE
CE
CE
CE
CE
CC
FC
DC
C0
C0
C0
C0
C0
C0
C0
ENDCHAR
STARTCHAR 0441
ENCODING 1089
SWIDTH 266 0
DWIDTH 8 0
BBX 6 15 1 0
BITMAP
78
FC
CC
CC
CC
CC
C0
C0
C0
CC
CC
CC
CC
FC
78
ENDCHAR
STARTCHAR 0442
ENCODING 1090
SWIDTH 233 0
DWIDTH 7 0
BBX 7 15 0 0
BITMAP
FE
FE
38
38
38
38
38
38
38
38
38
38
38
38
38
ENDCHAR
STARTCHAR 0443
ENCODING 1091
SWIDTH 266 0
DWIDTH 8 0
BBX 7 22 1 -7
BITMAP
CE
CE
CE
CE
CE
CE
CE
CE
CE
CE
CE
CE
CE
FE
FE
0E
CE
CE
CE
CC
FC
78
ENDCHAR
STARTCHAR 0444
ENCODING 1092
SWIDTH 366 0
DWIDTH 11 0
BBX 10 27 1 -7
BITMAP
0C00
0C00
0C00
0C00
0C00
FF80
FFC0
CCC0
CCC0
CCC0
CCC0
CCC0
CCC0
CCC0
CCC0
CCC0
CCC0
CCC0
FFC0
FF80
0C00
0C00
0C00
0C00
0C00
0C00
0C00
ENDCHAR
STARTCHAR 0445
ENCODING 1093
SWIDTH 266 0
DWIDTH 8 0
BBX 8 15 0 0
BITMAP
E7
66
66
76
3C
3C
3C
18
3C
3C
3C
66
66
66
E7
ENDCHAR
STARTCHAR 0446
ENCODING 1094
SWIDTH 300 0
DWIDTH 9 0
BBX 8 19 1 -4
BITMAP
CE
CE
CE
CE
CE
CE
CE
CE
CE
CE
CE
CE
CE
FF
FF
03
03
03
03
ENDCHAR
STARTCHAR 0447
ENCODING 1095
SWIDTH 266 0
DWIDTH 8 0
BBX 7 15 1 0
BITMAP
CE
CE
CE
CE
CE
CE
CE
FE
FE
0E
0E
0E
0E
0E
0E
ENDCHAR
STARTCHAR 0448
ENCODING 1096
SWIDTH 400 0
DWIDTH 12 0
BBX 10 15 1 0
BITMAP
CCC0
CCC0
CCC0
CCC0
CCC0
CCC0
CCC0
CCC0
CCC0
CCC0
CCC0
CCC0
CCC0
FFC0
FFC0
ENDCHAR
STARTCHAR 0449
ENCODING 1097
SWIDTH 433 0
DWIDTH 13 0
BBX 11 19 1 -4
BITMAP
CCC0
CCC0
CCC0
CCC0
CCC0
CCC0
CCC0
CCC0
CCC0
CCC0
CCC0
CCC0
CCC0
FFE0
FFE0
0020
0020
0020
0020
ENDCHAR
STARTCHAR 044A
ENCODING 1098
SWIDTH 333 0
DWIDTH 10 0
BBX 9 15 0 0
BITMAP
F800
F800
3800
3800
3800
3800
3F00
3F80
3980
3980
3980
3980
3980
3F80
3F00
ENDCHAR
STARTCHAR 044B
ENCODING 1099
SWIDTH 366 0
DWIDTH 11 0
BBX 9 15 1 0
BITMAP
C180
C180
C180
C180
C180
C180
FD80
FD80
CD80
CD80
CD80
CD80
CD80
FD80
FD80
ENDCHAR
STARTCHAR 044C
ENCODING 1100
SWIDTH 266 0
DWIDTH 8 0
BBX 6 15 1 0
BITMAP
C0
C0
C0
C0
C0
C0
FC
FC
CC
CC
CC
CC
CC
FC
FC
ENDCHAR
STARTCHAR 044D
ENCODING 1101
SWIDTH 266 0
DWIDTH 8 0
BBX 6 15 1 0
BITMAP
78
FC
CC
CC
0C
0C
3C
3C
0C
0C
CC
CC
CC
FC
78
ENDCHAR
STARTCHAR 044E
ENCODING 1102
SWIDTH 400 0
DWIDTH 12 0
BBX 10 15 1 0
BITMAP
C780
CFC0
DCC0
D8C0
D8C0
D8C0
F8C0
F8C0
D8C0
D8C0
D8C0
D8C0
CCC0
CFC0
C780
ENDCHAR
STARTCHAR 044F
ENCODING 1103
SWIDTH 266 0
DWIDTH 8 0
BBX 7 15 0 0
BITMAP
7E
7E
66
66
66
66
66
7E
7E
36
76
66
66
66
E6
ENDCHAR
STARTCHAR 0450
ENCODING 1104
SWIDTH 266 0
DWIDTH 8 0
BBX 6 21 1 0
BITMAP
40
C0
60
30
18
00
78
FC
CC
CC
CC
CC
FC
FC
C0
C0
CC
CC
CC
FC
78
ENDCHAR
STARTCHAR 0451
ENCODING 1105
SWIDTH 266 0
DWIDTH 8 0
BBX 6 20 1 0
BITMAP
CC
CC
CC
00
00
78
FC
CC
CC
CC
CC
FC
FC
C0
C0
CC
CC
CC
FC
78
ENDCHAR
STARTCHAR 0452
ENCODING 1106
SWIDTH 266 0
DWIDTH 8 0
BBX 8 27 0 -7
BITMAP
60
F8
F8
60
60
6E
7E
67
67
67
67
67
67
67
67
67
67
67
67
67
07
67
67
67
67
7E
3C
ENDCHAR
STARTCHAR 0453
ENCODING 1107
SWIDTH 166 0
DWIDTH 5 0
BBX 4 21 1 0
BITMAP
10
30
30
60
C0
00
F0
F0
C0
C0
C0
C0
C0
C0
C0
C0
C0
C0
C0
C0
C0
ENDCHAR
STARTCHAR 0454
ENCODING 1108
SWIDTH 266 0
DWIDTH 8 0
BBX 6 15 1 0
BITMAP
78
FC
CC
CC
C0
C0
F0
F0
C0
C0
CC
CC
CC
FC
78
ENDCHAR
STARTCHAR 0455
ENCODING 1109
SWIDTH 266 0
DWIDTH 8 0
BBX 6 15 1 0
BITMAP
78
FC
CC
CC
CC
C0
E0
78
1C
0C
CC
CC
CC
FC
78
ENDCHAR
STARTCHAR 0456
ENCODING 1110
SWIDTH 100 0
DWIDTH 3 0
BBX 2 19 1 0
BITMAP
C0
C0
C0
00
C0
C0
C0
C0
C0
C0
C0
C0
C0
C0
C0
C0
C0
C0
C0
ENDCHAR
STARTCHAR 0457
ENCODING 1111
SWIDTH 166 0
DWIDTH 5 0
BBX 5 19 0 0
BITMAP
D8
D8
D8
00
60
60
60
60
60
60
60
60
60
60
60
60
60
60
60
ENDCHAR
STARTCHAR 0458
ENCODING 1112
SWIDTH 133 0
DWIDTH 4 0
BBX 7 27 -4 -7
BITMAP
06
06
06
00
00
06
06
06
06
06
06
06
06
06
06
06
06
06
06
06
06
C6
C6
C6
E6
7E
3C
ENDCHAR
STARTCHAR 0459
ENCODING 1113
SWIDTH 433 0
DWIDTH 13 0
BBX 13 15 0 0
BITMAP
3F00
3F00
3300
3300
3300
3300
33F0
33F8
2318
2318
2318
2318
6318
E3F8
C3F0
ENDCHAR
STARTCHAR 045A
ENCODING 1114
SWIDTH 433 0
DWIDTH 13 0
BBX 11 15 1 0
BITMAP
CE00
CE00
CE00
CE00
CE00
CE00
FFC0
FFE0
CE60
CE60
CE60
CE60
CE60
CFE0
CFC0
ENDCHAR
STARTCHAR 045B
ENCODING 1115
SWIDTH 266 0
DWIDTH 8 0
BBX 8 20 0 0
BITMAP
60
F8
F8
60
60
6E
7E
67
67
67
67
67
67
67
67
67
67
67
67
67
ENDCHAR
STARTCHAR 045C
ENCODING 1116
SWIDTH 266 0
DWIDTH 8 0
BBX 7 21 1 0
BITMAP
08
0C
18
30
60
00
CE
CC
DC
DC
D8
F8
F0
F8
F8
D8
DC
CC
CC
CC
CE
ENDCHAR
STARTCHAR 045D
ENCODING 1117
SWIDTH 266 0
DWIDTH 8 0
BBX 7 21 1 0
BITMAP
40
60
70
30
18
00
CE
CE
CE
CE
DE
DE
D6
F6
F6
E6
E6
E6
E6
C6
C6
ENDCHAR
STARTCHAR 045E
ENCODING 1118
SWIDTH 266 0
DWIDTH 8 0
BBX 7 27 1 -7
BITMAP
C4
CC
CC
7C
38
CE
CE
CE
CE
CE
CE
CE
CE
CE
CE
CE
CE
CE
FE
FE
0E
CE
CE
CE
CC
FC
78
ENDCHAR
STARTCHAR 045F
ENCODING 1119
SWIDTH 266 0
DWIDTH 8 0
BBX 7 19 1 -4
BITMAP
CE
CE
CE
CE
CE
CE
CE
CE
CE
CE
CE
CE
CE
FE
FE
30
30
30
30
ENDCHAR
STARTCHAR 0490
ENCODING 1168
SWIDTH 233 0
DWIDTH 7 0
BBX 5 25 1 0
BITMAP
08
08
08
08
08
F8
F8
C0
C0
C0
C0
C0
C0
C0
C0
C0
C0
C0
C0
C0
C0
C0
C0
C0
C0
ENDCHAR
STARTCHAR 0491
ENCODING 1169
SWIDTH 166 0
DWIDTH 5 0
BBX 4 19 1 0
BITMAP
30
30
30
30
F0
F0
C0
C0
C0
C0
C0
C0
C0
C0
C0
C0
C0
C0
C0
ENDCHAR
STARTCHAR 0492
ENCODING 1170
SWIDTH 233 0
DWIDTH 7 0
BBX 7 20 0 0
BITMAP
7E
7E
60
60
60
60
60
60
60
F8
F8
60
60
60
60
60
60
60
60
60
ENDCHAR
STARTCHAR 0493
ENCODING 1171
SWIDTH 200 0
DWIDTH 6 0
BBX 5 15 0 0
BITMAP
78
78
60
60
60
60
60
F8
F8
60
60
60
60
60
60
ENDCHAR
STARTCHAR 0496
ENCODING 1174
SWIDTH 466 0
DWIDTH 14 0
BBX 14 24 0 -4
BITMAP
E738
6730
6730
7770
3760
3760
3FE0
1FC0
1FC0
1FC0
1FC0
1FC0
1FC0
3FE0
3760
3760
7770
6730
673C
E73C
000C
000C
000C
000C
ENDCHAR
STARTCHAR 0497
ENCODING 1175
SWIDTH 433 0
DWIDTH 13 0
BBX 13 19 0 -4
BITMAP
E670
6660
7660
36C0
36C0
3FC0
1F80
1F80
1F80
3EC0
36C0
36E0
6660
6678
E678
0018
0018
0018
0018
ENDCHAR
STARTCHAR 0498
ENCODING 1176
SWIDTH 266 0
DWIDTH 8 0
BBX 7 27 1 -7
BITMAP
78
FC
CC
CC
CC
CC
0C
0C
0C
3C
3C
0C
0E
0E
0E
CE
CE
CE
FC
FC
30
10
18
18
18
78
70
ENDCHAR
STARTCHAR 0499
ENCODING 1177
SWIDTH 266 0
DWIDTH 8 0
BBX 6 22 1 -7
BITMAP
78
FC
CC
CC
0C
0C
38
3C
0C
0C
CC
CC
CC
FC
F8
30
10
18
18
18
78
70
ENDCHAR
STARTCHAR 049A
ENCODING 1178
SWIDTH 333 0
DWIDTH 10 0
BBX 8 24 1 -4
BITMAP
C6
CE
CC
CC
DC
D8
D8
F8
F8
F8
F8
F8
D8
DC
CC
CC
CC
CC
CF
C7
01
01
01
01
ENDCHAR
STARTCHAR 049B
ENCODING 1179
SWIDTH 300 0
DWIDTH 9 0
BBX 8 19 1 -4
BITMAP
CE
CC
DC
DC
D8
F8
F0
F8
F8
D8
DC
CC
CC
CF
CF
03
03
03
03
ENDCHAR
STARTCHAR 04A0
ENCODING 1184
SWIDTH 400 0
DWIDTH 12 0
BBX 11 20 0 0
BITMAP
FC60
FC60
0CE0
0CC0
0CC0
0DC0
0D80
0D80
0F80
0F80
0F80
0FC0
0FC0
0CC0
0CC0
0CC0
0CE0
0C60
0C60
0C60
ENDCHAR
STARTCHAR 04A1
ENCODING 1185
SWIDTH 333 0
DWIDTH 10 0
BBX 10 15 0 0
BITMAP
F9C0
F980
1980
1B80
1B00
1F00
1F00
1F00
1F00
1F00
1B80
1980
1980
19C0
18C0
ENDCHAR
STARTCHAR 04A2
ENCODING 1186
SWIDTH 300 0
DWIDTH 9 0
BBX 8 24 1 -4
BITMAP
C6
C6
C6
C6
C6
C6
C6
C6
FE
FE
C6
C6
C6
C6
C6
C6
C6
C6
C7
C7
03
03
03
03
ENDCHAR
STARTCHAR 04A3
ENCODING 1187
SWIDTH 300 0
DWIDTH 9 0
BBX 8 19 1 -4
BITMAP
CE
CE
CE
CE
CE
CE
FE
FE
CE
CE
CE
CE
CE
CF
CF
03
03
03
03
ENDCHAR
STARTCHAR 04AA
ENCODING 1194
SWIDTH 266 0
DWIDTH 8 0
BBX 7 27 1 -7
BITMAP
78
FC
CC
CE
CE
CE
CE
C0
C0
C0
C0
C0
CE
CE
CE
CE
CE
CC
FC
F8
30
18
18
08
18
78
78
ENDCHAR
STARTCHAR 04AB
ENCODING 1195
SWIDTH 266 0
DWIDTH 8 0
BBX 6 22 1 -7
BITMAP
78
FC
CC
CC
CC
CC
C0
C0
C0
CC
CC
CC
CC
FC
F8
30
10
18
18
18
78
70
ENDCHAR
STARTCHAR 04AE
ENCODING 1198
SWIDTH 266 0
DWIDTH 8 0
BBX 8 20 0 0
BITMAP
E3
63
67
66
66
36
36
3C
3C
1C
1C
18
18
18
18
18
18
18
18
18
ENDCHAR
STARTCHAR 04AF
ENCODING 1199
SWIDTH 266 0
DWIDTH 8 0
BBX 7 22 0 -7
BITMAP
C6
E6
66
66
66
66
64
6C
2C
3C
3C
3C
3C
38
18
18
18
18
18
18
18
18
ENDCHAR
STARTCHAR 04B2
ENCODING 1202
SWIDTH 333 0
DWIDTH 10 0
BBX 9 24 0 -4
BITMAP
E300
6300
6300
6700
7600
3600
3600
3C00
1C00
1C00
1C00
1C00
3E00
3600
3600
7600
6700
6300
6380
E380
0080
0080
0080
0080
ENDCHAR
STARTCHAR 04B3
ENCODING 1203
SWIDTH 300 0
DWIDTH 9 0
BBX 9 19 0 -4
BITMAP
E700
6600
6600
7600
3C00
3C00
3C00
1800
3C00
3C00
3C00
6600
6600
6780
E780
0180
0180
0180
0180
ENDCHAR
STARTCHAR 04B6
ENCODING 1206
SWIDTH 300 0
DWIDTH 9 0
BBX 8 24 1 -4
BITMAP
CE
CE
CE
CE
CE
CE
CE
CE
CE
FE
FE
0E
0E
0E
0E
0E
0E
0E
0F
0F
03
03
03
03
ENDCHAR
STARTCHAR 04B7
ENCODING 1207
SWIDTH 300 0
DWIDTH 9 0
BBX 8 19 1 -4
BITMAP
CE
CE
CE
CE
CE
CE
CE
FE
FE
0E
0E
0E
0E
0F
0F
03
03
03
03
ENDCHAR
STARTCHAR 04BA
ENCODING 1210
SWIDTH 266 0
DWIDTH 8 0
BBX 7 20 1 0
BITMAP
C0
C0
C0
C0
C0
C0
C0
C0
FC
FC
CE
C6
C6
C6
C6
C6
C6
C6
C6
C6
ENDCHAR
STARTCHAR 04BB
ENCODING 1211
SWIDTH 266 0
DWIDTH 8 0
BBX 7 20 1 0
BITMAP
C0
C0
C0
C0
C0
DC
FC
CE
CE
CE
CE
CE
CE
CE
CE
CE
CE
CE
CE
CE
ENDCHAR
STARTCHAR 04C0
ENCODING 1216
SWIDTH 100 0
DWIDTH 3 0
BBX 2 20 1 0
BITMAP
C0
C0
C0
C0
C0
C0
C0
C0
C0
C0
C0
C0
C0
C0
C0
C0
C0
C0
C0
C0
ENDCHAR
STARTCHAR 04C3
ENCODING 1219
SWIDTH 266 0
DWIDTH 8 0
BBX 7 27 1 -7
BITMAP
C6
CE
CC
CC
DC
D8
D8
F8
F8
F8
F8
F8
D8
DC
CC
CC
CC
CE
CE
C6
06
06
06
06
06
0E
0C
ENDCHAR
STARTCHAR 04C4
ENCODING 1220
SWIDTH 266 0
DWIDTH 8 0
BBX 7 22 1 -7
BITMAP
CE
CC
DC
DC
D8
F8
F0
F8
F8
D8
DC
CC
CC
CC
CE
06
06
06
06
0E
1E
1C
ENDCHAR
STARTCHAR 04C7
ENCODING 1223
SWIDTH 266 0
DWIDTH 8 0
BBX 7 27 1 -7
BITMAP
C6
C6
C6
C6
C6
C6
C6
C6
FE
FE
C6
C6
C6
C6
C6
C6
C6
C6
C6
C6
06
06
06
06
0E
1C
18
ENDCHAR
STARTCHAR 04C8
ENCODING 1224
SWIDTH 266 0
DWIDTH 8 0
BBX 7 22 1 -7
BITMAP
CE
CE
CE
CE
CE
CE
FE
FE
CE
CE
CE
CE
CE
CE
CE
0E
0E
0E
0E
0E
1C
18
ENDCHAR
STARTCHAR 04CF
ENCODING 1231
SWIDTH 100 0
DWIDTH 3 0
BBX 2 20 1 0
BITMAP
C0
C0
C0
C0
C0
C0
C0
C0
C0
C0
C0
C0
C0
C0
C0
C0
C0
C0
C0
C0
ENDCHAR
STARTCHAR 04D8
ENCODING 1240
SWIDTH 266 0
DWIDTH 8 0
BBX 6 15 1 0
BITMAP
78
FC
CC
CC
CC
0C
0C
FC
FC
CC
CC
CC
CC
FC
78
ENDCHAR
STARTCHAR 04D9
ENCODING 1241
SWIDTH 266 0
DWIDTH 8 0
BBX 6 15 1 0
BITMAP
78
FC
CC
CC
CC
0C
0C
FC
FC
CC
CC
CC
CC
FC
78
ENDCHAR
STARTCHAR 04E8
ENCODING 1256
SWIDTH 266 0
DWIDTH 8 0
BBX 8 20 0 0
BITMAP
3C
7E
66
E7
E7
E7
E7
E7
FF
FF
E7
E7
E7
E7
E7
E7
E7
67
7E
3C
ENDCHAR
STARTCHAR 04E9
ENCODING 1257
SWIDTH 266 0
DWIDTH 8 0
BBX 6 15 1 0
BITMAP
78
FC
CC
CC
CC
CC
FC
FC
CC
CC
CC
CC
CC
FC
78
ENDCHAR
STARTCHAR 04EE
ENCODING 1262
SWIDTH 266 0
DWIDTH 8 0
BBX 7 24 1 0
BITMAP
FC
FC
00
00
CE
CE
CE
CE
CE
CE
CE
CE
CE
CE
FE
FE
0E
CE
CE
CE
CE
CE
FC
78
ENDCHAR
STARTCHAR 04EF
ENCODING 1263
SWIDTH 266 0
DWIDTH 8 0
BBX 7 26 1 -7
BITMAP
FC
FC
00
00
CE
CE
CE
CE
CE
CE
CE
CE
CE
CE
CE
CE
CE
FE
FE
0E
CE
CE
CE
CC
FC
78
ENDCHAR
STARTCHAR 0512
ENCODING 1298
SWIDTH 300 0
DWIDTH 9 0
BBX 9 27 0 -7
BITMAP
3F80
3F80
3380
3380
3380
3380
3380
3380
3380
3380
3380
3380
3380
3380
3380
3380
2380
6380
E380
C380
0380
0380
0380
0380
0380
0700
0600
ENDCHAR
STARTCHAR 0513
ENCODING 1299
SWIDTH 300 0
DWIDTH 9 0
BBX 8 22 0 -7
BITMAP
3F
3F
33
33
33
33
33
33
23
23
23
23
63
E3
C3
03
03
03
03
03
07
06
ENDCHAR
STARTCHAR 058F
ENCODING 1423
SWIDTH 300 0
DWIDTH 9 0
BBX 8 20 0 0
BITMAP
3C
7E
E6
E6
E6
E6
E6
E6
06
06
3F
06
06
06
3F
06
06
06
06
06
ENDCHAR
STARTCHAR 1E0C
ENCODING 7692
SWIDTH 266 0
DWIDTH 8 0
BBX 7 24 1 -4
BITMAP
F8
FC
CE
CE
CE
CE
CE
CE
CE
CE
CE
CE
CE
CE
CE
CE
CE
CE
FC
F8
00
30
30
30
ENDCHAR
STARTCHAR 1E0D
ENCODING 7693
SWIDTH 266 0
DWIDTH 8 0
BBX 7 25 1 -4
BITMAP
0E
0E
0E
0E
0E
0E
7E
FE
CE
CE
CE
CE
CE
CE
CE
CE
CE
CE
CE
F6
76
00
30
30
30
ENDCHAR
STARTCHAR 1E12
ENCODING 7698
SWIDTH 266 0
DWIDTH 8 0
BBX 7 26 1 -6
BITMAP
F8
FC
CE
CE
CE
CE
CE
CE
CE
CE
CE
CE
CE
CE
CE
CE
CE
CE
FC
F8
00
00
70
50
D8
8C
ENDCHAR
STARTCHAR 1E13
ENCODING 7699
SWIDTH 266 0
DWIDTH 8 0
BBX 7 27 1 -6
BITMAP
0E
0E
0E
0E
0E
0E
7E
FE
CE
CE
CE
CE
CE
CE
CE
CE
CE
CE
CE
F6
76
00
00
30
78
C8
84
ENDCHAR
STARTCHAR 1E24
ENCODING 7716
SWIDTH 266 0
DWIDTH 8 0
BBX 7 24 1 -4
BITMAP
C6
C6
C6
C6
C6
C6
C6
C6
FE
FE
C6
C6
C6
C6
C6
C6
C6
C6
C6
C6
00
30
30
30
ENDCHAR
STARTCHAR 1E25
ENCODING 7717
SWIDTH 266 0
DWIDTH 8 0
BBX 7 25 1 -4
BITMAP
C0
C0
C0
C0
C0
C0
DC
FC
CE
CE
CE
CE
CE
CE
CE
CE
CE
CE
CE
CE
CE
00
30
30
30
ENDCHAR
STARTCHAR 1E3C
ENCODING 7740
SWIDTH 233 0
DWIDTH 7 0
BBX 6 26 0 -6
BITMAP
60
60
60
60
60
60
60
60
60
60
60
60
60
60
60
60
60
60
7C
7C
00
00
38
28
6C
C4
ENDCHAR
STARTCHAR 1E3D
ENCODING 7741
SWIDTH 133 0
DWIDTH 4 0
BBX 6 27 -1 -6
BITMAP
30
30
30
30
30
30
30
30
30
30
30
30
30
30
30
30
30
30
30
30
30
00
00
70
78
C8
8C
ENDCHAR
STARTCHAR 1E44
ENCODING 7748
SWIDTH 300 0
DWIDTH 9 0
BBX 7 25 1 0
BITMAP
30
30
30
00
00
E6
E6
E6
E6
A6
B6
B6
F6
F6
D6
D6
DE
DE
DE
DE
CE
CE
CE
CE
CE
ENDCHAR
STARTCHAR 1E45
ENCODING 7749
SWIDTH 266 0
DWIDTH 8 0
BBX 7 19 1 0
BITMAP
30
30
30
00
DC
FC
CE
CE
CE
CE
CE
CE
CE
CE
CE
CE
CE
CE
CE
ENDCHAR
STARTCHAR 1E4A
ENCODING 7754
SWIDTH 300 0
DWIDTH 9 0
BBX 7 26 1 -6
BITMAP
E6
E6
E6
E6
A6
B6
B6
F6
F6
D6
D6
DE
DE
DE
DE
CE
CE
CE
CE
CE
00
00
38
78
4C
C4
ENDCHAR
STARTCHAR 1E4B
ENCODING 7755
SWIDTH 266 0
DWIDTH 8 0
BBX 7 21 1 -6
BITMAP
DC
FC
CE
CE
CE
CE
CE
CE
CE
CE
CE
CE
CE
CE
CE
00
00
30
78
4C
84
ENDCHAR
STARTCHAR 1E5A
ENCODING 7770
SWIDTH 266 0
DWIDTH 8 0
BBX 7 24 1 -4
BITMAP
FC
FC
CE
CE
CE
CE
CE
CE
CE
FC
FC
CE
CE
CE
CE
CE
CE
CE
CE
CE
00
30
30
30
ENDCHAR
STARTCHAR 1E5B
ENCODING 7771
SWIDTH 200 0
DWIDTH 6 0
BBX 5 19 1 -4
BITMAP
D8
F8
E0
C0
C0
C0
C0
C0
C0
C0
C0
C0
C0
C0
C0
00
C0
C0
C0
ENDCHAR
STARTCHAR 1E62
ENCODING 7778
SWIDTH 266 0
DWIDTH 8 0
BBX 8 24 0 -4
BITMAP
3C
7E
67
63
63
63
60
70
78
3C
0E
07
07
03
E3
E3
E3
67
7E
3E
00
18
18
18
ENDCHAR
STARTCHAR 1E63
ENCODING 7779
SWIDTH 266 0
DWIDTH 8 0
BBX 6 19 1 -4
BITMAP
78
FC
CC
CC
CC
C0
E0
78
1C
0C
CC
CC
CC
FC
78
00
30
30
30
ENDCHAR
STARTCHAR 1E6C
ENCODING 7788
SWIDTH 266 0
DWIDTH 8 0
BBX 8 24 0 -4
BITMAP
FF
FF
18
18
18
18
18
18
18
18
18
18
18
18
18
18
18
18
18
18
00
18
18
18
ENDCHAR
STARTCHAR 1E6D
ENCODING 7789
SWIDTH 266 0
DWIDTH 8 0
BBX 6 23 1 -4
BITMAP
C0
C0
C0
C0
FC
FC
C0
C0
C0
C0
CC
CC
CC
CC
CC
CC
CC
FC
78
00
30
30
30
ENDCHAR
STARTCHAR 1E80
ENCODING 7808
SWIDTH 400 0
DWIDTH 12 0
BBX 12 25 0 0
BITMAP
0800
1C00
0600
0300
0100
C630
E730
E730
E730
6F30
6F30
6F70
6F60
6D60
6D60
6D60
6D60
69E0
69E0
69E0
69E0
39E0
39E0
39E0
39C0
ENDCHAR
STARTCHAR 1E81
ENCODING 7809
SWIDTH 366 0
DWIDTH 11 0
BBX 11 21 0 0
BITMAP
0800
1800
0C00
0600
0200
0000
CE60
CE60
CE60
6E60
6A60
6A60
6AC0
6BC0
6BC0
7BC0
7BC0
7BC0
79C0
39C0
31C0
ENDCHAR
STARTCHAR 1E82
ENCODING 7810
SWIDTH 400 0
DWIDTH 12 0
BBX 12 25 0 0
BITMAP
0100
0380
0300
0E00
0400
C630
E730
E730
E730
6F30
6F30
6F70
6F60
6D60
6D60
6D60
6D60
69E0
69E0
69E0
69E0
39E0
39E0
39E0
39C0
ENDCHAR
STARTCHAR 1E83
ENCODING 7811
SWIDTH 366 0
DWIDTH 11 0
BBX 11 21 0 0
BITMAP
0100
0300
0600
0400
0800
0000
CE60
CE60
CE60
6E60
6A60
6A60
6AC0
6BC0
6BC0
7BC0
7BC0
7BC0
79C0
39C0
31C0
ENDCHAR
STARTCHAR 1E84
ENCODING 7812
SWIDTH 400 0
DWIDTH 12 0
BBX 12 25 0 0
BITMAP
1980
1980
1980
0000
0000
C630
E730
E730
E730
6F30
6F30
6F70
6F60
6D60
6D60
6D60
6D60
69E0
69E0
69E0
69E0
39E0
39E0
39E0
39C0
ENDCHAR
STARTCHAR 1E85
ENCODING 7813
SWIDTH 366 0
DWIDTH 11 0
BBX 11 19 0 0
BITMAP
1B00
1B00
1B00
0000
CE60
CE60
CE60
6E60
6A60
6A60
6AC0
6BC0
6BC0
7BC0
7BC0
7BC0
79C0
39C0
31C0
ENDCHAR
STARTCHAR 1E92
ENCODING 7826
SWIDTH 266 0
DWIDTH 8 0
BBX 7 24 0 -4
BITMAP
FE
FE
06
0E
0C
0C
0C
1C
18
18
38
30
30
30
70
60
60
60
FE
FE
00
18
18
18
ENDCHAR
STARTCHAR 1E93
ENCODING 7827
SWIDTH 233 0
DWIDTH 7 0
BBX 6 19 0 -4
BITMAP
FC
FC
0C
0C
1C
18
18
38
30
30
70
60
60
FC
FC
00
38
38
38
ENDCHAR
STARTCHAR 1E9E
ENCODING 7838
SWIDTH 300 0
DWIDTH 9 0
BBX 8 20 1 0
BITMAP
7E
FE
C6
C6
CC
CC
CC
D8
DE
D7
C7
C7
C7
C7
C7
C7
C7
C7
DE
DE
ENDCHAR
STARTCHAR 1EA0
ENCODING 7840
SWIDTH 266 0
DWIDTH 8 0
BBX 8 24 0 -4
BITMAP
3C
3C
3C
3C
3C
3C
3E
36
36
76
66
66
66
7E
7E
67
63
E3
E3
C3
00
18
18
18
ENDCHAR
STARTCHAR 1EA1
ENCODING 7841
SWIDTH 266 0
DWIDTH 8 0
BBX 7 19 0 -4
BITMAP
3C
7E
66
66
66
06
1E
76
66
E6
E6
E6
E6
7E
76
00
18
18
18
ENDCHAR
STARTCHAR 1EA2
ENCODING 7842
SWIDTH 266 0
DWIDTH 8 0
BBX 8 25 0 0
BITMAP
1C
14
04
08
00
3C
3C
3C
3C
3C
3C
3E
36
36
76
66
66
66
7E
7E
67
63
E3
E3
C3
ENDCHAR
STARTCHAR 1EA3
ENCODING 7843
SWIDTH 266 0
DWIDTH 8 0
BBX 7 20 0 0
BITMAP
18
3C
04
18
00
3C
7E
66
66
66
06
1E
76
66
E6
E6
E6
E6
7E
76
ENDCHAR
STARTCHAR 1EA4
ENCODING 7844
SWIDTH 266 0
DWIDTH 8 0
BBX 10 27 0 0
BITMAP
00C0
0180
1B00
1E00
3400
6600
2200
3C00
3C00
3C00
3C00
3C00
3C00
3E00
3600
3600
7600
6600
6600
6600
7E00
7E00
6700
6300
E300
E300
C300
ENDCHAR
STARTCHAR 1EA5
ENCODING 7845
SWIDTH 266 0
DWIDTH 8 0
BBX 10 22 0 0
BITMAP
00C0
0180
1B00
3E00
3400
6600
0000
3C00
7E00
6600
6600
6600
0600
1E00
7600
6600
E600
E600
E600
E600
7E00
7600
ENDCHAR
STARTCHAR 1EA6
ENCODING 7846
SWIDTH 266 0
DWIDTH 8 0
BBX 9 27 0 0
BITMAP
0600
0700
1B80
3D00
3400
6600
4200
3C00
3C00
3C00
3C00
3C00
3C00
3E00
3600
3600
7600
6600
6600
6600
7E00
7E00
6700
6300
E300
E300
C300
ENDCHAR
STARTCHAR 1EA7
ENCODING 7847
SWIDTH 266 0
DWIDTH 8 0
BBX 9 22 0 0
BITMAP
0600
0600
1B80
3D00
2C00
6600
0000
3C00
7E00
6600
6600
6600
0600
1E00
7600
6600
E600
E600
E600
E600
7E00
7600
ENDCHAR
STARTCHAR 1EA8
ENCODING 7848
SWIDTH 266 0
DWIDTH 8 0
BBX 9 27 0 0
BITMAP
0380
0280
0080
1D00
3400
6600
2200
3C00
3C00
3C00
3C00
3C00
3C00
3E00
3600
3600
7600
6600
6600
6600
7E00
7E00
6700
6300
E300
E300
C300
ENDCHAR
STARTCHAR 1EA9
ENCODING 7849
SWIDTH 266 0
DWIDTH 8 0
BBX 9 22 0 0
BITMAP
0700
0480
1980
3B00
6C00
4600
0000
3C00
7E00
6600
6600
6600
0600
1E00
7600
6600
E600
E600
E600
E600
7E00
7600
ENDCHAR
STARTCHAR 1EAA
ENCODING 7850
SWIDTH 266 0
DWIDTH 8 0
BBX 8 27 0 0
BITMAP
32
4E
00
1C
3C
66
42
3C
3C
3C
3C
3C
3C
3E
36
36
76
66
66
66
7E
7E
67
63
E3
E3
C3
ENDCHAR
STARTCHAR 1EAB
ENCODING 7851
SWIDTH 266 0
DWIDTH 8 0
BBX 7 22 0 0
BITMAP
72
4E
00
38
2C
66
00
3C
7E
66
66
66
06
1E
76
66
E6
E6
E6
E6
7E
76
ENDCHAR
STARTCHAR 1EAC
ENCODING 7852
SWIDTH 266 0
DWIDTH 8 0
BBX 8 29 0 -4
BITMAP
18
3C
34
66
22
3C
3C
3C
3C
3C
3C
3E
36
36
76
66
66
66
7E
7E
67
63
E3
E3
C3
00
18
18
18
ENDCHAR
STARTCHAR 1EAD
ENCODING 7853
SWIDTH 266 0
DWIDTH 8 0
BBX 7 24 0 -4
BITMAP
18
3C
64
66
00
3C
7E
66
66
66
06
1E
76
66
E6
E6
E6
E6
7E
76
00
18
18
18
ENDCHAR
STARTCHAR 1EAE
ENCODING 7854
SWIDTH 266 0
DWIDTH 8 0
BBX 8 27 0 0
BITMAP
06
0E
08
72
66
3C
00
3C
3C
3C
3C
3C
3C
3E
36
36
76
66
66
66
7E
7E
67
63
E3
E3
C3
ENDCHAR
STARTCHAR 1EAF
ENCODING 7855
SWIDTH 266 0
DWIDTH 8 0
BBX 7 22 0 0
BITMAP
06
0C
18
76
66
3C
00
3C
7E
66
66
66
06
1E
76
66
E6
E6
E6
E6
7E
76
ENDCHAR
STARTCHAR 1EB0
ENCODING 7856
SWIDTH 266 0
DWIDTH 8 0
BBX 8 27 0 0
BITMAP
20
70
18
6E
66
3C
00
3C
3C
3C
3C
3C
3C
3E
36
36
76
66
66
66
7E
7E
67
63
E3
E3
C3
ENDCHAR
STARTCHAR 1EB1
ENCODING 7857
SWIDTH 266 0
DWIDTH 8 0
BBX 7 22 0 0
BITMAP
20
70
18
6E
66
3C
00
3C
7E
66
66
66
06
1E
76
66
E6
E6
E6
E6
7E
76
ENDCHAR
STARTCHAR 1EB2
ENCODING 7858
SWIDTH 266 0
DWIDTH 8 0
BBX 8 27 0 0
BITMAP
18
24
08
72
66
3C
00
3C
3C
3C
3C
3C
3C
3E
36
36
76
66
66
66
7E
7E
67
63
E3
E3
C3
ENDCHAR
STARTCHAR 1EB3
ENCODING 7859
SWIDTH 266 0
DWIDTH 8 0
BBX 7 22 0 0
BITMAP
38
2C
08
76
66
3C
00
3C
7E
66
66
66
06
1E
76
66
E6
E6
E6
E6
7E
76
ENDCHAR
STARTCHAR 1EB4
ENCODING 7860
SWIDTH 266 0
DWIDTH 8 0
BBX 8 27 0 0
BITMAP
72
4E
00
62
66
3C
00
3C
3C
3C
3C
3C
3C
3E
36
36
76
66
66
66
7E
7E
67
63
E3
E3
C3
ENDCHAR
STARTCHAR 1EB5
ENCODING 7861
SWIDTH 266 0
DWIDTH 8 0
BBX 7 22 0 0
BITMAP
72
4E
00
46
66
3C
00
3C
7E
66
66
66
06
1E
76
66
E6
E6
E6
E6
7E
76
ENDCHAR
STARTCHAR 1EB6
ENCODING 7862
SWIDTH 266 0
DWIDTH 8 0
BBX 8 29 0 -4
BITMAP
62
66
66
3E
1C
3C
3C
3C
3C
3C
3C
3E
36
36
76
66
66
66
7E
7E
67
63
E3
E3
C3
00
18
18
18
ENDCHAR
STARTCHAR 1EB7
ENCODING 7863
SWIDTH 266 0
DWIDTH 8 0
BBX 7 24 0 -4
BITMAP
46
46
66
7C
38
3C
7E
66
66
66
06
1E
76
66
E6
E6
E6
E6
7E
76
00
18
18
18
ENDCHAR
STARTCHAR 1EB8
ENCODING 7864
SWIDTH 233 0
DWIDTH 7 0
BBX 5 24 1 -4
BITMAP
F8
F8
C0
C0
C0
C0
C0
C0
F8
F8
C0
C0
C0
C0
C0
C0
C0
C0
F8
F8
00
60
60
60
ENDCHAR
STARTCHAR 1EB9
ENCODING 7865
SWIDTH 266 0
DWIDTH 8 0
BBX 6 19 1 -4
BITMAP
78
FC
CC
CC
CC
CC
FC
FC
C0
C0
CC
CC
CC
FC
78
00
30
30
30
ENDCHAR
STARTCHAR 1EBA
ENCODING 7866
SWIDTH 233 0
DWIDTH 7 0
BBX 5 25 1 0
BITMAP
70
50
10
30
00
F8
F8
C0
C0
C0
C0
C0
C0
F8
F8
C0
C0
C0
C0
C0
C0
C0
C0
F8
F8
ENDCHAR
STARTCHAR 1EBB
ENCODING 7867
SWIDTH 266 0
DWIDTH 8 0
BBX 6 20 1 0
BITMAP
70
38
08
10
20
78
FC
CC
CC
CC
CC
FC
FC
C0
C0
CC
CC
CC
FC
78
ENDCHAR
STARTCHAR 1EBC
ENCODING 7868
SWIDTH 233 0
DWIDTH 7 0
BBX 6 23 0 0
BITMAP
64
9C
00
7C
7C
60
60
60
60
60
60
7C
7C
60
60
60
60
60
60
60
60
7C
7C
ENDCHAR
STARTCHAR 1EBD
ENCODING 7869
SWIDTH 266 0
DWIDTH 8 0
BBX 6 18 1 0
BITMAP
E4
9C
00
78
FC
CC
CC
CC
CC
FC
FC
C0
C0
CC
CC
CC
FC
78
ENDCHAR
STARTCHAR 1EBE
ENCODING 7870
SWIDTH 233 0
DWIDTH 7 0
BBX 9 27 0 0
BITMAP
0180
0300
3600
3A00
6C00
C400
4400
7C00
7C00
6000
6000
6000
6000
6000
6000
7C00
7C00
6000
6000
6000
6000
6000
6000
6000
6000
7C00
7C00
ENDCHAR
STARTCHAR 1EBF
ENCODING 7871
SWIDTH 266 0
DWIDTH 8 0
BBX 9 22 1 0
BITMAP
0180
0300
3600
7C00
6800
CC00
0000
7800
FC00
CC00
CC00
CC00
CC00
FC00
FC00
C000
C000
CC00
CC00
CC00
FC00
7800
ENDCHAR
STARTCHAR 1EC0
ENCODING 7872
SWIDTH 233 0
DWIDTH 7 0
BBX 8 27 0 0
BITMAP
0C
06
33
39
6C
C4
44
7C
7C
60
60
60
60
60
60
7C
7C
60
60
60
60
60
60
60
60
7C
7C
ENDCHAR
STARTCHAR 1EC1
ENCODING 7873
SWIDTH 266 0
DWIDTH 8 0
BBX 7 22 1 0
BITMAP
0C
0C
36
7A
58
CC
00
78
FC
CC
CC
CC
CC
FC
FC
C0
C0
CC
CC
CC
FC
78
ENDCHAR
STARTCHAR 1EC2
ENCODING 7874
SWIDTH 233 0
DWIDTH 7 0
BBX 8 27 0 0
BITMAP
07
05
01
3A
6C
C4
44
7C
7C
60
60
60
60
60
60
7C
7C
60
60
60
60
60
60
60
60
7C
7C
ENDCHAR
STARTCHAR 1EC3
ENCODING 7875
SWIDTH 266 0
DWIDTH 8 0
BBX 8 22 1 0
BITMAP
07
09
33
7E
58
CC
00
78
FC
CC
CC
CC
CC
FC
FC
C0
C0
CC
CC
CC
FC
78
ENDCHAR
STARTCHAR 1EC4
ENCODING 7876
SWIDTH 233 0
DWIDTH 7 0
BBX 7 27 0 0
BITMAP
66
DC
00
38
6C
C4
44
7C
7C
60
60
60
60
60
60
7C
7C
60
60
60
60
60
60
60
60
7C
7C
ENDCHAR
STARTCHAR 1EC5
ENCODING 7877
SWIDTH 266 0
DWIDTH 8 0
BBX 6 22 1 0
BITMAP
E4
9C
00
78
78
CC
00
78
FC
CC
CC
CC
CC
FC
FC
C0
C0
CC
CC
CC
FC
78
ENDCHAR
STARTCHAR 1EC6
ENCODING 7878
SWIDTH 233 0
DWIDTH 7 0
BBX 6 29 0 -4
BITMAP
38
38
6C
C4
44
7C
7C
60
60
60
60
60
60
7C
7C
60
60
60
60
60
60
60
60
7C
7C
00
38
38
38
ENDCHAR
STARTCHAR 1EC7
ENCODING 7879
SWIDTH 266 0
DWIDTH 8 0
BBX 6 24 1 -4
BITMAP
30
78
48
C4
00
78
FC
CC
CC
CC
CC
FC
FC
C0
C0
CC
CC
CC
FC
78
00
30
30
30
ENDCHAR
STARTCHAR 1EC8
ENCODING 7880
SWIDTH 133 0
DWIDTH 4 0
BBX 4 25 0 0
BITMAP
E0
B0
30
60
00
60
60
60
60
60
60
60
60
60
60
60
60
60
60
60
60
60
60
60
60
ENDCHAR
STARTCHAR 1EC9
ENCODING 7881
SWIDTH 133 0
DWIDTH 4 0
BBX 4 20 0 0
BITMAP
60
F0
20
60
00
60
60
60
60
60
60
60
60
60
60
60
60
60
60
60
ENDCHAR
STARTCHAR 1ECA
ENCODING 7882
SWIDTH 100 0
DWIDTH 3 0
BBX 2 24 1 -4
BITMAP
C0
C0
C0
C0
C0
C0
C0
C0
C0
C0
C0
C0
C0
C0
C0
C0
C0
C0
C0
C0
00
C0
C0
C0
ENDCHAR
STARTCHAR 1ECB
ENCODING 7883
SWIDTH 100 0
DWIDTH 3 0
BBX 2 23 1 -4
BITMAP
C0
C0
C0
00
C0
C0
C0
C0
C0
C0
C0
C0
C0
C0
C0
C0
C0
C0
C0
00
C0
C0
C0
ENDCHAR
STARTCHAR 1ECC
ENCODING 7884
SWIDTH 266 0
DWIDTH 8 0
BBX 8 24 0 -4
BITMAP
3C
7E
66
E7
E7
E7
E7
E7
E7
E7
E7
E7
E7
E7
E7
E7
E7
67
7E
3C
00
18
18
18
ENDCHAR
STARTCHAR 1ECD
ENCODING 7885
SWIDTH 266 0
DWIDTH 8 0
BBX 6 19 1 -4
BITMAP
78
FC
CC
CC
CC
CC
CC
CC
CC
CC
CC
CC
CC
FC
78
00
30
30
30
ENDCHAR
STARTCHAR 1ECE
ENCODING 7886
SWIDTH 266 0
DWIDTH 8 0
BBX 8 25 0 0
BITMAP
18
14
04
08
18
3C
7E
66
E7
E7
E7
E7
E7
E7
E7
E7
E7
E7
E7
E7
E7
E7
67
7E
3C
ENDCHAR
STARTCHAR 1ECF
ENCODING 7887
SWIDTH 266 0
DWIDTH 8 0
BBX 6 20 1 0
BITMAP
70
38
08
10
20
78
FC
CC
CC
CC
CC
CC
CC
CC
CC
CC
CC
CC
FC
78
ENDCHAR
STARTCHAR 1ED0
ENCODING 7888
SWIDTH 266 0
DWIDTH 8 0
BBX 10 27 0 0
BITMAP
00C0
0180
1B00
1E00
3400
6600
2200
3C00
7E00
6600
E700
E700
E700
E700
E700
E700
E700
E700
E700
E700
E700
E700
E700
E700
6700
7E00
3C00
ENDCHAR
STARTCHAR 1ED1
ENCODING 7889
SWIDTH 266 0
DWIDTH 8 0
BBX 9 22 1 0
BITMAP
0180
0300
3600
7C00
4800
CC00
0000
7800
FC00
CC00
CC00
CC00
CC00
CC00
CC00
CC00
CC00
CC00
CC00
CC00
FC00
7800
ENDCHAR
STARTCHAR 1ED2
ENCODING 7890
SWIDTH 266 0
DWIDTH 8 0
BBX 9 27 0 0
BITMAP
0600
0700
1980
1D00
3400
6600
4200
3C00
7E00
6600
E700
E700
E700
E700
E700
E700
E700
E700
E700
E700
E700
E700
E700
E700
6700
7E00
3C00
ENDCHAR
STARTCHAR 1ED3
ENCODING 7891
SWIDTH 266 0
DWIDTH 8 0
BBX 8 22 1 0
BITMAP
0C
0C
37
7A
48
CC
00
78
FC
CC
CC
CC
CC
CC
CC
CC
CC
CC
CC
CC
FC
78
ENDCHAR
STARTCHAR 1ED4
ENCODING 7892
SWIDTH 266 0
DWIDTH 8 0
BBX 9 27 0 0
BITMAP
0380
0280
0080
1D00
3C00
6600
4200
3C00
7E00
6600
E700
E700
E700
E700
E700
E700
E700
E700
E700
E700
E700
E700
E700
E700
6700
7E00
3C00
ENDCHAR
STARTCHAR 1ED5
ENCODING 7893
SWIDTH 266 0
DWIDTH 8 0
BBX 8 22 1 0
BITMAP
07
05
33
7E
48
CC
00
78
FC
CC
CC
CC
CC
CC
CC
CC
CC
CC
CC
CC
FC
78
ENDCHAR
STARTCHAR 1ED6
ENCODING 7894
SWIDTH 266 0
DWIDTH 8 0
BBX 8 27 0 0
BITMAP
32
4E
00
1C
3C
66
42
3C
7E
66
E7
E7
E7
E7
E7
E7
E7
E7
E7
E7
E7
E7
E7
E7
67
7E
3C
ENDCHAR
STARTCHAR 1ED7
ENCODING 7895
SWIDTH 266 0
DWIDTH 8 0
BBX 6 22 1 0
BITMAP
E4
9C
00
38
68
CC
00
78
FC
CC
CC
CC
CC
CC
CC
CC
CC
CC
CC
CC
FC
78
ENDCHAR
STARTCHAR 1ED8
ENCODING 7896
SWIDTH 266 0
DWIDTH 8 0
BBX 8 29 0 -4
BITMAP
18
3C
34
66
42
3C
7E
66
E7
E7
E7
E7
E7
E7
E7
E7
E7
E7
E7
E7
E7
E7
67
7E
3C
00
18
18
18
ENDCHAR
STARTCHAR 1ED9
ENCODING 7897
SWIDTH 266 0
DWIDTH 8 0
BBX 6 24 1 -4
BITMAP
30
78
48
C4
00
78
FC
CC
CC
CC
CC
CC
CC
CC
CC
CC
CC
CC
FC
78
00
30
30
30
ENDCHAR
STARTCHAR 1EDA
ENCODING 7898
SWIDTH 300 0
DWIDTH 9 0
BBX 9 26 0 0
BITMAP
0400
0E00
0C00
1880
3080
0080
3F80
7E00
6700
E700
E700
E700
E700
E700
E700
E700
E700
E700
E700
E700
E700
E700
E700
6700
7E00
3C00
ENDCHAR
STARTCHAR 1EDB
ENCODING 7899
SWIDTH 300 0
DWIDTH 9 0
BBX 8 21 1 0
BITMAP
08
0C
18
30
61
01
7F
FF
CC
CC
CC
CC
CC
CC
CC
CC
CC
CC
CC
FC
78
ENDCHAR
STARTCHAR 1EDC
ENCODING 7900
SWIDTH 300 0
DWIDTH 9 0
BBX 9 26 0 0
BITMAP
2000
7000
3000
1880
0C80
0480
3F80
7E00
6700
E700
E700
E700
E700
E700
E700
E700
E700
E700
E700
E700
E700
E700
E700
6700
7E00
3C00
ENDCHAR
STARTCHAR 1EDD
ENCODING 7901
SWIDTH 300 0
DWIDTH 9 0
BBX 8 21 1 0
BITMAP
40
C0
60
30
19
01
7F
FF
CC
CC
CC
CC
CC
CC
CC
CC
CC
CC
CC
FC
78
ENDCHAR
STARTCHAR 1EDE
ENCODING 7902
SWIDTH 300 0
DWIDTH 9 0
BBX 9 25 0 0
BITMAP
1800
2400
0C80
0880
1080
3F80
7E00
6700
E700
E700
E700
E700
E700
E700
E700
E700
E700
E700
E700
E700
E700
E700
6700
7E00
3C00
ENDCHAR
STARTCHAR 1EDF
ENCODING 7903
SWIDTH 300 0
DWIDTH 9 0
BBX 8 20 1 0
BITMAP
38
38
08
11
21
7F
FF
CC
CC
CC
CC
CC
CC
CC
CC
CC
CC
CC
FC
78
ENDCHAR
STARTCHAR 1EE0
ENCODING 7904
SWIDTH 300 0
DWIDTH 9 0
BBX 9 23 0 0
BITMAP
7E80
4E80
0080
3F80
7E00
6700
E700
E700
E700
E700
E700
E700
E700
E700
E700
E700
E700
E700
E700
E700
6700
7E00
3C00
ENDCHAR
STARTCHAR 1EE1
ENCODING 7905
SWIDTH 300 0
DWIDTH 9 0
BBX 8 18 1 0
BITMAP
E4
9D
01
7F
FF
CC
CC
CC
CC
CC
CC
CC
CC
CC
CC
CC
FC
78
ENDCHAR
STARTCHAR 1EE2
ENCODING 7906
SWIDTH 300 0
DWIDTH 9 0
BBX 9 27 0 -4
BITMAP
0080
0080
0080
3F80
7E00
6700
E700
E700
E700
E700
E700
E700
E700
E700
E700
E700
E700
E700
E700
E700
6700
7E00
3C00
0000
1800
1800
1800
ENDCHAR
STARTCHAR 1EE3
ENCODING 7907
SWIDTH 300 0
DWIDTH 9 0
BBX 8 21 1 -4
BITMAP
01
01
7F
FF
CC
CC
CC
CC
CC
CC
CC
CC
CC
CC
CC
FC
78
00
30
30
30
ENDCHAR
STARTCHAR 1EE4
ENCODING 7908
SWIDTH 266 0
DWIDTH 8 0
BBX 7 24 1 -4
BITMAP
CE
CE
CE
CE
CE
CE
CE
CE
CE
CE
CE
CE
CE
CE
CE
CE
CE
CE
FC
78
00
30
30
30
ENDCHAR
STARTCHAR 1EE5
ENCODING 7909
SWIDTH 266 0
DWIDTH 8 0
BBX 7 19 1 -4
BITMAP
CE
CE
CE
CE
CE
CE
CE
CE
CE
CE
CE
CE
CE
FE
FE
00
30
30
30
ENDCHAR
STARTCHAR 1EE6
ENCODING 7910
SWIDTH 266 0
DWIDTH 8 0
BBX 7 25 1 0
BITMAP
30
28
08
10
20
CE
CE
CE
CE
CE
CE
CE
CE
CE
CE
CE
CE
CE
CE
CE
CE
CE
CE
FC
78
ENDCHAR
STARTCHAR 1EE7
ENCODING 7911
SWIDTH 266 0
DWIDTH 8 0
BBX 7 20 1 0
BITMAP
38
38
08
10
20
CE
CE
CE
CE
CE
CE
CE
CE
CE
CE
CE
CE
CE
FE
7E
ENDCHAR
STARTCHAR 1EE8
ENCODING 7912
SWIDTH 333 0
DWIDTH 10 0
BBX 9 26 1 0
BITMAP
0800
1C00
1800
3080
6080
0080
CF80
CE00
CE00
CE00
CE00
CE00
CE00
CE00
CE00
CE00
CE00
CE00
CE00
CE00
CE00
CE00
CE00
CE00
FC00
7800
ENDCHAR
STARTCHAR 1EE9
ENCODING 7913
SWIDTH 333 0
DWIDTH 10 0
BBX 9 21 1 0
BITMAP
0800
0C00
1800
3000
6180
0080
CF80
CF00
CE00
CE00
CE00
CE00
CE00
CE00
CE00
CE00
CE00
CE00
CE00
FE00
7E00
ENDCHAR
STARTCHAR 1EEA
ENCODING 7914
SWIDTH 333 0
DWIDTH 10 0
BBX 9 26 1 0
BITMAP
4000
6000
7000
3080
1880
0880
CF80
CE00
CE00
CE00
CE00
CE00
CE00
CE00
CE00
CE00
CE00
CE00
CE00
CE00
CE00
CE00
CE00
CE00
FC00
7800
ENDCHAR
STARTCHAR 1EEB
ENCODING 7915
SWIDTH 333 0
DWIDTH 10 0
BBX 9 21 1 0
BITMAP
4000
C000
6000
3000
1980
0080
CF80
CF00
CE00
CE00
CE00
CE00
CE00
CE00
CE00
CE00
CE00
CE00
CE00
FE00
7E00
ENDCHAR
STARTCHAR 1EEC
ENCODING 7916
SWIDTH 333 0
DWIDTH 10 0
BBX 9 25 1 0
BITMAP
3800
2800
0880
1080
0080
CF80
CE00
CE00
CE00
CE00
CE00
CE00
CE00
CE00
CE00
CE00
CE00
CE00
CE00
CE00
CE00
CE00
CE00
FC00
7800
ENDCHAR
STARTCHAR 1EED
ENCODING 7917
SWIDTH 333 0
DWIDTH 10 0
BBX 9 20 1 0
BITMAP
3800
3800
0800
1180
2080
CF80
CF00
CE00
CE00
CE00
CE00
CE00
CE00
CE00
CE00
CE00
CE00
CE00
FE00
7E00
ENDCHAR
STARTCHAR 1EEE
ENCODING 7918
SWIDTH 333 0
DWIDTH 10 0
BBX 9 23 1 0
BITMAP
FC80
9C80
0080
CF80
CE00
CE00
CE00
CE00
CE00
CE00
CE00
CE00
CE00
CE00
CE00
CE00
CE00
CE00
CE00
CE00
CE00
FC00
7800
ENDCHAR
STARTCHAR 1EEF
ENCODING 7919
SWIDTH 333 0
DWIDTH 10 0
BBX 9 18 1 0
BITMAP
E400
9D80
0080
CF80
CF00
CE00
CE00
CE00
CE00
CE00
CE00
CE00
CE00
CE00
CE00
CE00
FE00
7E00
ENDCHAR
STARTCHAR 1EF0
ENCODING 7920
SWIDTH 333 0
DWIDTH 10 0
BBX 9 27 1 -4
BITMAP
0080
0080
0080
CF80
CE00
CE00
CE00
CE00
CE00
CE00
CE00
CE00
CE00
CE00
CE00
CE00
CE00
CE00
CE00
CE00
CE00
FC00
7800
0000
3000
3000
3000
ENDCHAR
STARTCHAR 1EF1
ENCODING 7921
SWIDTH 333 0
DWIDTH 10 0
BBX 9 21 1 -4
BITMAP
0180
0080
CF80
CF00
CE00
CE00
CE00
CE00
CE00
CE00
CE00
CE00
CE00
CE00
CE00
FE00
7E00
0000
3000
3000
3000
ENDCHAR
STARTCHAR 1EF2
ENCODING 7922
SWIDTH 266 0
DWIDTH 8 0
BBX 8 25 0 0
BITMAP
20
30
18
0C
04
E3
63
67
66
66
36
36
3C
3C
1C
1C
18
18
18
18
18
18
18
18
18
ENDCHAR
STARTCHAR 1EF3
ENCODING 7923
SWIDTH 266 0
DWIDTH 8 0
BBX 7 28 1 -7
BITMAP
40
E0
60
30
18
00
CE
CE
CE
CE
CE
CE
CE
CE
CE
CE
CE
CE
CE
FE
FE
0E
CE
CE
CE
CC
FC
78
ENDCHAR
STARTCHAR 1EF6
ENCODING 7926
SWIDTH 266 0
DWIDTH 8 0
BBX 8 25 0 0
BITMAP
1C
14
04
08
00
E3
63
67
66
66
36
36
3C
3C
1C
1C
18
18
18
18
18
18
18
18
18
ENDCHAR
STARTCHAR 1EF7
ENCODING 7927
SWIDTH 266 0
DWIDTH 8 0
BBX 7 27 1 -7
BITMAP
38
38
08
10
20
CE
CE
CE
CE
CE
CE
CE
CE
CE
CE
CE
CE
CE
FE
FE
0E
CE
CE
CE
CC
FC
78
ENDCHAR
STARTCHAR 2013
ENCODING 8211
SWIDTH 200 0
DWIDTH 6 0
BBX 5 2 0 8
BITMAP
F8
F8
ENDCHAR
STARTCHAR 2014
ENCODING 8212
SWIDTH 266 0
DWIDTH 8 0
BBX 8 2 0 8
BITMAP
FF
FF
ENDCHAR
STARTCHAR 2018
ENCODING 8216
SWIDTH 100 0
DWIDTH 3 0
BBX 2 8 1 14
BITMAP
40
C0
80
80
80
C0
C0
C0
ENDCHAR
STARTCHAR 2019
ENCODING 8217
SWIDTH 100 0
DWIDTH 3 0
BBX 2 8 1 13
BITMAP
C0
C0
C0
40
40
C0
80
80
ENDCHAR
STARTCHAR 201A
ENCODING 8218
SWIDTH 100 0
DWIDTH 3 0
BBX 2 8 1 -5
BITMAP
C0
C0
C0
40
40
C0
80
80
ENDCHAR
STARTCHAR 201C
ENCODING 8220
SWIDTH 233 0
DWIDTH 7 0
BBX 5 8 1 13
BITMAP
48
D8
90
90
90
D8
D8
D8
ENDCHAR
STARTCHAR 201D
ENCODING 8221
SWIDTH 233 0
DWIDTH 7 0
BBX 5 8 1 13
BITMAP
D8
D8
D8
48
48
D8
90
A0
ENDCHAR
STARTCHAR 201E
ENCODING 8222
SWIDTH 233 0
DWIDTH 7 0
BBX 5 8 1 -5
BITMAP
D8
D8
D8
48
48
D8
90
A0
ENDCHAR
STARTCHAR 2020
ENCODING 8224
SWIDTH 233 0
DWIDTH 7 0
BBX 5 20 1 0
BITMAP
20
20
20
20
F8
20
20
20
20
20
20
20
20
20
20
20
20
20
20
20
ENDCHAR
STARTCHAR 2021
ENCODING 8225
SWIDTH 233 0
DWIDTH 7 0
BBX 5 20 1 0
BITMAP
20
20
20
20
F8
20
20
20
20
20
20
20
20
20
F8
20
20
20
20
20
ENDCHAR
STARTCHAR 2022
ENCODING 8226
SWIDTH 166 0
DWIDTH 5 0
BBX 3 4 1 8
BITMAP
E0
E0
E0
E0
ENDCHAR
STARTCHAR 2026
ENCODING 8230
SWIDTH 333 0
DWIDTH 10 0
BBX 8 3 1 0
BITMAP
DB
DB
DB
ENDCHAR
STARTCHAR 2030
ENCODING 8240
SWIDTH 400 0
DWIDTH 12 0
BBX 12 21 0 0
BITMAP
0200
6200
B200
B600
B400
B400
B400
BC00
6800
0800
0800
1F70
1550
1550
3550
2550
2550
2550
6550
4550
4770
ENDCHAR
STARTCHAR 2039
ENCODING 8249
SWIDTH 133 0
DWIDTH 4 0
BBX 4 7 0 6
BITMAP
30
20
40
C0
40
20
30
ENDCHAR
STARTCHAR 203A
ENCODING 8250
SWIDTH 133 0
DWIDTH 4 0
BBX 4 7 0 6
BITMAP
C0
40
60
30
60
40
C0
ENDCHAR
STARTCHAR 2044
ENCODING 8260
SWIDTH 66 0
DWIDTH 2 0
BBX 6 21 -2 0
BITMAP
04
04
0C
08
08
08
18
10
10
10
30
20
20
20
60
40
40
40
C0
80
80
ENDCHAR
STARTCHAR 2070
ENCODING 8304
SWIDTH 166 0
DWIDTH 5 0
BBX 3 9 1 10
BITMAP
E0
A0
A0
A0
A0
A0
A0
A0
E0
ENDCHAR
STARTCHAR 2074
ENCODING 8308
SWIDTH 166 0
DWIDTH 5 0
BBX 4 9 0 11
BITMAP
30
30
70
70
70
70
F0
30
30
ENDCHAR
STARTCHAR 2075
ENCODING 8309
SWIDTH 166 0
DWIDTH 5 0
BBX 3 9 1 10
BITMAP
E0
80
80
E0
20
20
20
A0
E0
ENDCHAR
STARTCHAR 2076
ENCODING 8310
SWIDTH 166 0
DWIDTH 5 0
BBX 3 9 1 10
BITMAP
E0
A0
80
E0
A0
A0
A0
A0
E0
ENDCHAR
STARTCHAR 2077
ENCODING 8311
SWIDTH 133 0
DWIDTH 4 0
BBX 3 9 0 11
BITMAP
E0
20
20
20
20
40
40
40
40
ENDCHAR
STARTCHAR 2078
ENCODING 8312
SWIDTH 166 0
DWIDTH 5 0
BBX 3 9 1 10
BITMAP
E0
A0
A0
C0
A0
A0
A0
A0
E0
ENDCHAR
STARTCHAR 2079
ENCODING 8313
SWIDTH 166 0
DWIDTH 5 0
BBX 3 9 1 10
BITMAP
E0
A0
A0
A0
E0
20
A0
A0
E0
ENDCHAR
STARTCHAR 2080
ENCODING 8320
SWIDTH 166 0
DWIDTH 5 0
BBX 3 9 1 0
BITMAP
E0
A0
A0
A0
A0
A0
A0
A0
E0
ENDCHAR
STARTCHAR 2081
ENCODING 8321
SWIDTH 100 0
DWIDTH 3 0
BBX 3 9 0 0
BITMAP
E0
60
60
60
60
60
60
60
60
ENDCHAR
STARTCHAR 2082
ENCODING 8322
SWIDTH 166 0
DWIDTH 5 0
BBX 3 9 1 0
BITMAP
E0
A0
A0
20
40
80
80
80
E0
ENDCHAR
STARTCHAR 2083
ENCODING 8323
SWIDTH 166 0
DWIDTH 5 0
BBX 3 9 1 0
BITMAP
E0
A0
20
40
20
20
A0
A0
E0
ENDCHAR
STARTCHAR 2084
ENCODING 8324
SWIDTH 166 0
DWIDTH 5 0
BBX 4 9 0 0
BITMAP
30
30
70
70
70
70
F0
30
30
ENDCHAR
STARTCHAR 2085
ENCODING 8325
SWIDTH 166 0
DWIDTH 5 0
BBX 3 9 1 0
BITMAP
E0
80
80
E0
20
20
20
A0
E0
ENDCHAR
STARTCHAR 2086
ENCODING 8326
SWIDTH 166 0
DWIDTH 5 0
BBX 3 9 1 0
BITMAP
E0
A0
80
E0
A0
A0
A0
A0
E0
ENDCHAR
STARTCHAR 2087
ENCODING 8327
SWIDTH 133 0
DWIDTH 4 0
BBX 3 9 0 0
BITMAP
E0
20
20
20
20
40
40
40
40
ENDCHAR
STARTCHAR 2088
ENCODING 8328
SWIDTH 166 0
DWIDTH 5 0
BBX 3 9 1 0
BITMAP
E0
A0
A0
A0
C0
A0
A0
A0
E0
ENDCHAR
STARTCHAR 2089
ENCODING 8329
SWIDTH 166 0
DWIDTH 5 0
BBX 3 9 1 0
BITMAP
E0
A0
A0
A0
E0
20
A0
A0
E0
ENDCHAR
STARTCHAR 20A9
ENCODING 8361
SWIDTH 400 0
DWIDTH 12 0
BBX 12 20 0 0
BITMAP
6630
6630
6620
6760
6760
6F60
FFF0
6D60
6D60
6D60
6960
FFF0
2960
2960
2960
2940
39C0
39C0
39C0
39C0
ENDCHAR
STARTCHAR 20AA
ENCODING 8362
SWIDTH 333 0
DWIDTH 10 0
BBX 8 20 1 0
BITMAP
F9
FD
8D
AD
AD
AD
AD
AD
AD
AD
AD
AD
AD
AD
AD
AD
AD
B1
BF
BF
ENDCHAR
STARTCHAR 20AB
ENCODING 8363
SWIDTH 233 0
DWIDTH 7 0
BBX 7 21 0 0
BITMAP
0C
0C
7E
0C
0C
0C
7C
7C
4C
4C
4C
4C
4C
4C
4C
7C
74
00
00
00
FC
ENDCHAR
STARTCHAR 20AC
ENCODING 8364
SWIDTH 266 0
DWIDTH 8 0
BBX 7 20 0 0
BITMAP
1E
3E
72
60
60
60
7C
FC
60
60
60
78
F8
60
60
60
60
72
3E
3C
ENDCHAR
STARTCHAR 20AD
ENCODING 8365
SWIDTH 300 0
DWIDTH 9 0
BBX 9 20 0 0
BITMAP
6380
6300
6300
6600
6600
6600
6C00
6C00
FF80
FF80
6C00
6C00
6C00
6600
6600
6600
6700
6300
6300
6380
ENDCHAR
STARTCHAR 20AE
ENCODING 8366
SWIDTH 266 0
DWIDTH 8 0
BBX 8 20 0 0
BITMAP
FF
FF
18
18
18
18
18
1A
1E
38
78
9A
1E
1C
78
58
18
18
18
18
ENDCHAR
STARTCHAR 20B1
ENCODING 8369
SWIDTH 300 0
DWIDTH 9 0
BBX 9 20 0 0
BITMAP
7E00
7F00
6300
FF80
6300
6300
6300
FF80
6300
6300
7F00
7E00
6000
6000
6000
6000
6000
6000
6000
6000
ENDCHAR
STARTCHAR 20B2
ENCODING 8370
SWIDTH 266 0
DWIDTH 8 0
BBX 7 21 1 0
BITMAP
04
7C
FC
CC
CE
CE
DE
D0
D0
D0
FE
FE
EE
EE
EE
EE
CE
CE
CE
FE
F6
ENDCHAR
STARTCHAR 20B4
ENCODING 8372
SWIDTH 266 0
DWIDTH 8 0
BBX 8 20 0 0
BITMAP
3E
7F
67
63
63
63
07
FF
1E
3C
38
FF
60
60
63
63
63
67
7F
3E
ENDCHAR
STARTCHAR 20B8
ENCODING 8376
SWIDTH 233 0
DWIDTH 7 0
BBX 7 20 0 0
BITMAP
FE
FE
00
FE
FE
10
10
10
10
10
10
10
10
10
10
10
10
10
10
10
ENDCHAR
STARTCHAR 20B9
ENCODING 8377
SWIDTH 233 0
DWIDTH 7 0
BBX 6 20 0 0
BITMAP
FC
FC
1C
0C
0C
FC
FC
0C
0C
18
78
70
30
30
30
30
38
18
18
18
ENDCHAR
STARTCHAR 20BA
ENCODING 8378
SWIDTH 300 0
DWIDTH 9 0
BBX 8 20 0 0
BITMAP
60
60
60
60
66
7C
70
E0
E2
6E
78
60
E0
60
63
63
63
63
7F
7E
ENDCHAR
STARTCHAR 20BC
ENCODING 8380
SWIDTH 400 0
DWIDTH 12 0
BBX 10 20 1 0
BITMAP
0C00
0C00
0C00
0C00
FF80
FFC0
CCC0
8CC0
8CC0
8CC0
8CC0
8CC0
8CC0
8CC0
8CC0
8CC0
8CC0
8CC0
8CC0
8CC0
ENDCHAR
STARTCHAR 20BD
ENCODING 8381
SWIDTH 300 0
DWIDTH 9 0
BBX 8 20 0 0
BITMAP
7E
7F
73
73
73
73
73
73
73
73
FF
FF
70
70
FE
FE
70
70
70
70
ENDCHAR
STARTCHAR 20BE
ENCODING 8382
SWIDTH 300 0
DWIDTH 9 0
BBX 9 22 0 0
BITMAP
0C00
0C00
3E00
7F80
6D80
6D80
6D80
6D80
6D80
6C00
6000
6000
6000
6000
6000
6000
6000
6000
6000
3000
F800
F800
ENDCHAR
STARTCHAR 2113
ENCODING 8467
SWIDTH 233 0
DWIDTH 7 0
BBX 6 20 0 0
BITMAP
38
7C
64
64
64
64
64
64
64
64
64
6C
6C
78
70
E0
E0
60
68
38
ENDCHAR
STARTCHAR 2116
ENCODING 8470
SWIDTH 466 0
DWIDTH 14 0
BBX 13 20 1 0
BITMAP
E670
E6F8
E6D8
E6D8
E6D8
F6D8
F6D8
F6D8
F6D8
D6F8
DE70
DE00
DE00
DE00
CE00
CE00
CE00
CE00
CE00
CE00
ENDCHAR
STARTCHAR 2117
ENCODING 8471
SWIDTH 266 0
DWIDTH 8 0
BBX 7 20 1 0
BITMAP
78
84
82
82
82
B2
CA
CA
CA
CA
BA
C2
C2
C2
C2
82
82
82
84
78
ENDCHAR
STARTCHAR 2122
ENCODING 8482
SWIDTH 300 0
DWIDTH 9 0
BBX 8 7 0 13
BITMAP
EB
4B
4B
4F
4F
4F
4D
ENDCHAR
STARTCHAR 2153
ENCODING 8531
SWIDTH 300 0
DWIDTH 9 0
BBX 9 21 0 0
BITMAP
8200
6200
6200
6600
6400
6400
6400
6C00
6800
6800
7800
1300
1500
1500
3100
2300
2180
2180
6580
4580
4300
ENDCHAR
STARTCHAR 2154
ENCODING 8532
SWIDTH 300 0
DWIDTH 9 0
BBX 9 21 0 0
BITMAP
0100
E300
B200
B200
2200
6600
8400
8400
F400
0C00
0800
0B00
0D80
1C80
1180
1300
3080
2080
2480
2580
6300
ENDCHAR
STARTCHAR 215B
ENCODING 8539
SWIDTH 300 0
DWIDTH 9 0
BBX 7 21 1 0
BITMAP
84
44
4C
48
48
48
58
50
50
50
70
2E
2A
2A
6A
46
4A
4A
CA
8A
8E
ENDCHAR
STARTCHAR 215C
ENCODING 8540
SWIDTH 300 0
DWIDTH 9 0
BBX 9 21 0 0
BITMAP
0300
6200
B200
3200
6600
1400
9400
9400
6C00
0800
0800
0B00
1D80
1580
1580
1300
3580
2480
2480
2580
6300
ENDCHAR
STARTCHAR 215D
ENCODING 8541
SWIDTH 300 0
DWIDTH 9 0
BBX 9 21 0 0
BITMAP
0300
F200
C200
F200
1600
1400
1400
9400
6C00
0800
0800
0B00
1D80
1580
1580
1300
3580
2580
2580
2580
6300
ENDCHAR
STARTCHAR 215E
ENCODING 8542
SWIDTH 300 0
DWIDTH 9 0
BBX 7 21 1 0
BITMAP
04
E4
4C
48
48
48
D8
90
90
90
30
2E
2A
2A
6A
44
4A
4A
CA
8A
8E
ENDCHAR
STARTCHAR 2202
ENCODING 8706
SWIDTH 233 0
DWIDTH 7 0
BBX 5 20 1 0
BITMAP
F0
F8
18
18
08
08
08
E8
F8
98
88
88
88
88
88
88
88
88
F8
F0
ENDCHAR
STARTCHAR 220F
ENCODING 8719
SWIDTH 233 0
DWIDTH 7 0
BBX 5 25 1 -5
BITMAP
F8
F8
88
88
88
88
88
88
88
88
88
88
88
88
88
88
88
88
88
88
88
88
88
88
88
ENDCHAR
STARTCHAR 2211
ENCODING 8721
SWIDTH 200 0
DWIDTH 6 0
BBX 5 25 1 -5
BITMAP
F8
F8
C0
C0
C0
C0
40
60
60
60
60
20
30
20
20
60
60
60
40
40
C0
C0
C0
80
F8
ENDCHAR
STARTCHAR 2212
ENCODING 8722
SWIDTH 266 0
DWIDTH 8 0
BBX 6 2 1 9
BITMAP
FC
FC
ENDCHAR
STARTCHAR 221A
ENCODING 8730
SWIDTH 233 0
DWIDTH 7 0
BBX 7 20 0 0
BITMAP
06
06
06
06
04
04
04
0C
0C
EC
6C
68
68
28
28
28
38
38
38
30
ENDCHAR
STARTCHAR 221E
ENCODING 8734
SWIDTH 366 0
DWIDTH 11 0
BBX 10 6 1 7
BITMAP
F780
DCC0
88C0
88C0
DCC0
F780
ENDCHAR
STARTCHAR 222B
ENCODING 8747
SWIDTH 200 0
DWIDTH 6 0
BBX 4 27 1 -7
BITMAP
30
70
60
60
60
60
60
60
60
60
60
60
60
60
60
60
60
60
60
60
60
60
60
60
60
E0
C0
ENDCHAR
STARTCHAR 2248
ENCODING 8776
SWIDTH 266 0
DWIDTH 8 0
BBX 6 7 1 7
BITMAP
44
FC
9C
00
04
FC
BC
ENDCHAR
STARTCHAR 2260
ENCODING 8800
SWIDTH 266 0
DWIDTH 8 0
BBX 7 22 0 -1
BITMAP
02
02
06
04
04
04
0C
08
7E
08
18
10
10
7E
30
20
20
20
60
40
40
C0
ENDCHAR
STARTCHAR 2264
ENCODING 8804
SWIDTH 266 0
DWIDTH 8 0
BBX 6 12 1 2
BITMAP
0C
3C
F0
C0
E0
78
1C
04
00
00
FC
FC
ENDCHAR
STARTCHAR 2265
ENCODING 8805
SWIDTH 266 0
DWIDTH 8 0
BBX 6 12 1 2
BITMAP
80
E0
3C
0C
1C
78
C0
80
00
00
FC
FC
ENDCHAR
STARTCHAR 22C5
ENCODING 8901
SWIDTH 100 0
DWIDTH 3 0
BBX 2 3 1 8
BITMAP
C0
C0
C0
ENDCHAR
STARTCHAR 25CA
ENCODING 9674
SWIDTH 266 0
DWIDTH 8 0
BBX 6 20 1 0
BITMAP
30
30
70
78
78
58
C8
C8
CC
8C
8C
CC
C8
C8
58
78
78
70
30
30
ENDCHAR
STARTCHAR E000
ENCODING 57344
SWIDTH 266 0
DWIDTH 8 0
BBX 11 27 1 -7
BITMAP
7800
FC00
CC00
CE00
CE00
CE00
C000
C000
C000
DE00
DE00
CE00
CE00
CE00
CE00
CE00
CE00
CE00
FE00
7E00
0E00
0E60
0E60
0E60
0660
07E0
03C0
ENDCHAR
STARTCHAR E001
ENCODING 57345
SWIDTH 266 0
DWIDTH 8 0
BBX 7 22 1 -7
BITMAP
76
F6
CE
CE
CE
CE
CE
CE
CE
CE
CE
CE
CE
FE
FE
0E
0E
0E
0E
0E
0E
0E
ENDCHAR
STARTCHAR E002
ENCODING 57346
SWIDTH 233 0
DWIDTH 7 0
BBX 7 8 0 6
BITMAP
10
18
30
7E
FE
30
38
10
ENDCHAR
STARTCHAR E003
ENCODING 57347
SWIDTH 233 0
DWIDTH 7 0
BBX 7 8 0 6
BITMAP
10
38
0C
FE
FE
0C
38
10
ENDCHAR
STARTCHAR E004
ENCODING 57348
SWIDTH 466 0
DWIDTH 14 0
BBX 13 27 1 -7
BITMAP
79F8
FDF8
CCE0
CEE0
CEE0
CEE0
C0E0
C0E0
C0E0
DEE0
DEE0
CEE0
CEE0
CEE0
CEE0
CEE0
CEE0
CEE0
FEE0
7EE0
0E00
0EE0
0EE0
0EE0
0EE0
07C0
0380
ENDCHAR
STARTCHAR E005
ENCODING 57349
SWIDTH 266 0
DWIDTH 8 0
BBX 8 20 0 0
BITMAP
C3
63
67
66
66
66
36
36
3C
3C
3C
1C
1C
18
18
18
18
38
70
60
ENDCHAR
STARTCHAR E006
ENCODING 57350
SWIDTH 200 0
DWIDTH 6 0
BBX 6 19 0 0
BITMAP
30
30
30
30
FC
FC
30
30
30
30
30
30
30
30
30
30
30
3C
1C
ENDCHAR
ENDFONT
